<svg viewBox="0 0 432.91 92.894" width="432.91pt" height="92.894pt" xmlns="http://www.w3.org/2000/svg" xmlns:xlink="http://www.w3.org/1999/xlink" xmlns:h5="http://www.w3.org/1999/xhtml"><path fill="#ffffff" fill-rule="nonzero" d="M 0 0v 92.894h 432.91v -92.894Z "/><path fill="#ffffff" fill-rule="nonzero" d="M 0 0m 0 3c 0 -1.656854249 1.343145751 -3 3 -3h 426.91c 1.656854249 0 3 1.343145751 3 3v 86.894c 0 1.656854249 -1.343145751 3 -3 3h -426.91c -1.656854249 0 -3 -1.343145751 -3 -3Z "/><g transform="translate(10 10)"><path fill="#000000" fill-rule="nonzero" stroke="#000000" stroke-width="0.75" stroke-linecap="butt" stroke-linejoin="miter" stroke-miterlimit="4" transform="translate(4.5 6.75)" d="M 0 0v 1.8h 37.5v -1.8Z "/><path fill="none" stroke="#000000" stroke-width="0.75" stroke-linecap="butt" stroke-linejoin="miter" stroke-miterlimit="4" transform="translate(4.5 8.55)" d="M 0 0v 37.5h 37.5v -37.5Z "/><path fill="none" stroke="#000000" stroke-width="0.75" stroke-linecap="butt" stroke-linejoin="miter" stroke-miterlimit="4" transform="translate(12 8.55)" d="M 0 0v 37.5"/><path fill="none" stroke="#000000" stroke-width="0.75" stroke-linecap="butt" stroke-linejoin="miter" stroke-miterlimit="4" transform="translate(19.5 8.55)" d="M 0 0v 37.5"/><path fill="none" stroke="#000000" stroke-width="0.75" stroke-linecap="butt" stroke-linejoin="miter" stroke-miterlimit="4" transform="translate(27 8.55)" d="M 0 0v 37.5"/><path fill="none" stroke="#000000" stroke-width="0.75" stroke-linecap="butt" stroke-linejoin="miter" stroke-miterlimit="4" transform="translate(34.5 8.55)" d="M 0 0v 37.5"/><path fill="none" stroke="#000000" stroke-width="0.75" stroke-linecap="butt" stroke-linejoin="miter" stroke-miterlimit="4" transform="translate(4.5 16.05)" d="M 0 0h 37.5"/><path fill="none" stroke="#000000" stroke-width="0.75" stroke-linecap="butt" stroke-linejoin="miter" stroke-miterlimit="4" transform="translate(4.5 23.55)" d="M 0 0h 37.5"/><path fill="none" stroke="#000000" stroke-width="0.75" stroke-linecap="butt" stroke-linejoin="miter" stroke-miterlimit="4" transform="translate(4.5 31.05)" d="M 0 0h 37.5"/><path fill="none" stroke="#000000" stroke-width="0.75" stroke-linecap="butt" stroke-linejoin="miter" stroke-miterlimit="4" transform="translate(4.5 38.55)" d="M 0 0h 37.5"/><path fill="none" stroke="#000000" stroke-width="0.75" stroke-linecap="butt" stroke-linejoin="miter" stroke-miterlimit="4" transform="translate(2.25 4.8)" d="M 0 0l 4.5 -4.5"/><path fill="none" stroke="#000000" stroke-width="0.75" stroke-linecap="butt" stroke-linejoin="miter" stroke-miterlimit="4" transform="translate(2.25 0.3)" d="M 0 0l 4.5 4.5"/><path fill="#000000" fill-rule="nonzero" transform="translate(9.45 24.75)" d="M 0 0m 0 2.55c 0 -1.4070492 1.1429508 -2.55 2.55 -2.55c 1.4070492 0 2.55 1.1429508 2.55 2.55c 0 1.4070492 -1.1429508 2.55 -2.55 2.55c -1.4070492 0 -2.55 -1.1429508 -2.55 -2.55"/><path fill="#000000" fill-rule="nonzero" transform="translate(16.95 17.25)" d="M 0 0m 0 2.55c 0 -1.4070492 1.1429508 -2.55 2.55 -2.55c 1.4070492 0 2.55 1.1429508 2.55 2.55c 0 1.4070492 -1.1429508 2.55 -2.55 2.55c -1.4070492 0 -2.55 -1.1429508 -2.55 -2.55"/><path fill="none" stroke="#000000" stroke-width="0.75" stroke-linecap="butt" stroke-linejoin="miter" stroke-miterlimit="4" transform="translate(24.45)" d="M 0 0m 0 2.55c 0 -1.4070492 1.1429508 -2.55 2.55 -2.55c 1.4070492 0 2.55 1.1429508 2.55 2.55c 0 1.4070492 -1.1429508 2.55 -2.55 2.55c -1.4070492 0 -2.55 -1.1429508 -2.55 -2.55"/><path fill="#000000" fill-rule="nonzero" transform="translate(31.95 9.75)" d="M 0 0m 0 2.55c 0 -1.4070492 1.1429508 -2.55 2.55 -2.55c 1.4070492 0 2.55 1.1429508 2.55 2.55c 0 1.4070492 -1.1429508 2.55 -2.55 2.55c -1.4070492 0 -2.55 -1.1429508 -2.55 -2.55"/><path fill="none" stroke="#000000" stroke-width="0.75" stroke-linecap="butt" stroke-linejoin="miter" stroke-miterlimit="4" transform="translate(39.45)" d="M 0 0m 0 2.55c 0 -1.4070492 1.1429508 -2.55 2.55 -2.55c 1.4070492 0 2.55 1.1429508 2.55 2.55c 0 1.4070492 -1.1429508 2.55 -2.55 2.55c -1.4070492 0 -2.55 -1.1429508 -2.55 -2.55"/><g transform="matrix(1 0 0 -1 9.75 54.222)"><use xlink:href="#g7BD485DADED4F14262FB7E0C3DAF849D" x="0" y="0" fill="#000000" fill-rule="nonzero"/></g><g transform="matrix(1 0 0 -1 17.25 54.222)"><use xlink:href="#g847357BB8876AF51969CA80692415844" x="0" y="0" fill="#000000" fill-rule="nonzero"/></g><g transform="matrix(1 0 0 -1 32.25 54.222)"><use xlink:href="#g1C0AA09C88C242CF299E410BACB4170A" x="0" y="0" fill="#000000" fill-rule="nonzero"/></g><g transform="translate(17.436 61.05)"><path fill="#00000000" fill-rule="nonzero" transform="translate(-3 -3)" d="M 0 0m 0 3c 0 -1.656854249 1.343145751 -3 3 -3h 11.628c 1.656854249 0 3 1.343145751 3 3v 11.844c 0 1.656854249 -1.343145751 3 -3 3h -11.628c -1.656854249 0 -3 -1.343145751 -3 -3Z "/><g transform="matrix(1 0 0 -1 0 11.844)"><use xlink:href="#gAD8B90B2BBF31C235045B25A5E6C8FB0" x="0" y="0" fill="#000000" fill-rule="nonzero"/></g></g></g><g transform="matrix(1 0 0 -1 56.5 82.894)"/><g transform="translate(81.25 10)"><path fill="#000000" fill-rule="nonzero" stroke="#000000" stroke-width="0.75" stroke-linecap="butt" stroke-linejoin="miter" stroke-miterlimit="4" transform="translate(4.5 6.75)" d="M 0 0v 1.8h 22.5v -1.8Z "/><path fill="none" stroke="#000000" stroke-width="0.75" stroke-linecap="butt" stroke-linejoin="miter" stroke-miterlimit="4" transform="translate(4.5 8.55)" d="M 0 0v 37.5h 22.5v -37.5Z "/><path fill="none" stroke="#000000" stroke-width="0.75" stroke-linecap="butt" stroke-linejoin="miter" stroke-miterlimit="4" transform="translate(12 8.55)" d="M 0 0v 37.5"/><path fill="none" stroke="#000000" stroke-width="0.75" stroke-linecap="butt" stroke-linejoin="miter" stroke-miterlimit="4" transform="translate(19.5 8.55)" d="M 0 0v 37.5"/><path fill="none" stroke="#000000" stroke-width="0.75" stroke-linecap="butt" stroke-linejoin="miter" stroke-miterlimit="4" transform="translate(4.5 16.05)" d="M 0 0h 22.5"/><path fill="none" stroke="#000000" stroke-width="0.75" stroke-linecap="butt" stroke-linejoin="miter" stroke-miterlimit="4" transform="translate(4.5 23.55)" d="M 0 0h 22.5"/><path fill="none" stroke="#000000" stroke-width="0.75" stroke-linecap="butt" stroke-linejoin="miter" stroke-miterlimit="4" transform="translate(4.5 31.05)" d="M 0 0h 22.5"/><path fill="none" stroke="#000000" stroke-width="0.75" stroke-linecap="butt" stroke-linejoin="miter" stroke-miterlimit="4" transform="translate(4.5 38.55)" d="M 0 0h 22.5"/><path fill="none" stroke="#000000" stroke-width="0.75" stroke-linecap="butt" stroke-linejoin="miter" stroke-miterlimit="4" transform="translate(1.95)" d="M 0 0m 0 2.55c 0 -1.4070492 1.1429508 -2.55 2.55 -2.55c 1.4070492 0 2.55 1.1429508 2.55 2.55c 0 1.4070492 -1.1429508 2.55 -2.55 2.55c -1.4070492 0 -2.55 -1.1429508 -2.55 -2.55"/><path fill="none" stroke="#000000" stroke-width="0.75" stroke-linecap="butt" stroke-linejoin="miter" stroke-miterlimit="4" transform="translate(9.45)" d="M 0 0m 0 2.55c 0 -1.4070492 1.1429508 -2.55 2.55 -2.55c 1.4070492 0 2.55 1.1429508 2.55 2.55c 0 1.4070492 -1.1429508 2.55 -2.55 2.55c -1.4070492 0 -2.55 -1.1429508 -2.55 -2.55"/><path fill="none" stroke="#000000" stroke-width="0.75" stroke-linecap="butt" stroke-linejoin="miter" stroke-miterlimit="4" transform="translate(16.95)" d="M 0 0m 0 2.55c 0 -1.4070492 1.1429508 -2.55 2.55 -2.55c 1.4070492 0 2.55 1.1429508 2.55 2.55c 0 1.4070492 -1.1429508 2.55 -2.55 2.55c -1.4070492 0 -2.55 -1.1429508 -2.55 -2.55"/><path fill="#000000" fill-rule="nonzero" transform="translate(24.45 24.75)" d="M 0 0m 0 2.55c 0 -1.4070492 1.1429508 -2.55 2.55 -2.55c 1.4070492 0 2.55 1.1429508 2.55 2.55c 0 1.4070492 -1.1429508 2.55 -2.55 2.55c -1.4070492 0 -2.55 -1.1429508 -2.55 -2.55"/><g transform="matrix(1 0 0 -1 24.75 54.222)"><use xlink:href="#g7BD485DADED4F14262FB7E0C3DAF849D" x="0" y="0" fill="#000000" fill-rule="nonzero"/></g><g transform="translate(9.936 61.05)"><path fill="#00000000" fill-rule="nonzero" transform="translate(-3 -3)" d="M 0 0m 0 3c 0 -1.656854249 1.343145751 -3 3 -3h 11.628c 1.656854249 0 3 1.343145751 3 3v 11.844c 0 1.656854249 -1.343145751 3 -3 3h -11.628c -1.656854249 0 -3 -1.343145751 -3 -3Z "/><g transform="matrix(1 0 0 -1 0 11.844)"><use xlink:href="#gAD8B90B2BBF31C235045B25A5E6C8FB0" x="0" y="0" fill="#000000" fill-rule="nonzero"/></g></g></g><g transform="matrix(1 0 0 -1 112.75 82.894)"/><g transform="translate(159.5 10.378)"><path fill="none" stroke="#000000" stroke-width="0.75" stroke-linecap="butt" stroke-linejoin="miter" stroke-miterlimit="4" transform="translate(10.08 26.844)" d="M 0 0m 1.125 0h 35.25c 0.621320344 0 1.125 0.503679656 1.125 1.125v 35.25c 0 0.621320344 -0.503679656 1.125 -1.125 1.125h -35.25c -0.621320344 0 -1.125 -0.503679656 -1.125 -1.125v -35.25c 0 -0.621320344 0.503679656 -1.125 1.125 -1.125"/><path fill="none" stroke="#000000" stroke-width="0.75" stroke-linecap="butt" stroke-linejoin="miter" stroke-miterlimit="4" transform="translate(17.58 26.844)" d="M 0 0v 37.5"/><path fill="none" stroke="#000000" stroke-width="0.75" stroke-linecap="butt" stroke-linejoin="miter" stroke-miterlimit="4" transform="translate(25.08 26.844)" d="M 0 0v 37.5"/><path fill="none" stroke="#000000" stroke-width="0.75" stroke-linecap="butt" stroke-linejoin="miter" stroke-miterlimit="4" transform="translate(32.58 26.844)" d="M 0 0v 37.5"/><path fill="none" stroke="#000000" stroke-width="0.75" stroke-linecap="butt" stroke-linejoin="miter" stroke-miterlimit="4" transform="translate(40.08 26.844)" d="M 0 0v 37.5"/><path fill="none" stroke="#000000" stroke-width="0.75" stroke-linecap="butt" stroke-linejoin="miter" stroke-miterlimit="4" transform="translate(10.08 34.344)" d="M 0 0h 37.5"/><path fill="none" stroke="#000000" stroke-width="0.75" stroke-linecap="butt" stroke-linejoin="miter" stroke-miterlimit="4" transform="translate(10.08 41.844)" d="M 0 0h 37.5"/><path fill="none" stroke="#000000" stroke-width="0.75" stroke-linecap="butt" stroke-linejoin="miter" stroke-miterlimit="4" transform="translate(10.08 49.344)" d="M 0 0h 37.5"/><path fill="none" stroke="#000000" stroke-width="0.75" stroke-linecap="butt" stroke-linejoin="miter" stroke-miterlimit="4" transform="translate(10.08 56.844)" d="M 0 0h 37.5"/><path fill="none" stroke="#000000" stroke-width="0.75" stroke-linecap="butt" stroke-linejoin="miter" stroke-miterlimit="4" transform="translate(7.83 23.094)" d="M 0 0l 4.5 -4.5"/><path fill="none" stroke="#000000" stroke-width="0.75" stroke-linecap="butt" stroke-linejoin="miter" stroke-miterlimit="4" transform="translate(7.83 18.594)" d="M 0 0l 4.5 4.5"/><path fill="#000000" fill-rule="nonzero" transform="translate(22.53 43.044)" d="M 0 0m 0 2.55c 0 -1.4070492 1.1429508 -2.55 2.55 -2.55c 1.4070492 0 2.55 1.1429508 2.55 2.55c 0 1.4070492 -1.1429508 2.55 -2.55 2.55c -1.4070492 0 -2.55 -1.1429508 -2.55 -2.55"/><path fill="#000000" fill-rule="nonzero" transform="translate(30.03 43.044)" d="M 0 0m 0 2.55c 0 -1.4070492 1.1429508 -2.55 2.55 -2.55c 1.4070492 0 2.55 1.1429508 2.55 2.55c 0 1.4070492 -1.1429508 2.55 -2.55 2.55c -1.4070492 0 -2.55 -1.1429508 -2.55 -2.55"/><path fill="#000000" fill-rule="nonzero" transform="translate(37.53 35.544)" d="M 0 0m 0 2.55c 0 -1.4070492 1.1429508 -2.55 2.55 -2.55c 1.4070492 0 2.55 1.1429508 2.55 2.55c 0 1.4070492 -1.1429508 2.55 -2.55 2.55c -1.4070492 0 -2.55 -1.1429508 -2.55 -2.55"/><path fill="none" stroke="#000000" stroke-width="5.1" stroke-linecap="round" stroke-linejoin="miter" stroke-miterlimit="4" transform="translate(47.58 30.594)" d="M 0 0h -30"/><g transform="matrix(1 0 0 -1 15.33 72.516)"><use xlink:href="#g1C0AA09C88C242CF299E410BACB4170A" x="0" y="0" fill="#000000" fill-rule="nonzero"/></g><g transform="matrix(1 0 0 -1 22.83 72.516)"><use xlink:href="#g7BD485DADED4F14262FB7E0C3DAF849D" x="0" y="0" fill="#000000" fill-rule="nonzero"/></g><g transform="matrix(1 0 0 -1 30.33 72.516)"><use xlink:href="#gD11A58C3A3B421C2056FF05E75045811" x="0" y="0" fill="#000000" fill-rule="nonzero"/></g><g transform="matrix(1 0 0 -1 37.83 72.516)"><use xlink:href="#g847357BB8876AF51969CA80692415844" x="0" y="0" fill="#000000" fill-rule="nonzero"/></g><g transform="matrix(1 0 0 -1 45.33 72.516)"><use xlink:href="#g1C0AA09C88C242CF299E410BACB4170A" x="0" y="0" fill="#000000" fill-rule="nonzero"/></g><g transform="matrix(1 0 0 -1 0 34.242)"><use xlink:href="#gD0CAF042D755FA1D32E0ECC376374BB3" x="0" y="0" fill="#000000" fill-rule="nonzero"/></g><g transform="translate(15.906)"><path fill="#00000000" fill-rule="nonzero" transform="translate(-3 -3)" d="M 0 0m 0 3c 0 -1.656854249 1.343145751 -3 3 -3h 25.848c 1.656854249 0 3 1.343145751 3 3v 11.844c 0 1.656854249 -1.343145751 3 -3 3h -25.848c -1.656854249 0 -3 -1.343145751 -3 -3Z "/><g transform="matrix(1 0 0 -1 0 11.844)"><use xlink:href="#gAD8B90B2BBF31C235045B25A5E6C8FB0" x="0" y="0" fill="#000000" fill-rule="nonzero"/><use xlink:href="#gF80B307EF822B86FB55BF5DF0D963523" x="11.628" y="0" fill="#000000" fill-rule="nonzero"/></g></g></g><g transform="matrix(1 0 0 -1 211.58 82.894)"/><g transform="translate(236.33 10.378)"><path fill="#000000" fill-rule="nonzero" stroke="#000000" stroke-width="0.75" stroke-linecap="butt" stroke-linejoin="miter" stroke-miterlimit="4" transform="translate(4.5 26.544)" d="M 0 0c 0 -0.828427125 0.671572875 -1.5 1.5 -1.5h 19.5c 0.828427125 0 1.5 0.828427125 1.5 1.5v 1.8c 0 -0.828427125 -0.828427125 -1.5 -1.5 -1.5h -19.5c -0.828427125 0 -1.5 0.828427125 -1.5 1.5v -1.8c 0 0 0 0.828427125 0 0Z "/><path fill="none" stroke="#000000" stroke-width="0.75" stroke-linecap="butt" stroke-linejoin="miter" stroke-miterlimit="4" transform="translate(4.5 26.844)" d="M 0 0m 1.125 0h 20.25c 0.621320344 0 1.125 0.503679656 1.125 1.125v 35.25c 0 0.621320344 -0.503679656 1.125 -1.125 1.125h -20.25c -0.621320344 0 -1.125 -0.503679656 -1.125 -1.125v -35.25c 0 -0.621320344 0.503679656 -1.125 1.125 -1.125"/><path fill="none" stroke="#000000" stroke-width="0.75" stroke-linecap="butt" stroke-linejoin="miter" stroke-miterlimit="4" transform="translate(12 26.844)" d="M 0 0v 37.5"/><path fill="none" stroke="#000000" stroke-width="0.75" stroke-linecap="butt" stroke-linejoin="miter" stroke-miterlimit="4" transform="translate(19.5 26.844)" d="M 0 0v 37.5"/><path fill="none" stroke="#000000" stroke-width="0.75" stroke-linecap="butt" stroke-linejoin="miter" stroke-miterlimit="4" transform="translate(4.5 34.344)" d="M 0 0h 22.5"/><path fill="none" stroke="#000000" stroke-width="0.75" stroke-linecap="butt" stroke-linejoin="miter" stroke-miterlimit="4" transform="translate(4.5 41.844)" d="M 0 0h 22.5"/><path fill="none" stroke="#000000" stroke-width="0.75" stroke-linecap="butt" stroke-linejoin="miter" stroke-miterlimit="4" transform="translate(4.5 49.344)" d="M 0 0h 22.5"/><path fill="none" stroke="#000000" stroke-width="0.75" stroke-linecap="butt" stroke-linejoin="miter" stroke-miterlimit="4" transform="translate(4.5 56.844)" d="M 0 0h 22.5"/><path fill="none" stroke="#000000" stroke-width="0.75" stroke-linecap="butt" stroke-linejoin="miter" stroke-miterlimit="4" transform="translate(1.95 18.294)" d="M 0 0m 0 2.55c 0 -1.4070492 1.1429508 -2.55 2.55 -2.55c 1.4070492 0 2.55 1.1429508 2.55 2.55c 0 1.4070492 -1.1429508 2.55 -2.55 2.55c -1.4070492 0 -2.55 -1.1429508 -2.55 -2.55"/><path fill="none" stroke="#000000" stroke-width="5.1" stroke-linecap="round" stroke-linejoin="miter" stroke-miterlimit="4" transform="translate(27 45.594)" d="M 0 0h -15"/><g transform="matrix(1 0 0 -1 9.75 72.516)"><use xlink:href="#g1C0AA09C88C242CF299E410BACB4170A" x="0" y="0" fill="#000000" fill-rule="nonzero"/></g><g transform="matrix(1 0 0 -1 17.25 72.516)"><use xlink:href="#g1C0AA09C88C242CF299E410BACB4170A" x="0" y="0" fill="#000000" fill-rule="nonzero"/></g><g transform="matrix(1 0 0 -1 24.75 72.516)"><use xlink:href="#g1C0AA09C88C242CF299E410BACB4170A" x="0" y="0" fill="#000000" fill-rule="nonzero"/></g><g transform="translate(2.826)"><path fill="#00000000" fill-rule="nonzero" transform="translate(-3 -3)" d="M 0 0m 0 3c 0 -1.656854249 1.343145751 -3 3 -3h 25.848c 1.656854249 0 3 1.343145751 3 3v 11.844c 0 1.656854249 -1.343145751 3 -3 3h -25.848c -1.656854249 0 -3 -1.343145751 -3 -3Z "/><g transform="matrix(1 0 0 -1 0 11.844)"><use xlink:href="#gAD8B90B2BBF31C235045B25A5E6C8FB0" x="0" y="0" fill="#000000" fill-rule="nonzero"/><use xlink:href="#gF80B307EF822B86FB55BF5DF0D963523" x="11.628" y="0" fill="#000000" fill-rule="nonzero"/></g></g></g><g transform="matrix(1 0 0 -1 267.83 82.894)"/><g transform="translate(314.58 10)"><path fill="none" stroke="#000000" stroke-width="0.75" stroke-linecap="butt" stroke-linejoin="miter" stroke-miterlimit="4" transform="translate(10.08 8.55)" d="M 0 0m 1.125 0h 35.25c 0.621320344 0 1.125 0.503679656 1.125 1.125v 35.25c 0 0.621320344 -0.503679656 1.125 -1.125 1.125h -35.25c -0.621320344 0 -1.125 -0.503679656 -1.125 -1.125v -35.25c 0 -0.621320344 0.503679656 -1.125 1.125 -1.125"/><path fill="none" stroke="#000000" stroke-width="0.75" stroke-linecap="butt" stroke-linejoin="miter" stroke-miterlimit="4" transform="translate(17.58 8.55)" d="M 0 0v 37.5"/><path fill="none" stroke="#000000" stroke-width="0.75" stroke-linecap="butt" stroke-linejoin="miter" stroke-miterlimit="4" transform="translate(25.08 8.55)" d="M 0 0v 37.5"/><path fill="none" stroke="#000000" stroke-width="0.75" stroke-linecap="butt" stroke-linejoin="miter" stroke-miterlimit="4" transform="translate(32.58 8.55)" d="M 0 0v 37.5"/><path fill="none" stroke="#000000" stroke-width="0.75" stroke-linecap="butt" stroke-linejoin="miter" stroke-miterlimit="4" transform="translate(40.08 8.55)" d="M 0 0v 37.5"/><path fill="none" stroke="#000000" stroke-width="0.75" stroke-linecap="butt" stroke-linejoin="miter" stroke-miterlimit="4" transform="translate(10.08 16.05)" d="M 0 0h 37.5"/><path fill="none" stroke="#000000" stroke-width="0.75" stroke-linecap="butt" stroke-linejoin="miter" stroke-miterlimit="4" transform="translate(10.08 23.55)" d="M 0 0h 37.5"/><path fill="none" stroke="#000000" stroke-width="0.75" stroke-linecap="butt" stroke-linejoin="miter" stroke-miterlimit="4" transform="translate(10.08 31.05)" d="M 0 0h 37.5"/><path fill="none" stroke="#000000" stroke-width="0.75" stroke-linecap="butt" stroke-linejoin="miter" stroke-miterlimit="4" transform="translate(10.08 38.55)" d="M 0 0h 37.5"/><path fill="none" stroke="#000000" stroke-width="0.75" stroke-linecap="butt" stroke-linejoin="miter" stroke-miterlimit="4" transform="translate(7.83 4.8)" d="M 0 0l 4.5 -4.5"/><path fill="none" stroke="#000000" stroke-width="0.75" stroke-linecap="butt" stroke-linejoin="miter" stroke-miterlimit="4" transform="translate(7.83 0.3)" d="M 0 0l 4.5 4.5"/><path fill="#000000" fill-rule="nonzero" transform="translate(22.53 24.75)" d="M 0 0m 0 2.55c 0 -1.4070492 1.1429508 -2.55 2.55 -2.55c 1.4070492 0 2.55 1.1429508 2.55 2.55c 0 1.4070492 -1.1429508 2.55 -2.55 2.55c -1.4070492 0 -2.55 -1.1429508 -2.55 -2.55"/><path fill="#000000" fill-rule="nonzero" transform="translate(30.03 24.75)" d="M 0 0m 0 2.55c 0 -1.4070492 1.1429508 -2.55 2.55 -2.55c 1.4070492 0 2.55 1.1429508 2.55 2.55c 0 1.4070492 -1.1429508 2.55 -2.55 2.55c -1.4070492 0 -2.55 -1.1429508 -2.55 -2.55"/><path fill="#000000" fill-rule="nonzero" transform="translate(37.53 17.25)" d="M 0 0m 0 2.55c 0 -1.4070492 1.1429508 -2.55 2.55 -2.55c 1.4070492 0 2.55 1.1429508 2.55 2.55c 0 1.4070492 -1.1429508 2.55 -2.55 2.55c -1.4070492 0 -2.55 -1.1429508 -2.55 -2.55"/><path fill="none" stroke="#000000" stroke-width="5.1" stroke-linecap="round" stroke-linejoin="miter" stroke-miterlimit="4" transform="translate(47.58 12.3)" d="M 0 0h -30"/><g transform="matrix(1 0 0 -1 15.33 54.222)"><use xlink:href="#g1C0AA09C88C242CF299E410BACB4170A" x="0" y="0" fill="#000000" fill-rule="nonzero"/></g><g transform="matrix(1 0 0 -1 22.83 54.222)"><use xlink:href="#g7BD485DADED4F14262FB7E0C3DAF849D" x="0" y="0" fill="#000000" fill-rule="nonzero"/></g><g transform="matrix(1 0 0 -1 30.33 54.222)"><use xlink:href="#gD11A58C3A3B421C2056FF05E75045811" x="0" y="0" fill="#000000" fill-rule="nonzero"/></g><g transform="matrix(1 0 0 -1 37.83 54.222)"><use xlink:href="#g847357BB8876AF51969CA80692415844" x="0" y="0" fill="#000000" fill-rule="nonzero"/></g><g transform="matrix(1 0 0 -1 45.33 54.222)"><use xlink:href="#g1C0AA09C88C242CF299E410BACB4170A" x="0" y="0" fill="#000000" fill-rule="nonzero"/></g><g transform="matrix(1 0 0 -1 0 15.948)"><use xlink:href="#gD0CAF042D755FA1D32E0ECC376374BB3" x="0" y="0" fill="#000000" fill-rule="nonzero"/></g><g transform="translate(15.906 61.05)"><path fill="#dddddd" fill-rule="nonzero" transform="translate(-3 -3)" d="M 0 0m 0 3c 0 -1.656854249 1.343145751 -3 3 -3h 25.848c 1.656854249 0 3 1.343145751 3 3v 11.844c 0 1.656854249 -1.343145751 3 -3 3h -25.848c -1.656854249 0 -3 -1.343145751 -3 -3Z "/><g transform="matrix(1 0 0 -1 0 11.844)"><use xlink:href="#gAD8B90B2BBF31C235045B25A5E6C8FB0" x="0" y="0" fill="#000000" fill-rule="nonzero"/><use xlink:href="#gF80B307EF822B86FB55BF5DF0D963523" x="11.628" y="0" fill="#000000" fill-rule="nonzero"/></g></g></g><g transform="matrix(1 0 0 -1 366.66 82.894)"/><g transform="translate(391.41 10)"><path fill="#000000" fill-rule="nonzero" stroke="#000000" stroke-width="0.75" stroke-linecap="butt" stroke-linejoin="miter" stroke-miterlimit="4" transform="translate(4.5 8.25)" d="M 0 0c 0 -0.828427125 0.671572875 -1.5 1.5 -1.5h 19.5c 0.828427125 0 1.5 0.828427125 1.5 1.5v 1.8c 0 -0.828427125 -0.828427125 -1.5 -1.5 -1.5h -19.5c -0.828427125 0 -1.5 0.828427125 -1.5 1.5v -1.8c 0 0 0 0.828427125 0 0Z "/><path fill="none" stroke="#000000" stroke-width="0.75" stroke-linecap="butt" stroke-linejoin="miter" stroke-miterlimit="4" transform="translate(4.5 8.55)" d="M 0 0m 1.125 0h 20.25c 0.621320344 0 1.125 0.503679656 1.125 1.125v 35.25c 0 0.621320344 -0.503679656 1.125 -1.125 1.125h -20.25c -0.621320344 0 -1.125 -0.503679656 -1.125 -1.125v -35.25c 0 -0.621320344 0.503679656 -1.125 1.125 -1.125"/><path fill="none" stroke="#000000" stroke-width="0.75" stroke-linecap="butt" stroke-linejoin="miter" stroke-miterlimit="4" transform="translate(12 8.55)" d="M 0 0v 37.5"/><path fill="none" stroke="#000000" stroke-width="0.75" stroke-linecap="butt" stroke-linejoin="miter" stroke-miterlimit="4" transform="translate(19.5 8.55)" d="M 0 0v 37.5"/><path fill="none" stroke="#000000" stroke-width="0.75" stroke-linecap="butt" stroke-linejoin="miter" stroke-miterlimit="4" transform="translate(4.5 16.05)" d="M 0 0h 22.5"/><path fill="none" stroke="#000000" stroke-width="0.75" stroke-linecap="butt" stroke-linejoin="miter" stroke-miterlimit="4" transform="translate(4.5 23.55)" d="M 0 0h 22.5"/><path fill="none" stroke="#000000" stroke-width="0.75" stroke-linecap="butt" stroke-linejoin="miter" stroke-miterlimit="4" transform="translate(4.5 31.05)" d="M 0 0h 22.5"/><path fill="none" stroke="#000000" stroke-width="0.75" stroke-linecap="butt" stroke-linejoin="miter" stroke-miterlimit="4" transform="translate(4.5 38.55)" d="M 0 0h 22.5"/><path fill="none" stroke="#000000" stroke-width="0.75" stroke-linecap="butt" stroke-linejoin="miter" stroke-miterlimit="4" transform="translate(1.95)" d="M 0 0m 0 2.55c 0 -1.4070492 1.1429508 -2.55 2.55 -2.55c 1.4070492 0 2.55 1.1429508 2.55 2.55c 0 1.4070492 -1.1429508 2.55 -2.55 2.55c -1.4070492 0 -2.55 -1.1429508 -2.55 -2.55"/><path fill="none" stroke="#000000" stroke-width="5.1" stroke-linecap="round" stroke-linejoin="miter" stroke-miterlimit="4" transform="translate(27 27.3)" d="M 0 0h -15"/><g transform="matrix(1 0 0 -1 9.75 54.222)"><use xlink:href="#g1C0AA09C88C242CF299E410BACB4170A" x="0" y="0" fill="#000000" fill-rule="nonzero"/></g><g transform="matrix(1 0 0 -1 17.25 54.222)"><use xlink:href="#g1C0AA09C88C242CF299E410BACB4170A" x="0" y="0" fill="#000000" fill-rule="nonzero"/></g><g transform="matrix(1 0 0 -1 24.75 54.222)"><use xlink:href="#g1C0AA09C88C242CF299E410BACB4170A" x="0" y="0" fill="#000000" fill-rule="nonzero"/></g><g transform="translate(2.826 61.05)"><path fill="#dddddd" fill-rule="nonzero" transform="translate(-3 -3)" d="M 0 0m 0 3c 0 -1.656854249 1.343145751 -3 3 -3h 25.848c 1.656854249 0 3 1.343145751 3 3v 11.844c 0 1.656854249 -1.343145751 3 -3 3h -25.848c -1.656854249 0 -3 -1.343145751 -3 -3Z "/><g transform="matrix(1 0 0 -1 0 11.844)"><use xlink:href="#gAD8B90B2BBF31C235045B25A5E6C8FB0" x="0" y="0" fill="#000000" fill-rule="nonzero"/><use xlink:href="#gF80B307EF822B86FB55BF5DF0D963523" x="11.628" y="0" fill="#000000" fill-rule="nonzero"/></g></g></g><defs><symbol id="g7BD485DADED4F14262FB7E0C3DAF849D" overflow="visible"><path d="M 0 0m 1.935 5.175c 0.387 0 0.747 -0.234 0.747 -0.81c 0 -0.45 -0.522 -1.143 -1.413 -1.269l 0.045 -0.288c 0.153 0.018 0.315 0.018 0.432 0.018c 0.513 0 1.179 -0.144 1.179 -1.161c 0 -1.197 -0.801 -1.44 -1.116 -1.44c -0.459 0 -0.54 0.207 -0.648 0.369c -0.09 0.126 -0.207 0.234 -0.387 0.234c -0.189 0 -0.378 -0.171 -0.378 -0.315c 0 -0.36 0.756 -0.603 1.296 -0.603c 1.071 0 2.025 0.693 2.025 1.881c 0 0.981 -0.738 1.332 -1.269 1.422l -0.009 0.018c 0.738 0.351 0.945 0.72 0.945 1.197c 0 0.27 -0.063 0.486 -0.279 0.711c -0.198 0.198 -0.513 0.351 -0.981 0.351c -1.323 0 -1.701 -0.864 -1.701 -1.161c 0 -0.126 0.09 -0.306 0.306 -0.306c 0.315 0 0.351 0.297 0.351 0.468c 0 0.576 0.621 0.684 0.855 0.684Z "/></symbol><symbol id="g847357BB8876AF51969CA80692415844" overflow="visible"><path d="M 0 0m 0.549 4.212c 0 -0.189 0.171 -0.351 0.36 -0.351c 0.153 0 0.423 0.162 0.423 0.36c 0 0.072 -0.018 0.126 -0.036 0.189c -0.018 0.063 -0.072 0.144 -0.072 0.216c 0 0.225 0.234 0.549 0.891 0.549c 0.324 0 0.783 -0.225 0.783 -1.089c 0 -0.576 -0.207 -1.044 -0.738 -1.584l -0.666 -0.657c -0.882 -0.9 -1.026 -1.332 -1.026 -1.863c 0 0 0.459 0.018 0.747 0.018h 1.575c 0.288 0 0.702 -0.018 0.702 -0.018c 0.117 0.477 0.207 1.152 0.216 1.422c -0.054 0.045 -0.171 0.063 -0.261 0.045c -0.153 -0.639 -0.306 -0.864 -0.63 -0.864h -1.602c 0 0.432 0.621 1.044 0.666 1.089l 0.909 0.873c 0.513 0.495 0.9 0.891 0.9 1.575c 0 0.972 -0.792 1.368 -1.521 1.368c -0.999 0 -1.62 -0.738 -1.62 -1.278Z "/></symbol><symbol id="g1C0AA09C88C242CF299E410BACB4170A" overflow="visible"><path d="M 0 0m 2.592 1.098v 3.123c 0 0.54 0.009 1.089 0.027 1.206c 0 0.045 -0.018 0.045 -0.054 0.045c -0.495 -0.306 -0.972 -0.531 -1.764 -0.9c 0.018 -0.099 0.054 -0.189 0.135 -0.243c 0.414 0.171 0.612 0.225 0.783 0.225c 0.153 0 0.18 -0.216 0.18 -0.522v -2.934c 0 -0.747 -0.243 -0.792 -0.873 -0.819c -0.054 -0.054 -0.054 -0.243 0 -0.297c 0.441 0.009 0.765 0.018 1.251 0.018c 0.432 0 0.648 -0.009 1.098 -0.018c 0.054 0.054 0.054 0.243 0 0.297c -0.63 0.027 -0.783 0.072 -0.783 0.819Z "/></symbol><symbol id="gAD8B90B2BBF31C235045B25A5E6C8FB0" overflow="visible"><path d="M 0 0m 6.426 -0.18c 1.746 0 3.348 0.828 4.572 2.43c -0.09 0.162 -0.216 0.27 -0.414 0.27c -1.278 -1.404 -2.502 -1.962 -4.176 -1.962c -2.43 0 -4.104 2.736 -4.104 5.364c 0 1.548 0.414 2.844 1.062 3.654c 0.9 1.098 1.944 1.602 2.88 1.602c 2.484 0 3.474 -1.476 3.942 -3.024c 0.216 -0.072 0.396 -0.018 0.594 0.09c -0.09 0.936 -0.216 1.8 -0.396 2.79c -0.918 0.09 -1.728 0.81 -3.942 0.81c -1.53 0 -2.808 -0.558 -3.87 -1.53c -1.188 -1.098 -1.908 -2.862 -1.908 -4.734c 0 -3.132 1.89 -5.76 5.76 -5.76Z "/></symbol><symbol id="gD11A58C3A3B421C2056FF05E75045811" overflow="visible"><path d="M 0 0m 3.87 1.971h -0.747v 2.628c 0 0.45 0 0.801 0.018 0.873l -0.018 0.018h -0.288c -0.063 0 -0.108 -0.054 -0.144 -0.099c -0.567 -0.693 -1.611 -2.178 -2.439 -3.465c 0.027 -0.135 0.081 -0.378 0.351 -0.378h 1.836v -0.828c 0 -0.414 -0.342 -0.414 -0.729 -0.441c -0.054 -0.054 -0.054 -0.243 0 -0.297c 0.288 0.009 0.648 0.018 1.062 0.018c 0.351 0 0.693 -0.009 0.981 -0.018c 0.054 0.054 0.054 0.243 0 0.297c -0.441 0.036 -0.63 0.018 -0.63 0.441v 0.828h 0.621c 0.126 0 0.261 0.171 0.261 0.279c 0 0.09 -0.036 0.144 -0.135 0.144Z m -1.431 2.592v -2.592h -1.719c 0.459 0.738 1.098 1.746 1.719 2.592Z "/></symbol><symbol id="gD0CAF042D755FA1D32E0ECC376374BB3" overflow="visible"><path d="M 0 0m 2.58 6.9c 0.516 0 0.996 -0.312 0.996 -1.08c 0 -0.6 -0.696 -1.524 -1.884 -1.692l 0.06 -0.384c 0.204 0.024 0.42 0.024 0.576 0.024c 0.684 0 1.572 -0.192 1.572 -1.548c 0 -1.596 -1.068 -1.92 -1.488 -1.92c -0.612 0 -0.72 0.276 -0.864 0.492c -0.12 0.168 -0.276 0.312 -0.516 0.312c -0.252 0 -0.504 -0.228 -0.504 -0.42c 0 -0.48 1.008 -0.804 1.728 -0.804c 1.428 0 2.7 0.924 2.7 2.508c 0 1.308 -0.984 1.776 -1.692 1.896l -0.012 0.024c 0.984 0.468 1.26 0.96 1.26 1.596c 0 0.36 -0.084 0.648 -0.372 0.948c -0.264 0.264 -0.684 0.468 -1.308 0.468c -1.764 0 -2.268 -1.152 -2.268 -1.548c 0 -0.168 0.12 -0.408 0.408 -0.408c 0.42 0 0.468 0.396 0.468 0.624c 0 0.768 0.828 0.912 1.14 0.912Z "/></symbol><symbol id="gF80B307EF822B86FB55BF5DF0D963523" overflow="visible"><path d="M 0 0m 3.06 6.444c -0.018 0.54 -0.054 1.188 -0.144 1.368c -0.036 0.09 -0.072 0.144 -0.216 0.144c -0.504 -0.198 -0.972 -0.36 -2.214 -0.522c -0.036 -0.108 0 -0.396 0.036 -0.504c 0.972 -0.09 1.17 -0.18 1.17 -1.224v -3.51c 0 -1.476 -0.234 -1.566 -1.224 -1.638c -0.108 -0.108 -0.108 -0.486 0 -0.594c 0.54 0.018 1.224 0.036 1.944 0.036c 0.72 0 1.278 -0.018 1.818 -0.036c 0.108 0.108 0.108 0.486 0 0.594c -0.918 0.09 -1.116 0.162 -1.116 1.638v 2.952c 0 0.378 0.162 0.594 0.306 0.756c 0.72 0.702 1.386 1.062 1.944 1.062c 0.684 0 1.188 -0.432 1.188 -1.638v -3.132c 0 -1.476 -0.144 -1.566 -1.116 -1.638c -0.09 -0.108 -0.09 -0.486 0 -0.594c 0.45 0.018 1.116 0.036 1.836 0.036c 0.72 0 1.314 -0.018 1.764 -0.036c 0.09 0.108 0.09 0.486 0 0.594c -0.9 0.072 -1.062 0.162 -1.062 1.638v 2.862c 0 0.252 0 0.504 -0.018 0.72c 0.864 0.954 1.674 1.188 2.376 1.188c 0.684 0 1.08 -0.396 1.08 -1.602v -3.168c 0 -1.476 -0.18 -1.566 -1.116 -1.638c -0.09 -0.108 -0.09 -0.486 0 -0.594c 0.45 0.018 1.116 0.036 1.836 0.036c 0.72 0 1.35 -0.018 1.854 -0.036c 0.09 0.108 0.09 0.486 0 0.594c -0.99 0.072 -1.152 0.162 -1.152 1.638v 2.844c 0 1.602 -0.27 2.862 -1.854 2.862c -0.918 0 -2.034 -0.342 -2.97 -1.332c -0.054 -0.054 -0.162 -0.144 -0.198 0.018c -0.162 0.738 -0.864 1.314 -1.8 1.314c -1.044 0 -1.98 -0.612 -2.736 -1.458c -0.09 -0.09 -0.198 -0.216 -0.216 0Z "/></symbol></defs></svg>