<svg viewBox="0 0 440.75 94.766" width="440.75pt" height="94.766pt" xmlns="http://www.w3.org/2000/svg" xmlns:xlink="http://www.w3.org/1999/xlink" xmlns:h5="http://www.w3.org/1999/xhtml"><path fill="#ffffff" fill-rule="nonzero" d="M 0 0v 94.766h 440.75v -94.766Z "/><path fill="#ffffff" fill-rule="nonzero" d="M 0 0m 0 3c 0 -1.656854249 1.343145751 -3 3 -3h 434.75c 1.656854249 0 3 1.343145751 3 3v 88.766c 0 1.656854249 -1.343145751 3 -3 3h -434.75c -1.656854249 0 -3 -1.343145751 -3 -3Z "/><g transform="translate(10 10)"><path fill="#ffffff" fill-rule="nonzero" stroke="#000000" stroke-width="0.75" stroke-linecap="butt" stroke-linejoin="miter" stroke-miterlimit="4" transform="translate(0 10.422)" d="M 0 0v 37.5h 11.25v -37.5Z "/><path fill="#ffffff" fill-rule="nonzero" stroke="#000000" stroke-width="0.75" stroke-linecap="butt" stroke-linejoin="miter" stroke-miterlimit="4" transform="translate(11.25 10.422)" d="M 0 0v 37.5h 11.25v -37.5Z "/><path fill="#ffffff" fill-rule="nonzero" stroke="#000000" stroke-width="0.75" stroke-linecap="butt" stroke-linejoin="miter" stroke-miterlimit="4" transform="translate(22.5 10.422)" d="M 0 0v 37.5h 11.25v -37.5Z "/><path fill="#ffffff" fill-rule="nonzero" stroke="#000000" stroke-width="0.75" stroke-linecap="butt" stroke-linejoin="miter" stroke-miterlimit="4" transform="translate(33.75 10.422)" d="M 0 0v 37.5h 11.25v -37.5Z "/><path fill="#ffffff" fill-rule="nonzero" stroke="#000000" stroke-width="0.75" stroke-linecap="butt" stroke-linejoin="miter" stroke-miterlimit="4" transform="translate(45 10.422)" d="M 0 0v 37.5h 11.25v -37.5Z "/><path fill="#ffffff" fill-rule="nonzero" stroke="#000000" stroke-width="0.75" stroke-linecap="butt" stroke-linejoin="miter" stroke-miterlimit="4" transform="translate(56.25 10.422)" d="M 0 0v 37.5h 11.25v -37.5Z "/><path fill="#ffffff" fill-rule="nonzero" stroke="#000000" stroke-width="0.75" stroke-linecap="butt" stroke-linejoin="miter" stroke-miterlimit="4" transform="translate(67.5 10.422)" d="M 0 0v 37.5h 11.25v -37.5Z "/><path fill="#0074d9" fill-rule="nonzero" stroke="#000000" stroke-width="0.75" stroke-linecap="butt" stroke-linejoin="miter" stroke-miterlimit="4" transform="translate(78.75 10.422)" d="M 0 0v 37.5h 11.25v -37.5Z "/><path fill="#ffffff" fill-rule="nonzero" stroke="#000000" stroke-width="0.75" stroke-linecap="butt" stroke-linejoin="miter" stroke-miterlimit="4" transform="translate(90 10.422)" d="M 0 0v 37.5h 11.25v -37.5Z "/><path fill="#ffffff" fill-rule="nonzero" stroke="#000000" stroke-width="0.75" stroke-linecap="butt" stroke-linejoin="miter" stroke-miterlimit="4" transform="translate(101.25 10.422)" d="M 0 0v 37.5h 11.25v -37.5Z "/><path fill="#ffffff" fill-rule="nonzero" stroke="#000000" stroke-width="0.75" stroke-linecap="butt" stroke-linejoin="miter" stroke-miterlimit="4" transform="translate(112.5 10.422)" d="M 0 0v 37.5h 11.25v -37.5Z "/><path fill="#000000" fill-rule="nonzero" stroke="#000000" stroke-width="0.75" stroke-linecap="butt" stroke-linejoin="miter" stroke-miterlimit="4" transform="translate(6 10.422)" d="M 0 0v 25.5h 7.5v -25.5Z "/><path fill="#000000" fill-rule="nonzero" stroke="#000000" stroke-width="0.75" stroke-linecap="butt" stroke-linejoin="miter" stroke-miterlimit="4" transform="translate(18.75 10.422)" d="M 0 0v 25.5h 7.5v -25.5Z "/><path fill="#000000" fill-rule="nonzero" stroke="#000000" stroke-width="0.75" stroke-linecap="butt" stroke-linejoin="miter" stroke-miterlimit="4" transform="translate(31.5 10.422)" d="M 0 0v 25.5h 7.5v -25.5Z "/><path fill="#0074d9" fill-rule="nonzero" stroke="#000000" stroke-width="0.75" stroke-linecap="butt" stroke-linejoin="miter" stroke-miterlimit="4" transform="translate(51 10.422)" d="M 0 0v 25.5h 7.5v -25.5Z "/><path fill="#000000" fill-rule="nonzero" stroke="#000000" stroke-width="0.75" stroke-linecap="butt" stroke-linejoin="miter" stroke-miterlimit="4" transform="translate(65.25 10.422)" d="M 0 0v 25.5h 7.5v -25.5Z "/><path fill="#000000" fill-rule="nonzero" stroke="#000000" stroke-width="0.75" stroke-linecap="butt" stroke-linejoin="miter" stroke-miterlimit="4" transform="translate(84.75 10.422)" d="M 0 0v 25.5h 7.5v -25.5Z "/><path fill="#0074d9" fill-rule="nonzero" stroke="#000000" stroke-width="0.75" stroke-linecap="butt" stroke-linejoin="miter" stroke-miterlimit="4" transform="translate(97.5 10.422)" d="M 0 0v 25.5h 7.5v -25.5Z "/><path fill="#000000" fill-rule="nonzero" stroke="#000000" stroke-width="0.75" stroke-linecap="butt" stroke-linejoin="miter" stroke-miterlimit="4" transform="translate(110.25 10.422)" d="M 0 0v 25.5h 7.5v -25.5Z "/><path fill="#000000" fill-rule="nonzero" stroke="#000000" stroke-width="0.75" stroke-linecap="butt" stroke-linejoin="miter" stroke-miterlimit="4" transform="translate(0 8.622)" d="M 0 0v 1.8h 123.75v -1.8Z "/><path fill="#000000" fill-rule="nonzero" transform="translate(81.825 39.372)" d="M 0 0m 0 2.55c 0 -1.4070492 1.1429508 -2.55 2.55 -2.55c 1.4070492 0 2.55 1.1429508 2.55 2.55c 0 1.4070492 -1.1429508 2.55 -2.55 2.55c -1.4070492 0 -2.55 -1.1429508 -2.55 -2.55"/><path fill="#000000" fill-rule="nonzero" transform="translate(52.2 28.122)" d="M 0 0m 0 2.55c 0 -1.4070492 1.1429508 -2.55 2.55 -2.55c 1.4070492 0 2.55 1.1429508 2.55 2.55c 0 1.4070492 -1.1429508 2.55 -2.55 2.55c -1.4070492 0 -2.55 -1.1429508 -2.55 -2.55"/><path fill="#000000" fill-rule="nonzero" transform="translate(98.7 28.122)" d="M 0 0m 0 2.55c 0 -1.4070492 1.1429508 -2.55 2.55 -2.55c 1.4070492 0 2.55 1.1429508 2.55 2.55c 0 1.4070492 -1.1429508 2.55 -2.55 2.55c -1.4070492 0 -2.55 -1.1429508 -2.55 -2.55"/><g transform="matrix(1 0 0 -1 82.1925 56.544)"><use xlink:href="#g7864D1617FA3151403FF7A71D5443C9A" x="0" y="0" fill="#000000" fill-rule="nonzero"/></g><g transform="matrix(1 0 0 -1 49.7505 6.072)"><use xlink:href="#gC375F277B20C2526627B56EF0039913" x="0" y="0" fill="#000000" fill-rule="nonzero"/><use xlink:href="#g68BFE74938DD233F6CD5D0BDE452605" x="5.814" y="0" fill="#000000" fill-rule="nonzero"/></g><g transform="matrix(1 0 0 -1 96.075 6.072)"><use xlink:href="#gADDFE345BACEA6BD599FB31121BB3B4" x="0" y="0" fill="#000000" fill-rule="nonzero"/><use xlink:href="#g68BFE74938DD233F6CD5D0BDE452605" x="6.165" y="0" fill="#000000" fill-rule="nonzero"/></g><g transform="translate(51.876 62.922)"><path fill="#00000000" fill-rule="nonzero" transform="translate(-3 -3)" d="M 0 0m 0 3c 0 -1.656854249 1.343145751 -3 3 -3h 19.998c 1.656854249 0 3 1.343145751 3 3v 11.844c 0 1.656854249 -1.343145751 3 -3 3h -19.998c -1.656854249 0 -3 -1.343145751 -3 -3Z "/><g transform="matrix(1 0 0 -1 0 11.844)"><use xlink:href="#gAD8B90B2BBF31C235045B25A5E6C8FB0" x="0" y="0" fill="#000000" fill-rule="nonzero"/><use xlink:href="#g58E9A3678C9B85652D491C5628F659F7" x="11.628" y="0" fill="#000000" fill-rule="nonzero"/></g></g></g><g transform="matrix(1 0 0 -1 133.75 84.766)"/><g transform="translate(158.5 10)"><path fill="#ffffff" fill-rule="nonzero" transform="translate(0 28.644)" d="M 0 0m 0 1.125c 0 -0.621320344 0.503679656 -1.125 1.125 -1.125h 10.125v 36.375c 0 0.621320344 -0.503679656 1.125 -1.125 1.125h -9c -0.621320344 0 -1.125 -0.503679656 -1.125 -1.125Z "/><path fill="#000000" fill-rule="nonzero" transform="translate(0 28.644)" d="M 0 0m 1.125 0.375v -0.75h 10.5v 36.75c 0 0.828427125 -0.671572875 1.5 -1.5 1.5h -9c -0.828427125 0 -1.5 -0.671572875 -1.5 -1.5v -35.25c 0 -0.828427125 0.671572875 -1.5 1.5 -1.5v 0.75c -0.414213562 0 -0.75 0.335786438 -0.75 0.75v 35.25c 0 0.414213562 0.335786438 0.75 0.75 0.75h 9c 0.414213562 0 0.75 -0.335786438 0.75 -0.75v -36Z "/><path fill="#ffffff" fill-rule="nonzero" transform="translate(11.25 28.644)" d="M 0 0h 11.25v 36.375c 0 0.621320344 -0.503679656 1.125 -1.125 1.125h -9c -0.621320344 0 -1.125 -0.503679656 -1.125 -1.125Z "/><path fill="#000000" fill-rule="nonzero" transform="translate(11.25 28.644)" d="M 0 0m 0.375 0.375l -0.75 -0.75h 12v 36.75c 0 0.828427125 -0.671572875 1.5 -1.5 1.5h -9c -0.828427125 0 -1.5 -0.671572875 -1.5 -1.5v -36.75l 0.75 0.75v 36c 0 0.414213562 0.335786438 0.75 0.75 0.75h 9c 0.414213562 0 0.75 -0.335786438 0.75 -0.75v -36Z "/><path fill="#ffffff" fill-rule="nonzero" transform="translate(22.5 28.644)" d="M 0 0h 11.25v 36.375c 0 0.621320344 -0.503679656 1.125 -1.125 1.125h -9c -0.621320344 0 -1.125 -0.503679656 -1.125 -1.125Z "/><path fill="#000000" fill-rule="nonzero" transform="translate(22.5 28.644)" d="M 0 0m 0.375 0.375l -0.75 -0.75h 12v 36.75c 0 0.828427125 -0.671572875 1.5 -1.5 1.5h -9c -0.828427125 0 -1.5 -0.671572875 -1.5 -1.5v -36.75l 0.75 0.75v 36c 0 0.414213562 0.335786438 0.75 0.75 0.75h 9c 0.414213562 0 0.75 -0.335786438 0.75 -0.75v -36Z "/><path fill="#ffffff" fill-rule="nonzero" transform="translate(33.75 28.644)" d="M 0 0h 11.25v 36.375c 0 0.621320344 -0.503679656 1.125 -1.125 1.125h -9c -0.621320344 0 -1.125 -0.503679656 -1.125 -1.125Z "/><path fill="#000000" fill-rule="nonzero" transform="translate(33.75 28.644)" d="M 0 0m 0.375 0.375l -0.75 -0.75h 12v 36.75c 0 0.828427125 -0.671572875 1.5 -1.5 1.5h -9c -0.828427125 0 -1.5 -0.671572875 -1.5 -1.5v -36.75l 0.75 0.75v 36c 0 0.414213562 0.335786438 0.75 0.75 0.75h 9c 0.414213562 0 0.75 -0.335786438 0.75 -0.75v -36Z "/><path fill="#ffffff" fill-rule="nonzero" transform="translate(45 28.644)" d="M 0 0h 11.25v 36.375c 0 0.621320344 -0.503679656 1.125 -1.125 1.125h -9c -0.621320344 0 -1.125 -0.503679656 -1.125 -1.125Z "/><path fill="#000000" fill-rule="nonzero" transform="translate(45 28.644)" d="M 0 0m 0.375 0.375l -0.75 -0.75h 12v 36.75c 0 0.828427125 -0.671572875 1.5 -1.5 1.5h -9c -0.828427125 0 -1.5 -0.671572875 -1.5 -1.5v -36.75l 0.75 0.75v 36c 0 0.414213562 0.335786438 0.75 0.75 0.75h 9c 0.414213562 0 0.75 -0.335786438 0.75 -0.75v -36Z "/><path fill="#ffffff" fill-rule="nonzero" transform="translate(56.25 28.644)" d="M 0 0h 11.25v 36.375c 0 0.621320344 -0.503679656 1.125 -1.125 1.125h -9c -0.621320344 0 -1.125 -0.503679656 -1.125 -1.125Z "/><path fill="#000000" fill-rule="nonzero" transform="translate(56.25 28.644)" d="M 0 0m 0.375 0.375l -0.75 -0.75h 12v 36.75c 0 0.828427125 -0.671572875 1.5 -1.5 1.5h -9c -0.828427125 0 -1.5 -0.671572875 -1.5 -1.5v -36.75l 0.75 0.75v 36c 0 0.414213562 0.335786438 0.75 0.75 0.75h 9c 0.414213562 0 0.75 -0.335786438 0.75 -0.75v -36Z "/><path fill="#ffffff" fill-rule="nonzero" transform="translate(67.5 28.644)" d="M 0 0h 11.25v 36.375c 0 0.621320344 -0.503679656 1.125 -1.125 1.125h -9c -0.621320344 0 -1.125 -0.503679656 -1.125 -1.125Z "/><path fill="#000000" fill-rule="nonzero" transform="translate(67.5 28.644)" d="M 0 0m 0.375 0.375l -0.75 -0.75h 12v 36.75c 0 0.828427125 -0.671572875 1.5 -1.5 1.5h -9c -0.828427125 0 -1.5 -0.671572875 -1.5 -1.5v -36.75l 0.75 0.75v 36c 0 0.414213562 0.335786438 0.75 0.75 0.75h 9c 0.414213562 0 0.75 -0.335786438 0.75 -0.75v -36Z "/><path fill="#ffdc00" fill-rule="nonzero" transform="translate(78.75 28.644)" d="M 0 0h 11.25v 36.375c 0 0.621320344 -0.503679656 1.125 -1.125 1.125h -9c -0.621320344 0 -1.125 -0.503679656 -1.125 -1.125Z "/><path fill="#000000" fill-rule="nonzero" transform="translate(78.75 28.644)" d="M 0 0m 0.375 0.375l -0.75 -0.75h 12v 36.75c 0 0.828427125 -0.671572875 1.5 -1.5 1.5h -9c -0.828427125 0 -1.5 -0.671572875 -1.5 -1.5v -36.75l 0.75 0.75v 36c 0 0.414213562 0.335786438 0.75 0.75 0.75h 9c 0.414213562 0 0.75 -0.335786438 0.75 -0.75v -36Z "/><path fill="#ffffff" fill-rule="nonzero" transform="translate(90 28.644)" d="M 0 0h 11.25v 36.375c 0 0.621320344 -0.503679656 1.125 -1.125 1.125h -9c -0.621320344 0 -1.125 -0.503679656 -1.125 -1.125Z "/><path fill="#000000" fill-rule="nonzero" transform="translate(90 28.644)" d="M 0 0m 0.375 0.375l -0.75 -0.75h 12v 36.75c 0 0.828427125 -0.671572875 1.5 -1.5 1.5h -9c -0.828427125 0 -1.5 -0.671572875 -1.5 -1.5v -36.75l 0.75 0.75v 36c 0 0.414213562 0.335786438 0.75 0.75 0.75h 9c 0.414213562 0 0.75 -0.335786438 0.75 -0.75v -36Z "/><path fill="#ffffff" fill-rule="nonzero" transform="translate(101.25 28.644)" d="M 0 0h 11.25v 36.375c 0 0.621320344 -0.503679656 1.125 -1.125 1.125h -9c -0.621320344 0 -1.125 -0.503679656 -1.125 -1.125Z "/><path fill="#000000" fill-rule="nonzero" transform="translate(101.25 28.644)" d="M 0 0m 0.375 0.375l -0.75 -0.75h 12v 36.75c 0 0.828427125 -0.671572875 1.5 -1.5 1.5h -9c -0.828427125 0 -1.5 -0.671572875 -1.5 -1.5v -36.75l 0.75 0.75v 36c 0 0.414213562 0.335786438 0.75 0.75 0.75h 9c 0.414213562 0 0.75 -0.335786438 0.75 -0.75v -36Z "/><path fill="#ffffff" fill-rule="nonzero" transform="translate(112.5 28.644)" d="M 0 0h 10.125c 0.621320344 0 1.125 0.503679656 1.125 1.125v 35.25c 0 0.621320344 -0.503679656 1.125 -1.125 1.125h -9c -0.621320344 0 -1.125 -0.503679656 -1.125 -1.125Z "/><path fill="#000000" fill-rule="nonzero" transform="translate(112.5 28.644)" d="M 0 0m 0.375 0.375l -0.75 -0.75h 10.5c 0.828427125 0 1.5 0.671572875 1.5 1.5v 35.25c 0 0.828427125 -0.671572875 1.5 -1.5 1.5h -9c -0.828427125 0 -1.5 -0.671572875 -1.5 -1.5v -36.75l 0.75 0.75v 36c 0 0.414213562 0.335786438 0.75 0.75 0.75h 9c 0.414213562 0 0.75 -0.335786438 0.75 -0.75v -35.25c 0 -0.414213562 -0.335786438 -0.75 -0.75 -0.75Z "/><path fill="#000000" fill-rule="nonzero" transform="translate(6 28.644)" d="M 0 0h 7.5v 24.375c 0 0.621320344 -0.503679656 1.125 -1.125 1.125h -5.25c -0.621320344 0 -1.125 -0.503679656 -1.125 -1.125Z "/><path fill="#000000" fill-rule="nonzero" transform="translate(6 28.644)" d="M 0 0m 0.375 0.375l -0.75 -0.75h 8.25v 24.75c 0 0.828427125 -0.671572875 1.5 -1.5 1.5h -5.25c -0.828427125 0 -1.5 -0.671572875 -1.5 -1.5v -24.75l 0.75 0.75v 24c 0 0.414213562 0.335786438 0.75 0.75 0.75h 5.25c 0.414213562 0 0.75 -0.335786438 0.75 -0.75v -24Z "/><path fill="#000000" fill-rule="nonzero" transform="translate(18.75 28.644)" d="M 0 0h 7.5v 24.375c 0 0.621320344 -0.503679656 1.125 -1.125 1.125h -5.25c -0.621320344 0 -1.125 -0.503679656 -1.125 -1.125Z "/><path fill="#000000" fill-rule="nonzero" transform="translate(18.75 28.644)" d="M 0 0m 0.375 0.375l -0.75 -0.75h 8.25v 24.75c 0 0.828427125 -0.671572875 1.5 -1.5 1.5h -5.25c -0.828427125 0 -1.5 -0.671572875 -1.5 -1.5v -24.75l 0.75 0.75v 24c 0 0.414213562 0.335786438 0.75 0.75 0.75h 5.25c 0.414213562 0 0.75 -0.335786438 0.75 -0.75v -24Z "/><path fill="#000000" fill-rule="nonzero" transform="translate(31.5 28.644)" d="M 0 0h 7.5v 24.375c 0 0.621320344 -0.503679656 1.125 -1.125 1.125h -5.25c -0.621320344 0 -1.125 -0.503679656 -1.125 -1.125Z "/><path fill="#000000" fill-rule="nonzero" transform="translate(31.5 28.644)" d="M 0 0m 0.375 0.375l -0.75 -0.75h 8.25v 24.75c 0 0.828427125 -0.671572875 1.5 -1.5 1.5h -5.25c -0.828427125 0 -1.5 -0.671572875 -1.5 -1.5v -24.75l 0.75 0.75v 24c 0 0.414213562 0.335786438 0.75 0.75 0.75h 5.25c 0.414213562 0 0.75 -0.335786438 0.75 -0.75v -24Z "/><path fill="#ffdc00" fill-rule="nonzero" transform="translate(51 28.644)" d="M 0 0h 7.5v 24.375c 0 0.621320344 -0.503679656 1.125 -1.125 1.125h -5.25c -0.621320344 0 -1.125 -0.503679656 -1.125 -1.125Z "/><path fill="#000000" fill-rule="nonzero" transform="translate(51 28.644)" d="M 0 0m 0.375 0.375l -0.75 -0.75h 8.25v 24.75c 0 0.828427125 -0.671572875 1.5 -1.5 1.5h -5.25c -0.828427125 0 -1.5 -0.671572875 -1.5 -1.5v -24.75l 0.75 0.75v 24c 0 0.414213562 0.335786438 0.75 0.75 0.75h 5.25c 0.414213562 0 0.75 -0.335786438 0.75 -0.75v -24Z "/><path fill="#000000" fill-rule="nonzero" transform="translate(65.25 28.644)" d="M 0 0h 7.5v 24.375c 0 0.621320344 -0.503679656 1.125 -1.125 1.125h -5.25c -0.621320344 0 -1.125 -0.503679656 -1.125 -1.125Z "/><path fill="#000000" fill-rule="nonzero" transform="translate(65.25 28.644)" d="M 0 0m 0.375 0.375l -0.75 -0.75h 8.25v 24.75c 0 0.828427125 -0.671572875 1.5 -1.5 1.5h -5.25c -0.828427125 0 -1.5 -0.671572875 -1.5 -1.5v -24.75l 0.75 0.75v 24c 0 0.414213562 0.335786438 0.75 0.75 0.75h 5.25c 0.414213562 0 0.75 -0.335786438 0.75 -0.75v -24Z "/><path fill="#000000" fill-rule="nonzero" transform="translate(84.75 28.644)" d="M 0 0h 7.5v 24.375c 0 0.621320344 -0.503679656 1.125 -1.125 1.125h -5.25c -0.621320344 0 -1.125 -0.503679656 -1.125 -1.125Z "/><path fill="#000000" fill-rule="nonzero" transform="translate(84.75 28.644)" d="M 0 0m 0.375 0.375l -0.75 -0.75h 8.25v 24.75c 0 0.828427125 -0.671572875 1.5 -1.5 1.5h -5.25c -0.828427125 0 -1.5 -0.671572875 -1.5 -1.5v -24.75l 0.75 0.75v 24c 0 0.414213562 0.335786438 0.75 0.75 0.75h 5.25c 0.414213562 0 0.75 -0.335786438 0.75 -0.75v -24Z "/><path fill="#ffdc00" fill-rule="nonzero" transform="translate(97.5 28.644)" d="M 0 0h 7.5v 24.375c 0 0.621320344 -0.503679656 1.125 -1.125 1.125h -5.25c -0.621320344 0 -1.125 -0.503679656 -1.125 -1.125Z "/><path fill="#000000" fill-rule="nonzero" transform="translate(97.5 28.644)" d="M 0 0m 0.375 0.375l -0.75 -0.75h 8.25v 24.75c 0 0.828427125 -0.671572875 1.5 -1.5 1.5h -5.25c -0.828427125 0 -1.5 -0.671572875 -1.5 -1.5v -24.75l 0.75 0.75v 24c 0 0.414213562 0.335786438 0.75 0.75 0.75h 5.25c 0.414213562 0 0.75 -0.335786438 0.75 -0.75v -24Z "/><path fill="#000000" fill-rule="nonzero" transform="translate(110.25 28.644)" d="M 0 0h 7.5v 24.375c 0 0.621320344 -0.503679656 1.125 -1.125 1.125h -5.25c -0.621320344 0 -1.125 -0.503679656 -1.125 -1.125Z "/><path fill="#000000" fill-rule="nonzero" transform="translate(110.25 28.644)" d="M 0 0m 0.375 0.375l -0.75 -0.75h 8.25v 24.75c 0 0.828427125 -0.671572875 1.5 -1.5 1.5h -5.25c -0.828427125 0 -1.5 -0.671572875 -1.5 -1.5v -24.75l 0.75 0.75v 24c 0 0.414213562 0.335786438 0.75 0.75 0.75h 5.25c 0.414213562 0 0.75 -0.335786438 0.75 -0.75v -24Z "/><path fill="#000000" fill-rule="nonzero" stroke="#000000" stroke-width="0.75" stroke-linecap="butt" stroke-linejoin="miter" stroke-miterlimit="4" transform="translate(0 28.344)" d="M 0 0c 0 -0.828427125 0.671572875 -1.5 1.5 -1.5h 120.75c 0.828427125 0 1.5 0.828427125 1.5 1.5v 1.8c 0 -0.828427125 -0.828427125 -1.5 -1.5 -1.5h -120.75c -0.828427125 0 -1.5 0.828427125 -1.5 1.5v -1.8c 0 0 0 0.828427125 0 0Z "/><path fill="#000000" fill-rule="nonzero" transform="translate(81.825 57.594)" d="M 0 0m 0 2.55c 0 -1.4070492 1.1429508 -2.55 2.55 -2.55c 1.4070492 0 2.55 1.1429508 2.55 2.55c 0 1.4070492 -1.1429508 2.55 -2.55 2.55c -1.4070492 0 -2.55 -1.1429508 -2.55 -2.55"/><path fill="#000000" fill-rule="nonzero" transform="translate(52.2 46.344)" d="M 0 0m 0 2.55c 0 -1.4070492 1.1429508 -2.55 2.55 -2.55c 1.4070492 0 2.55 1.1429508 2.55 2.55c 0 1.4070492 -1.1429508 2.55 -2.55 2.55c -1.4070492 0 -2.55 -1.1429508 -2.55 -2.55"/><path fill="#000000" fill-rule="nonzero" transform="translate(98.7 46.344)" d="M 0 0m 0 2.55c 0 -1.4070492 1.1429508 -2.55 2.55 -2.55c 1.4070492 0 2.55 1.1429508 2.55 2.55c 0 1.4070492 -1.1429508 2.55 -2.55 2.55c -1.4070492 0 -2.55 -1.1429508 -2.55 -2.55"/><g transform="matrix(1 0 0 -1 82.1925 74.766)"><use xlink:href="#g7864D1617FA3151403FF7A71D5443C9A" x="0" y="0" fill="#000000" fill-rule="nonzero"/></g><g transform="matrix(1 0 0 -1 49.7505 24.294)"><use xlink:href="#gC375F277B20C2526627B56EF0039913" x="0" y="0" fill="#000000" fill-rule="nonzero"/><use xlink:href="#g68BFE74938DD233F6CD5D0BDE452605" x="5.814" y="0" fill="#000000" fill-rule="nonzero"/></g><g transform="matrix(1 0 0 -1 96.075 24.294)"><use xlink:href="#gADDFE345BACEA6BD599FB31121BB3B4" x="0" y="0" fill="#000000" fill-rule="nonzero"/><use xlink:href="#g68BFE74938DD233F6CD5D0BDE452605" x="6.165" y="0" fill="#000000" fill-rule="nonzero"/></g><g transform="translate(51.876)"><path fill="#00000000" fill-rule="nonzero" transform="translate(-3 -3)" d="M 0 0m 0 3c 0 -1.656854249 1.343145751 -3 3 -3h 19.998c 1.656854249 0 3 1.343145751 3 3v 11.844c 0 1.656854249 -1.343145751 3 -3 3h -19.998c -1.656854249 0 -3 -1.343145751 -3 -3Z "/><g transform="matrix(1 0 0 -1 0 11.844)"><use xlink:href="#gAD8B90B2BBF31C235045B25A5E6C8FB0" x="0" y="0" fill="#000000" fill-rule="nonzero"/><use xlink:href="#g58E9A3678C9B85652D491C5628F659F7" x="11.628" y="0" fill="#000000" fill-rule="nonzero"/></g></g></g><g transform="matrix(1 0 0 -1 282.25 84.766)"/><g transform="translate(307 10)"><path fill="#ffffff" fill-rule="nonzero" transform="translate(0 10.422)" d="M 0 0m 0 1.125c 0 -0.621320344 0.503679656 -1.125 1.125 -1.125h 10.125v 36.375c 0 0.621320344 -0.503679656 1.125 -1.125 1.125h -9c -0.621320344 0 -1.125 -0.503679656 -1.125 -1.125Z "/><path fill="#000000" fill-rule="nonzero" transform="translate(0 10.422)" d="M 0 0m 1.125 0.375v -0.75h 10.5v 36.75c 0 0.828427125 -0.671572875 1.5 -1.5 1.5h -9c -0.828427125 0 -1.5 -0.671572875 -1.5 -1.5v -35.25c 0 -0.828427125 0.671572875 -1.5 1.5 -1.5v 0.75c -0.414213562 0 -0.75 0.335786438 -0.75 0.75v 35.25c 0 0.414213562 0.335786438 0.75 0.75 0.75h 9c 0.414213562 0 0.75 -0.335786438 0.75 -0.75v -36Z "/><path fill="#ffffff" fill-rule="nonzero" transform="translate(11.25 10.422)" d="M 0 0h 11.25v 36.375c 0 0.621320344 -0.503679656 1.125 -1.125 1.125h -9c -0.621320344 0 -1.125 -0.503679656 -1.125 -1.125Z "/><path fill="#000000" fill-rule="nonzero" transform="translate(11.25 10.422)" d="M 0 0m 0.375 0.375l -0.75 -0.75h 12v 36.75c 0 0.828427125 -0.671572875 1.5 -1.5 1.5h -9c -0.828427125 0 -1.5 -0.671572875 -1.5 -1.5v -36.75l 0.75 0.75v 36c 0 0.414213562 0.335786438 0.75 0.75 0.75h 9c 0.414213562 0 0.75 -0.335786438 0.75 -0.75v -36Z "/><path fill="#ffffff" fill-rule="nonzero" transform="translate(22.5 10.422)" d="M 0 0h 11.25v 36.375c 0 0.621320344 -0.503679656 1.125 -1.125 1.125h -9c -0.621320344 0 -1.125 -0.503679656 -1.125 -1.125Z "/><path fill="#000000" fill-rule="nonzero" transform="translate(22.5 10.422)" d="M 0 0m 0.375 0.375l -0.75 -0.75h 12v 36.75c 0 0.828427125 -0.671572875 1.5 -1.5 1.5h -9c -0.828427125 0 -1.5 -0.671572875 -1.5 -1.5v -36.75l 0.75 0.75v 36c 0 0.414213562 0.335786438 0.75 0.75 0.75h 9c 0.414213562 0 0.75 -0.335786438 0.75 -0.75v -36Z "/><path fill="#ffffff" fill-rule="nonzero" transform="translate(33.75 10.422)" d="M 0 0h 11.25v 36.375c 0 0.621320344 -0.503679656 1.125 -1.125 1.125h -9c -0.621320344 0 -1.125 -0.503679656 -1.125 -1.125Z "/><path fill="#000000" fill-rule="nonzero" transform="translate(33.75 10.422)" d="M 0 0m 0.375 0.375l -0.75 -0.75h 12v 36.75c 0 0.828427125 -0.671572875 1.5 -1.5 1.5h -9c -0.828427125 0 -1.5 -0.671572875 -1.5 -1.5v -36.75l 0.75 0.75v 36c 0 0.414213562 0.335786438 0.75 0.75 0.75h 9c 0.414213562 0 0.75 -0.335786438 0.75 -0.75v -36Z "/><path fill="#ffffff" fill-rule="nonzero" transform="translate(45 10.422)" d="M 0 0h 11.25v 36.375c 0 0.621320344 -0.503679656 1.125 -1.125 1.125h -9c -0.621320344 0 -1.125 -0.503679656 -1.125 -1.125Z "/><path fill="#000000" fill-rule="nonzero" transform="translate(45 10.422)" d="M 0 0m 0.375 0.375l -0.75 -0.75h 12v 36.75c 0 0.828427125 -0.671572875 1.5 -1.5 1.5h -9c -0.828427125 0 -1.5 -0.671572875 -1.5 -1.5v -36.75l 0.75 0.75v 36c 0 0.414213562 0.335786438 0.75 0.75 0.75h 9c 0.414213562 0 0.75 -0.335786438 0.75 -0.75v -36Z "/><path fill="#ffffff" fill-rule="nonzero" transform="translate(56.25 10.422)" d="M 0 0h 11.25v 36.375c 0 0.621320344 -0.503679656 1.125 -1.125 1.125h -9c -0.621320344 0 -1.125 -0.503679656 -1.125 -1.125Z "/><path fill="#000000" fill-rule="nonzero" transform="translate(56.25 10.422)" d="M 0 0m 0.375 0.375l -0.75 -0.75h 12v 36.75c 0 0.828427125 -0.671572875 1.5 -1.5 1.5h -9c -0.828427125 0 -1.5 -0.671572875 -1.5 -1.5v -36.75l 0.75 0.75v 36c 0 0.414213562 0.335786438 0.75 0.75 0.75h 9c 0.414213562 0 0.75 -0.335786438 0.75 -0.75v -36Z "/><path fill="#ffffff" fill-rule="nonzero" transform="translate(67.5 10.422)" d="M 0 0h 11.25v 36.375c 0 0.621320344 -0.503679656 1.125 -1.125 1.125h -9c -0.621320344 0 -1.125 -0.503679656 -1.125 -1.125Z "/><path fill="#000000" fill-rule="nonzero" transform="translate(67.5 10.422)" d="M 0 0m 0.375 0.375l -0.75 -0.75h 12v 36.75c 0 0.828427125 -0.671572875 1.5 -1.5 1.5h -9c -0.828427125 0 -1.5 -0.671572875 -1.5 -1.5v -36.75l 0.75 0.75v 36c 0 0.414213562 0.335786438 0.75 0.75 0.75h 9c 0.414213562 0 0.75 -0.335786438 0.75 -0.75v -36Z "/><path fill="#ff4136" fill-rule="nonzero" transform="translate(78.75 10.422)" d="M 0 0h 11.25v 36.375c 0 0.621320344 -0.503679656 1.125 -1.125 1.125h -9c -0.621320344 0 -1.125 -0.503679656 -1.125 -1.125Z "/><path fill="#000000" fill-rule="nonzero" transform="translate(78.75 10.422)" d="M 0 0m 0.375 0.375l -0.75 -0.75h 12v 36.75c 0 0.828427125 -0.671572875 1.5 -1.5 1.5h -9c -0.828427125 0 -1.5 -0.671572875 -1.5 -1.5v -36.75l 0.75 0.75v 36c 0 0.414213562 0.335786438 0.75 0.75 0.75h 9c 0.414213562 0 0.75 -0.335786438 0.75 -0.75v -36Z "/><path fill="#ffffff" fill-rule="nonzero" transform="translate(90 10.422)" d="M 0 0h 11.25v 36.375c 0 0.621320344 -0.503679656 1.125 -1.125 1.125h -9c -0.621320344 0 -1.125 -0.503679656 -1.125 -1.125Z "/><path fill="#000000" fill-rule="nonzero" transform="translate(90 10.422)" d="M 0 0m 0.375 0.375l -0.75 -0.75h 12v 36.75c 0 0.828427125 -0.671572875 1.5 -1.5 1.5h -9c -0.828427125 0 -1.5 -0.671572875 -1.5 -1.5v -36.75l 0.75 0.75v 36c 0 0.414213562 0.335786438 0.75 0.75 0.75h 9c 0.414213562 0 0.75 -0.335786438 0.75 -0.75v -36Z "/><path fill="#ffffff" fill-rule="nonzero" transform="translate(101.25 10.422)" d="M 0 0h 11.25v 36.375c 0 0.621320344 -0.503679656 1.125 -1.125 1.125h -9c -0.621320344 0 -1.125 -0.503679656 -1.125 -1.125Z "/><path fill="#000000" fill-rule="nonzero" transform="translate(101.25 10.422)" d="M 0 0m 0.375 0.375l -0.75 -0.75h 12v 36.75c 0 0.828427125 -0.671572875 1.5 -1.5 1.5h -9c -0.828427125 0 -1.5 -0.671572875 -1.5 -1.5v -36.75l 0.75 0.75v 36c 0 0.414213562 0.335786438 0.75 0.75 0.75h 9c 0.414213562 0 0.75 -0.335786438 0.75 -0.75v -36Z "/><path fill="#ffffff" fill-rule="nonzero" transform="translate(112.5 10.422)" d="M 0 0h 10.125c 0.621320344 0 1.125 0.503679656 1.125 1.125v 35.25c 0 0.621320344 -0.503679656 1.125 -1.125 1.125h -9c -0.621320344 0 -1.125 -0.503679656 -1.125 -1.125Z "/><path fill="#000000" fill-rule="nonzero" transform="translate(112.5 10.422)" d="M 0 0m 0.375 0.375l -0.75 -0.75h 10.5c 0.828427125 0 1.5 0.671572875 1.5 1.5v 35.25c 0 0.828427125 -0.671572875 1.5 -1.5 1.5h -9c -0.828427125 0 -1.5 -0.671572875 -1.5 -1.5v -36.75l 0.75 0.75v 36c 0 0.414213562 0.335786438 0.75 0.75 0.75h 9c 0.414213562 0 0.75 -0.335786438 0.75 -0.75v -35.25c 0 -0.414213562 -0.335786438 -0.75 -0.75 -0.75Z "/><path fill="#000000" fill-rule="nonzero" transform="translate(6 10.422)" d="M 0 0h 7.5v 24.375c 0 0.621320344 -0.503679656 1.125 -1.125 1.125h -5.25c -0.621320344 0 -1.125 -0.503679656 -1.125 -1.125Z "/><path fill="#000000" fill-rule="nonzero" transform="translate(6 10.422)" d="M 0 0m 0.375 0.375l -0.75 -0.75h 8.25v 24.75c 0 0.828427125 -0.671572875 1.5 -1.5 1.5h -5.25c -0.828427125 0 -1.5 -0.671572875 -1.5 -1.5v -24.75l 0.75 0.75v 24c 0 0.414213562 0.335786438 0.75 0.75 0.75h 5.25c 0.414213562 0 0.75 -0.335786438 0.75 -0.75v -24Z "/><path fill="#000000" fill-rule="nonzero" transform="translate(18.75 10.422)" d="M 0 0h 7.5v 24.375c 0 0.621320344 -0.503679656 1.125 -1.125 1.125h -5.25c -0.621320344 0 -1.125 -0.503679656 -1.125 -1.125Z "/><path fill="#000000" fill-rule="nonzero" transform="translate(18.75 10.422)" d="M 0 0m 0.375 0.375l -0.75 -0.75h 8.25v 24.75c 0 0.828427125 -0.671572875 1.5 -1.5 1.5h -5.25c -0.828427125 0 -1.5 -0.671572875 -1.5 -1.5v -24.75l 0.75 0.75v 24c 0 0.414213562 0.335786438 0.75 0.75 0.75h 5.25c 0.414213562 0 0.75 -0.335786438 0.75 -0.75v -24Z "/><path fill="#000000" fill-rule="nonzero" transform="translate(31.5 10.422)" d="M 0 0h 7.5v 24.375c 0 0.621320344 -0.503679656 1.125 -1.125 1.125h -5.25c -0.621320344 0 -1.125 -0.503679656 -1.125 -1.125Z "/><path fill="#000000" fill-rule="nonzero" transform="translate(31.5 10.422)" d="M 0 0m 0.375 0.375l -0.75 -0.75h 8.25v 24.75c 0 0.828427125 -0.671572875 1.5 -1.5 1.5h -5.25c -0.828427125 0 -1.5 -0.671572875 -1.5 -1.5v -24.75l 0.75 0.75v 24c 0 0.414213562 0.335786438 0.75 0.75 0.75h 5.25c 0.414213562 0 0.75 -0.335786438 0.75 -0.75v -24Z "/><path fill="#ff4136" fill-rule="nonzero" transform="translate(51 10.422)" d="M 0 0h 7.5v 24.375c 0 0.621320344 -0.503679656 1.125 -1.125 1.125h -5.25c -0.621320344 0 -1.125 -0.503679656 -1.125 -1.125Z "/><path fill="#000000" fill-rule="nonzero" transform="translate(51 10.422)" d="M 0 0m 0.375 0.375l -0.75 -0.75h 8.25v 24.75c 0 0.828427125 -0.671572875 1.5 -1.5 1.5h -5.25c -0.828427125 0 -1.5 -0.671572875 -1.5 -1.5v -24.75l 0.75 0.75v 24c 0 0.414213562 0.335786438 0.75 0.75 0.75h 5.25c 0.414213562 0 0.75 -0.335786438 0.75 -0.75v -24Z "/><path fill="#000000" fill-rule="nonzero" transform="translate(65.25 10.422)" d="M 0 0h 7.5v 24.375c 0 0.621320344 -0.503679656 1.125 -1.125 1.125h -5.25c -0.621320344 0 -1.125 -0.503679656 -1.125 -1.125Z "/><path fill="#000000" fill-rule="nonzero" transform="translate(65.25 10.422)" d="M 0 0m 0.375 0.375l -0.75 -0.75h 8.25v 24.75c 0 0.828427125 -0.671572875 1.5 -1.5 1.5h -5.25c -0.828427125 0 -1.5 -0.671572875 -1.5 -1.5v -24.75l 0.75 0.75v 24c 0 0.414213562 0.335786438 0.75 0.75 0.75h 5.25c 0.414213562 0 0.75 -0.335786438 0.75 -0.75v -24Z "/><path fill="#000000" fill-rule="nonzero" transform="translate(84.75 10.422)" d="M 0 0h 7.5v 24.375c 0 0.621320344 -0.503679656 1.125 -1.125 1.125h -5.25c -0.621320344 0 -1.125 -0.503679656 -1.125 -1.125Z "/><path fill="#000000" fill-rule="nonzero" transform="translate(84.75 10.422)" d="M 0 0m 0.375 0.375l -0.75 -0.75h 8.25v 24.75c 0 0.828427125 -0.671572875 1.5 -1.5 1.5h -5.25c -0.828427125 0 -1.5 -0.671572875 -1.5 -1.5v -24.75l 0.75 0.75v 24c 0 0.414213562 0.335786438 0.75 0.75 0.75h 5.25c 0.414213562 0 0.75 -0.335786438 0.75 -0.75v -24Z "/><path fill="#ff4136" fill-rule="nonzero" transform="translate(97.5 10.422)" d="M 0 0h 7.5v 24.375c 0 0.621320344 -0.503679656 1.125 -1.125 1.125h -5.25c -0.621320344 0 -1.125 -0.503679656 -1.125 -1.125Z "/><path fill="#000000" fill-rule="nonzero" transform="translate(97.5 10.422)" d="M 0 0m 0.375 0.375l -0.75 -0.75h 8.25v 24.75c 0 0.828427125 -0.671572875 1.5 -1.5 1.5h -5.25c -0.828427125 0 -1.5 -0.671572875 -1.5 -1.5v -24.75l 0.75 0.75v 24c 0 0.414213562 0.335786438 0.75 0.75 0.75h 5.25c 0.414213562 0 0.75 -0.335786438 0.75 -0.75v -24Z "/><path fill="#000000" fill-rule="nonzero" transform="translate(110.25 10.422)" d="M 0 0h 7.5v 24.375c 0 0.621320344 -0.503679656 1.125 -1.125 1.125h -5.25c -0.621320344 0 -1.125 -0.503679656 -1.125 -1.125Z "/><path fill="#000000" fill-rule="nonzero" transform="translate(110.25 10.422)" d="M 0 0m 0.375 0.375l -0.75 -0.75h 8.25v 24.75c 0 0.828427125 -0.671572875 1.5 -1.5 1.5h -5.25c -0.828427125 0 -1.5 -0.671572875 -1.5 -1.5v -24.75l 0.75 0.75v 24c 0 0.414213562 0.335786438 0.75 0.75 0.75h 5.25c 0.414213562 0 0.75 -0.335786438 0.75 -0.75v -24Z "/><path fill="#000000" fill-rule="nonzero" stroke="#000000" stroke-width="0.75" stroke-linecap="butt" stroke-linejoin="miter" stroke-miterlimit="4" transform="translate(0 10.122)" d="M 0 0c 0 -0.828427125 0.671572875 -1.5 1.5 -1.5h 120.75c 0.828427125 0 1.5 0.828427125 1.5 1.5v 1.8c 0 -0.828427125 -0.828427125 -1.5 -1.5 -1.5h -120.75c -0.828427125 0 -1.5 0.828427125 -1.5 1.5v -1.8c 0 0 0 0.828427125 0 0Z "/><path fill="#000000" fill-rule="nonzero" transform="translate(81.825 39.372)" d="M 0 0m 0 2.55c 0 -1.4070492 1.1429508 -2.55 2.55 -2.55c 1.4070492 0 2.55 1.1429508 2.55 2.55c 0 1.4070492 -1.1429508 2.55 -2.55 2.55c -1.4070492 0 -2.55 -1.1429508 -2.55 -2.55"/><path fill="#000000" fill-rule="nonzero" transform="translate(52.2 28.122)" d="M 0 0m 0 2.55c 0 -1.4070492 1.1429508 -2.55 2.55 -2.55c 1.4070492 0 2.55 1.1429508 2.55 2.55c 0 1.4070492 -1.1429508 2.55 -2.55 2.55c -1.4070492 0 -2.55 -1.1429508 -2.55 -2.55"/><path fill="#000000" fill-rule="nonzero" transform="translate(98.7 28.122)" d="M 0 0m 0 2.55c 0 -1.4070492 1.1429508 -2.55 2.55 -2.55c 1.4070492 0 2.55 1.1429508 2.55 2.55c 0 1.4070492 -1.1429508 2.55 -2.55 2.55c -1.4070492 0 -2.55 -1.1429508 -2.55 -2.55"/><g transform="matrix(1 0 0 -1 82.1925 56.544)"><use xlink:href="#g7864D1617FA3151403FF7A71D5443C9A" x="0" y="0" fill="#000000" fill-rule="nonzero"/></g><g transform="matrix(1 0 0 -1 49.7505 6.072)"><use xlink:href="#gC375F277B20C2526627B56EF0039913" x="0" y="0" fill="#000000" fill-rule="nonzero"/><use xlink:href="#g68BFE74938DD233F6CD5D0BDE452605" x="5.814" y="0" fill="#000000" fill-rule="nonzero"/></g><g transform="matrix(1 0 0 -1 96.075 6.072)"><use xlink:href="#gADDFE345BACEA6BD599FB31121BB3B4" x="0" y="0" fill="#000000" fill-rule="nonzero"/><use xlink:href="#g68BFE74938DD233F6CD5D0BDE452605" x="6.165" y="0" fill="#000000" fill-rule="nonzero"/></g><g transform="translate(51.876 62.922)"><path fill="#dddddd" fill-rule="nonzero" transform="translate(-3 -3)" d="M 0 0m 0 3c 0 -1.656854249 1.343145751 -3 3 -3h 19.998c 1.656854249 0 3 1.343145751 3 3v 11.844c 0 1.656854249 -1.343145751 3 -3 3h -19.998c -1.656854249 0 -3 -1.343145751 -3 -3Z "/><g transform="matrix(1 0 0 -1 0 11.844)"><use xlink:href="#gAD8B90B2BBF31C235045B25A5E6C8FB0" x="0" y="0" fill="#000000" fill-rule="nonzero"/><use xlink:href="#g58E9A3678C9B85652D491C5628F659F7" x="11.628" y="0" fill="#000000" fill-rule="nonzero"/></g></g></g><defs><symbol id="g7864D1617FA3151403FF7A71D5443C9A" overflow="visible"><path d="M 0 0m 2.547 2.907c 0.765 0 0.792 -0.207 0.819 -0.612c 0.054 -0.054 0.243 -0.054 0.297 0c -0.009 0.225 -0.018 0.486 -0.018 0.792c 0 0.306 0.009 0.54 0.018 0.774c -0.054 0.054 -0.243 0.054 -0.297 0c -0.027 -0.495 -0.054 -0.612 -0.819 -0.612h -0.837v 1.62c 0 0.486 0.108 0.576 0.504 0.576h 0.405c 0.954 0 1.179 -0.36 1.377 -0.981c 0.108 0 0.207 0.018 0.279 0.045c -0.045 0.369 -0.18 1.233 -0.198 1.305c 0 0.018 -0.009 0.027 -0.036 0.027c -0.153 -0.027 -0.198 -0.036 -0.423 -0.036h -2.295c -0.288 0 -0.801 0.009 -1.161 0.018c -0.054 -0.054 -0.054 -0.243 0 -0.297c 0.63 -0.027 0.783 -0.072 0.783 -0.819v -3.609c 0 -0.747 -0.153 -0.792 -0.783 -0.819c -0.054 -0.054 -0.054 -0.243 0 -0.297c 0.315 0.009 0.765 0.018 1.17 0.018c 0.405 0 0.846 -0.009 1.161 -0.018c 0.054 0.054 0.054 0.243 0 0.297c -0.63 0.027 -0.783 0.072 -0.783 0.819v 1.809Z "/></symbol><symbol id="gC375F277B20C2526627B56EF0039913" overflow="visible"><path d="M 0 0m 3.213 -0.09c 0.873 0 1.674 0.414 2.286 1.215c -0.045 0.081 -0.108 0.135 -0.207 0.135c -0.639 -0.702 -1.251 -0.981 -2.088 -0.981c -1.215 0 -2.052 1.368 -2.052 2.682c 0 0.774 0.207 1.422 0.531 1.827c 0.45 0.549 0.972 0.801 1.44 0.801c 1.242 0 1.737 -0.738 1.971 -1.512c 0.108 -0.036 0.198 -0.009 0.297 0.045c -0.045 0.468 -0.108 0.9 -0.198 1.395c -0.459 0.045 -0.864 0.405 -1.971 0.405c -0.765 0 -1.404 -0.279 -1.935 -0.765c -0.594 -0.549 -0.954 -1.431 -0.954 -2.367c 0 -1.566 0.945 -2.88 2.88 -2.88Z "/></symbol><symbol id="g68BFE74938DD233F6CD5D0BDE452605" overflow="visible"><path d="M 0 0m 3.015 3.24h 0.855l 0.072 0.477h -0.864l 0.261 1.611h -0.342l -0.252 -1.611h -1.026l 0.27 1.611h -0.342l -0.261 -1.611h -0.837l -0.072 -0.477h 0.837l -0.162 -1.035h -0.846l -0.072 -0.477h 0.837l -0.252 -1.602h 0.333l 0.261 1.602h 1.008l -0.243 -1.602h 0.342l 0.27 1.602h 0.846l 0.063 0.477h -0.855Z m -0.504 -1.035h -1.026l 0.171 1.035h 1.017Z "/></symbol><symbol id="gADDFE345BACEA6BD599FB31121BB3B4" overflow="visible"><path d="M 0 0m 3.393 5.922c -1.503 0 -3.06 -1.179 -3.06 -3.159c 0 -1.62 1.116 -2.853 2.835 -2.853c 1.062 0 1.899 0.225 2.511 0.747c -0.099 0.081 -0.144 0.153 -0.144 0.252v 1.044c 0 0.315 0.153 0.405 0.414 0.432c 0.054 0.054 0.054 0.27 0 0.324c -0.216 -0.009 -0.441 -0.018 -0.801 -0.018c -0.297 0 -0.72 0.009 -1.116 0.018c -0.054 -0.054 -0.054 -0.27 0 -0.324c 0.495 -0.036 0.738 -0.072 0.738 -0.432v -1.377c -0.306 -0.288 -0.909 -0.342 -1.395 -0.342c -1.422 0 -2.178 1.521 -2.178 2.709c 0 1.575 1.026 2.655 2.07 2.655c 1.305 0 1.674 -0.747 1.908 -1.521c 0.099 -0.009 0.198 0.009 0.297 0.054c -0.018 0.378 -0.063 0.738 -0.207 1.386c -0.54 0.09 -0.873 0.405 -1.872 0.405Z "/></symbol><symbol id="gAD8B90B2BBF31C235045B25A5E6C8FB0" overflow="visible"><path d="M 0 0m 6.426 -0.18c 1.746 0 3.348 0.828 4.572 2.43c -0.09 0.162 -0.216 0.27 -0.414 0.27c -1.278 -1.404 -2.502 -1.962 -4.176 -1.962c -2.43 0 -4.104 2.736 -4.104 5.364c 0 1.548 0.414 2.844 1.062 3.654c 0.9 1.098 1.944 1.602 2.88 1.602c 2.484 0 3.474 -1.476 3.942 -3.024c 0.216 -0.072 0.396 -0.018 0.594 0.09c -0.09 0.936 -0.216 1.8 -0.396 2.79c -0.918 0.09 -1.728 0.81 -3.942 0.81c -1.53 0 -2.808 -0.558 -3.87 -1.53c -1.188 -1.098 -1.908 -2.862 -1.908 -4.734c 0 -3.132 1.89 -5.76 5.76 -5.76Z "/></symbol><symbol id="g58E9A3678C9B85652D491C5628F659F7" overflow="visible"><path d="M 0 0m 6.03 6.48h 1.71l 0.144 0.954h -1.728l 0.522 3.222h -0.684l -0.504 -3.222h -2.052l 0.54 3.222h -0.684l -0.522 -3.222h -1.674l -0.144 -0.954h 1.674l -0.324 -2.07h -1.692l -0.144 -0.954h 1.674l -0.504 -3.204h 0.666l 0.522 3.204h 2.016l -0.486 -3.204h 0.684l 0.54 3.204h 1.692l 0.126 0.954h -1.71Z m -1.008 -2.07h -2.052l 0.342 2.07h 2.034Z "/></symbol></defs></svg>