<svg viewBox="0 0 440.75 94.766" width="440.75pt" height="94.766pt" xmlns="http://www.w3.org/2000/svg" xmlns:xlink="http://www.w3.org/1999/xlink" xmlns:h5="http://www.w3.org/1999/xhtml"><path fill="#ffffff" fill-rule="nonzero" d="M 0 0v 94.766h 440.75v -94.766Z "/><path fill="#ffffff" fill-rule="nonzero" d="M 0 0m 0 3c 0 -1.656854249 1.343145751 -3 3 -3h 434.75c 1.656854249 0 3 1.343145751 3 3v 88.766c 0 1.656854249 -1.343145751 3 -3 3h -434.75c -1.656854249 0 -3 -1.343145751 -3 -3Z "/><g transform="translate(10 10)"><path fill="#ffffff" fill-rule="nonzero" stroke="#000000" stroke-width="0.75" stroke-linecap="butt" stroke-linejoin="miter" stroke-miterlimit="4" transform="translate(0 10.422)" d="M 0 0v 37.5h 11.25v -37.5Z "/><path fill="#ffffff" fill-rule="nonzero" stroke="#000000" stroke-width="0.75" stroke-linecap="butt" stroke-linejoin="miter" stroke-miterlimit="4" transform="translate(11.25 10.422)" d="M 0 0v 37.5h 11.25v -37.5Z "/><path fill="#ffffff" fill-rule="nonzero" stroke="#000000" stroke-width="0.75" stroke-linecap="butt" stroke-linejoin="miter" stroke-miterlimit="4" transform="translate(22.5 10.422)" d="M 0 0v 37.5h 11.25v -37.5Z "/><path fill="#0074d9" fill-rule="nonzero" stroke="#000000" stroke-width="0.75" stroke-linecap="butt" stroke-linejoin="miter" stroke-miterlimit="4" transform="translate(33.75 10.422)" d="M 0 0v 37.5h 11.25v -37.5Z "/><path fill="#ffffff" fill-rule="nonzero" stroke="#000000" stroke-width="0.75" stroke-linecap="butt" stroke-linejoin="miter" stroke-miterlimit="4" transform="translate(45 10.422)" d="M 0 0v 37.5h 11.25v -37.5Z "/><path fill="#ffffff" fill-rule="nonzero" stroke="#000000" stroke-width="0.75" stroke-linecap="butt" stroke-linejoin="miter" stroke-miterlimit="4" transform="translate(56.25 10.422)" d="M 0 0v 37.5h 11.25v -37.5Z "/><path fill="#ffffff" fill-rule="nonzero" stroke="#000000" stroke-width="0.75" stroke-linecap="butt" stroke-linejoin="miter" stroke-miterlimit="4" transform="translate(67.5 10.422)" d="M 0 0v 37.5h 11.25v -37.5Z "/><path fill="#ffffff" fill-rule="nonzero" stroke="#000000" stroke-width="0.75" stroke-linecap="butt" stroke-linejoin="miter" stroke-miterlimit="4" transform="translate(78.75 10.422)" d="M 0 0v 37.5h 11.25v -37.5Z "/><path fill="#ffffff" fill-rule="nonzero" stroke="#000000" stroke-width="0.75" stroke-linecap="butt" stroke-linejoin="miter" stroke-miterlimit="4" transform="translate(90 10.422)" d="M 0 0v 37.5h 11.25v -37.5Z "/><path fill="#ffffff" fill-rule="nonzero" stroke="#000000" stroke-width="0.75" stroke-linecap="butt" stroke-linejoin="miter" stroke-miterlimit="4" transform="translate(101.25 10.422)" d="M 0 0v 37.5h 11.25v -37.5Z "/><path fill="#ffffff" fill-rule="nonzero" stroke="#000000" stroke-width="0.75" stroke-linecap="butt" stroke-linejoin="miter" stroke-miterlimit="4" transform="translate(112.5 10.422)" d="M 0 0v 37.5h 11.25v -37.5Z "/><path fill="#000000" fill-rule="nonzero" stroke="#000000" stroke-width="0.75" stroke-linecap="butt" stroke-linejoin="miter" stroke-miterlimit="4" transform="translate(6 10.422)" d="M 0 0v 25.5h 7.5v -25.5Z "/><path fill="#000000" fill-rule="nonzero" stroke="#000000" stroke-width="0.75" stroke-linecap="butt" stroke-linejoin="miter" stroke-miterlimit="4" transform="translate(18.75 10.422)" d="M 0 0v 25.5h 7.5v -25.5Z "/><path fill="#000000" fill-rule="nonzero" stroke="#000000" stroke-width="0.75" stroke-linecap="butt" stroke-linejoin="miter" stroke-miterlimit="4" transform="translate(31.5 10.422)" d="M 0 0v 25.5h 7.5v -25.5Z "/><path fill="#000000" fill-rule="nonzero" stroke="#000000" stroke-width="0.75" stroke-linecap="butt" stroke-linejoin="miter" stroke-miterlimit="4" transform="translate(51 10.422)" d="M 0 0v 25.5h 7.5v -25.5Z "/><path fill="#0074d9" fill-rule="nonzero" stroke="#000000" stroke-width="0.75" stroke-linecap="butt" stroke-linejoin="miter" stroke-miterlimit="4" transform="translate(65.25 10.422)" d="M 0 0v 25.5h 7.5v -25.5Z "/><path fill="#0074d9" fill-rule="nonzero" stroke="#000000" stroke-width="0.75" stroke-linecap="butt" stroke-linejoin="miter" stroke-miterlimit="4" transform="translate(84.75 10.422)" d="M 0 0v 25.5h 7.5v -25.5Z "/><path fill="#000000" fill-rule="nonzero" stroke="#000000" stroke-width="0.75" stroke-linecap="butt" stroke-linejoin="miter" stroke-miterlimit="4" transform="translate(97.5 10.422)" d="M 0 0v 25.5h 7.5v -25.5Z "/><path fill="#000000" fill-rule="nonzero" stroke="#000000" stroke-width="0.75" stroke-linecap="butt" stroke-linejoin="miter" stroke-miterlimit="4" transform="translate(110.25 10.422)" d="M 0 0v 25.5h 7.5v -25.5Z "/><path fill="#000000" fill-rule="nonzero" stroke="#000000" stroke-width="0.75" stroke-linecap="butt" stroke-linejoin="miter" stroke-miterlimit="4" transform="translate(0 8.622)" d="M 0 0v 1.8h 123.75v -1.8Z "/><path fill="#000000" fill-rule="nonzero" transform="translate(36.825 39.372)" d="M 0 0m 0 2.55c 0 -1.4070492 1.1429508 -2.55 2.55 -2.55c 1.4070492 0 2.55 1.1429508 2.55 2.55c 0 1.4070492 -1.1429508 2.55 -2.55 2.55c -1.4070492 0 -2.55 -1.1429508 -2.55 -2.55"/><path fill="#000000" fill-rule="nonzero" transform="translate(66.45 28.122)" d="M 0 0m 0 2.55c 0 -1.4070492 1.1429508 -2.55 2.55 -2.55c 1.4070492 0 2.55 1.1429508 2.55 2.55c 0 1.4070492 -1.1429508 2.55 -2.55 2.55c -1.4070492 0 -2.55 -1.1429508 -2.55 -2.55"/><path fill="#000000" fill-rule="nonzero" transform="translate(85.95 28.122)" d="M 0 0m 0 2.55c 0 -1.4070492 1.1429508 -2.55 2.55 -2.55c 1.4070492 0 2.55 1.1429508 2.55 2.55c 0 1.4070492 -1.1429508 2.55 -2.55 2.55c -1.4070492 0 -2.55 -1.1429508 -2.55 -2.55"/><g transform="matrix(1 0 0 -1 36.729 56.544)"><use xlink:href="#gB4F0D25B5DE46FE4884AAF0D69A4CE76" x="0" y="0" fill="#000000" fill-rule="nonzero"/></g><g transform="matrix(1 0 0 -1 63.753 6.072)"><use xlink:href="#g7384146F98C9D7CC0EAFFF5932A03CB9" x="0" y="0" fill="#000000" fill-rule="nonzero"/><use xlink:href="#g68BFE74938DD233F6CD5D0BDE452605" x="6.309" y="0" fill="#000000" fill-rule="nonzero"/></g><g transform="matrix(1 0 0 -1 84.225 6.072)"><use xlink:href="#g7864D1617FA3151403FF7A71D5443C9A" x="0" y="0" fill="#000000" fill-rule="nonzero"/><use xlink:href="#g68BFE74938DD233F6CD5D0BDE452605" x="4.365" y="0" fill="#000000" fill-rule="nonzero"/></g><g transform="translate(56.583 62.922)"><path fill="#00000000" fill-rule="nonzero" transform="translate(-3 -3)" d="M 0 0m 0 3c 0 -1.656854249 1.343145751 -3 3 -3h 10.584c 1.656854249 0 3 1.343145751 3 3v 11.844c 0 1.656854249 -1.343145751 3 -3 3h -10.584c -1.656854249 0 -3 -1.343145751 -3 -3Z "/><g transform="matrix(1 0 0 -1 0 11.844)"><use xlink:href="#g4D0C9DA89102F3D2F0EB8B51B53A45E0" x="0" y="0" fill="#000000" fill-rule="nonzero"/></g></g></g><g transform="matrix(1 0 0 -1 133.75 84.766)"/><g transform="translate(158.5 10)"><path fill="#ffffff" fill-rule="nonzero" transform="translate(0 28.644)" d="M 0 0m 0 1.125c 0 -0.621320344 0.503679656 -1.125 1.125 -1.125h 10.125v 36.375c 0 0.621320344 -0.503679656 1.125 -1.125 1.125h -9c -0.621320344 0 -1.125 -0.503679656 -1.125 -1.125Z "/><path fill="#000000" fill-rule="nonzero" transform="translate(0 28.644)" d="M 0 0m 1.125 0.375v -0.75h 10.5v 36.75c 0 0.828427125 -0.671572875 1.5 -1.5 1.5h -9c -0.828427125 0 -1.5 -0.671572875 -1.5 -1.5v -35.25c 0 -0.828427125 0.671572875 -1.5 1.5 -1.5v 0.75c -0.414213562 0 -0.75 0.335786438 -0.75 0.75v 35.25c 0 0.414213562 0.335786438 0.75 0.75 0.75h 9c 0.414213562 0 0.75 -0.335786438 0.75 -0.75v -36Z "/><path fill="#ffffff" fill-rule="nonzero" transform="translate(11.25 28.644)" d="M 0 0h 11.25v 36.375c 0 0.621320344 -0.503679656 1.125 -1.125 1.125h -9c -0.621320344 0 -1.125 -0.503679656 -1.125 -1.125Z "/><path fill="#000000" fill-rule="nonzero" transform="translate(11.25 28.644)" d="M 0 0m 0.375 0.375l -0.75 -0.75h 12v 36.75c 0 0.828427125 -0.671572875 1.5 -1.5 1.5h -9c -0.828427125 0 -1.5 -0.671572875 -1.5 -1.5v -36.75l 0.75 0.75v 36c 0 0.414213562 0.335786438 0.75 0.75 0.75h 9c 0.414213562 0 0.75 -0.335786438 0.75 -0.75v -36Z "/><path fill="#ffffff" fill-rule="nonzero" transform="translate(22.5 28.644)" d="M 0 0h 11.25v 36.375c 0 0.621320344 -0.503679656 1.125 -1.125 1.125h -9c -0.621320344 0 -1.125 -0.503679656 -1.125 -1.125Z "/><path fill="#000000" fill-rule="nonzero" transform="translate(22.5 28.644)" d="M 0 0m 0.375 0.375l -0.75 -0.75h 12v 36.75c 0 0.828427125 -0.671572875 1.5 -1.5 1.5h -9c -0.828427125 0 -1.5 -0.671572875 -1.5 -1.5v -36.75l 0.75 0.75v 36c 0 0.414213562 0.335786438 0.75 0.75 0.75h 9c 0.414213562 0 0.75 -0.335786438 0.75 -0.75v -36Z "/><path fill="#ffdc00" fill-rule="nonzero" transform="translate(33.75 28.644)" d="M 0 0h 11.25v 36.375c 0 0.621320344 -0.503679656 1.125 -1.125 1.125h -9c -0.621320344 0 -1.125 -0.503679656 -1.125 -1.125Z "/><path fill="#000000" fill-rule="nonzero" transform="translate(33.75 28.644)" d="M 0 0m 0.375 0.375l -0.75 -0.75h 12v 36.75c 0 0.828427125 -0.671572875 1.5 -1.5 1.5h -9c -0.828427125 0 -1.5 -0.671572875 -1.5 -1.5v -36.75l 0.75 0.75v 36c 0 0.414213562 0.335786438 0.75 0.75 0.75h 9c 0.414213562 0 0.75 -0.335786438 0.75 -0.75v -36Z "/><path fill="#ffffff" fill-rule="nonzero" transform="translate(45 28.644)" d="M 0 0h 11.25v 36.375c 0 0.621320344 -0.503679656 1.125 -1.125 1.125h -9c -0.621320344 0 -1.125 -0.503679656 -1.125 -1.125Z "/><path fill="#000000" fill-rule="nonzero" transform="translate(45 28.644)" d="M 0 0m 0.375 0.375l -0.75 -0.75h 12v 36.75c 0 0.828427125 -0.671572875 1.5 -1.5 1.5h -9c -0.828427125 0 -1.5 -0.671572875 -1.5 -1.5v -36.75l 0.75 0.75v 36c 0 0.414213562 0.335786438 0.75 0.75 0.75h 9c 0.414213562 0 0.75 -0.335786438 0.75 -0.75v -36Z "/><path fill="#ffffff" fill-rule="nonzero" transform="translate(56.25 28.644)" d="M 0 0h 11.25v 36.375c 0 0.621320344 -0.503679656 1.125 -1.125 1.125h -9c -0.621320344 0 -1.125 -0.503679656 -1.125 -1.125Z "/><path fill="#000000" fill-rule="nonzero" transform="translate(56.25 28.644)" d="M 0 0m 0.375 0.375l -0.75 -0.75h 12v 36.75c 0 0.828427125 -0.671572875 1.5 -1.5 1.5h -9c -0.828427125 0 -1.5 -0.671572875 -1.5 -1.5v -36.75l 0.75 0.75v 36c 0 0.414213562 0.335786438 0.75 0.75 0.75h 9c 0.414213562 0 0.75 -0.335786438 0.75 -0.75v -36Z "/><path fill="#ffffff" fill-rule="nonzero" transform="translate(67.5 28.644)" d="M 0 0h 11.25v 36.375c 0 0.621320344 -0.503679656 1.125 -1.125 1.125h -9c -0.621320344 0 -1.125 -0.503679656 -1.125 -1.125Z "/><path fill="#000000" fill-rule="nonzero" transform="translate(67.5 28.644)" d="M 0 0m 0.375 0.375l -0.75 -0.75h 12v 36.75c 0 0.828427125 -0.671572875 1.5 -1.5 1.5h -9c -0.828427125 0 -1.5 -0.671572875 -1.5 -1.5v -36.75l 0.75 0.75v 36c 0 0.414213562 0.335786438 0.75 0.75 0.75h 9c 0.414213562 0 0.75 -0.335786438 0.75 -0.75v -36Z "/><path fill="#ffffff" fill-rule="nonzero" transform="translate(78.75 28.644)" d="M 0 0h 11.25v 36.375c 0 0.621320344 -0.503679656 1.125 -1.125 1.125h -9c -0.621320344 0 -1.125 -0.503679656 -1.125 -1.125Z "/><path fill="#000000" fill-rule="nonzero" transform="translate(78.75 28.644)" d="M 0 0m 0.375 0.375l -0.75 -0.75h 12v 36.75c 0 0.828427125 -0.671572875 1.5 -1.5 1.5h -9c -0.828427125 0 -1.5 -0.671572875 -1.5 -1.5v -36.75l 0.75 0.75v 36c 0 0.414213562 0.335786438 0.75 0.75 0.75h 9c 0.414213562 0 0.75 -0.335786438 0.75 -0.75v -36Z "/><path fill="#ffffff" fill-rule="nonzero" transform="translate(90 28.644)" d="M 0 0h 11.25v 36.375c 0 0.621320344 -0.503679656 1.125 -1.125 1.125h -9c -0.621320344 0 -1.125 -0.503679656 -1.125 -1.125Z "/><path fill="#000000" fill-rule="nonzero" transform="translate(90 28.644)" d="M 0 0m 0.375 0.375l -0.75 -0.75h 12v 36.75c 0 0.828427125 -0.671572875 1.5 -1.5 1.5h -9c -0.828427125 0 -1.5 -0.671572875 -1.5 -1.5v -36.75l 0.75 0.75v 36c 0 0.414213562 0.335786438 0.75 0.75 0.75h 9c 0.414213562 0 0.75 -0.335786438 0.75 -0.75v -36Z "/><path fill="#ffffff" fill-rule="nonzero" transform="translate(101.25 28.644)" d="M 0 0h 11.25v 36.375c 0 0.621320344 -0.503679656 1.125 -1.125 1.125h -9c -0.621320344 0 -1.125 -0.503679656 -1.125 -1.125Z "/><path fill="#000000" fill-rule="nonzero" transform="translate(101.25 28.644)" d="M 0 0m 0.375 0.375l -0.75 -0.75h 12v 36.75c 0 0.828427125 -0.671572875 1.5 -1.5 1.5h -9c -0.828427125 0 -1.5 -0.671572875 -1.5 -1.5v -36.75l 0.75 0.75v 36c 0 0.414213562 0.335786438 0.75 0.75 0.75h 9c 0.414213562 0 0.75 -0.335786438 0.75 -0.75v -36Z "/><path fill="#ffffff" fill-rule="nonzero" transform="translate(112.5 28.644)" d="M 0 0h 10.125c 0.621320344 0 1.125 0.503679656 1.125 1.125v 35.25c 0 0.621320344 -0.503679656 1.125 -1.125 1.125h -9c -0.621320344 0 -1.125 -0.503679656 -1.125 -1.125Z "/><path fill="#000000" fill-rule="nonzero" transform="translate(112.5 28.644)" d="M 0 0m 0.375 0.375l -0.75 -0.75h 10.5c 0.828427125 0 1.5 0.671572875 1.5 1.5v 35.25c 0 0.828427125 -0.671572875 1.5 -1.5 1.5h -9c -0.828427125 0 -1.5 -0.671572875 -1.5 -1.5v -36.75l 0.75 0.75v 36c 0 0.414213562 0.335786438 0.75 0.75 0.75h 9c 0.414213562 0 0.75 -0.335786438 0.75 -0.75v -35.25c 0 -0.414213562 -0.335786438 -0.75 -0.75 -0.75Z "/><path fill="#000000" fill-rule="nonzero" transform="translate(6 28.644)" d="M 0 0h 7.5v 24.375c 0 0.621320344 -0.503679656 1.125 -1.125 1.125h -5.25c -0.621320344 0 -1.125 -0.503679656 -1.125 -1.125Z "/><path fill="#000000" fill-rule="nonzero" transform="translate(6 28.644)" d="M 0 0m 0.375 0.375l -0.75 -0.75h 8.25v 24.75c 0 0.828427125 -0.671572875 1.5 -1.5 1.5h -5.25c -0.828427125 0 -1.5 -0.671572875 -1.5 -1.5v -24.75l 0.75 0.75v 24c 0 0.414213562 0.335786438 0.75 0.75 0.75h 5.25c 0.414213562 0 0.75 -0.335786438 0.75 -0.75v -24Z "/><path fill="#000000" fill-rule="nonzero" transform="translate(18.75 28.644)" d="M 0 0h 7.5v 24.375c 0 0.621320344 -0.503679656 1.125 -1.125 1.125h -5.25c -0.621320344 0 -1.125 -0.503679656 -1.125 -1.125Z "/><path fill="#000000" fill-rule="nonzero" transform="translate(18.75 28.644)" d="M 0 0m 0.375 0.375l -0.75 -0.75h 8.25v 24.75c 0 0.828427125 -0.671572875 1.5 -1.5 1.5h -5.25c -0.828427125 0 -1.5 -0.671572875 -1.5 -1.5v -24.75l 0.75 0.75v 24c 0 0.414213562 0.335786438 0.75 0.75 0.75h 5.25c 0.414213562 0 0.75 -0.335786438 0.75 -0.75v -24Z "/><path fill="#000000" fill-rule="nonzero" transform="translate(31.5 28.644)" d="M 0 0h 7.5v 24.375c 0 0.621320344 -0.503679656 1.125 -1.125 1.125h -5.25c -0.621320344 0 -1.125 -0.503679656 -1.125 -1.125Z "/><path fill="#000000" fill-rule="nonzero" transform="translate(31.5 28.644)" d="M 0 0m 0.375 0.375l -0.75 -0.75h 8.25v 24.75c 0 0.828427125 -0.671572875 1.5 -1.5 1.5h -5.25c -0.828427125 0 -1.5 -0.671572875 -1.5 -1.5v -24.75l 0.75 0.75v 24c 0 0.414213562 0.335786438 0.75 0.75 0.75h 5.25c 0.414213562 0 0.75 -0.335786438 0.75 -0.75v -24Z "/><path fill="#000000" fill-rule="nonzero" transform="translate(51 28.644)" d="M 0 0h 7.5v 24.375c 0 0.621320344 -0.503679656 1.125 -1.125 1.125h -5.25c -0.621320344 0 -1.125 -0.503679656 -1.125 -1.125Z "/><path fill="#000000" fill-rule="nonzero" transform="translate(51 28.644)" d="M 0 0m 0.375 0.375l -0.75 -0.75h 8.25v 24.75c 0 0.828427125 -0.671572875 1.5 -1.5 1.5h -5.25c -0.828427125 0 -1.5 -0.671572875 -1.5 -1.5v -24.75l 0.75 0.75v 24c 0 0.414213562 0.335786438 0.75 0.75 0.75h 5.25c 0.414213562 0 0.75 -0.335786438 0.75 -0.75v -24Z "/><path fill="#ffdc00" fill-rule="nonzero" transform="translate(65.25 28.644)" d="M 0 0h 7.5v 24.375c 0 0.621320344 -0.503679656 1.125 -1.125 1.125h -5.25c -0.621320344 0 -1.125 -0.503679656 -1.125 -1.125Z "/><path fill="#000000" fill-rule="nonzero" transform="translate(65.25 28.644)" d="M 0 0m 0.375 0.375l -0.75 -0.75h 8.25v 24.75c 0 0.828427125 -0.671572875 1.5 -1.5 1.5h -5.25c -0.828427125 0 -1.5 -0.671572875 -1.5 -1.5v -24.75l 0.75 0.75v 24c 0 0.414213562 0.335786438 0.75 0.75 0.75h 5.25c 0.414213562 0 0.75 -0.335786438 0.75 -0.75v -24Z "/><path fill="#ffdc00" fill-rule="nonzero" transform="translate(84.75 28.644)" d="M 0 0h 7.5v 24.375c 0 0.621320344 -0.503679656 1.125 -1.125 1.125h -5.25c -0.621320344 0 -1.125 -0.503679656 -1.125 -1.125Z "/><path fill="#000000" fill-rule="nonzero" transform="translate(84.75 28.644)" d="M 0 0m 0.375 0.375l -0.75 -0.75h 8.25v 24.75c 0 0.828427125 -0.671572875 1.5 -1.5 1.5h -5.25c -0.828427125 0 -1.5 -0.671572875 -1.5 -1.5v -24.75l 0.75 0.75v 24c 0 0.414213562 0.335786438 0.75 0.75 0.75h 5.25c 0.414213562 0 0.75 -0.335786438 0.75 -0.75v -24Z "/><path fill="#000000" fill-rule="nonzero" transform="translate(97.5 28.644)" d="M 0 0h 7.5v 24.375c 0 0.621320344 -0.503679656 1.125 -1.125 1.125h -5.25c -0.621320344 0 -1.125 -0.503679656 -1.125 -1.125Z "/><path fill="#000000" fill-rule="nonzero" transform="translate(97.5 28.644)" d="M 0 0m 0.375 0.375l -0.75 -0.75h 8.25v 24.75c 0 0.828427125 -0.671572875 1.5 -1.5 1.5h -5.25c -0.828427125 0 -1.5 -0.671572875 -1.5 -1.5v -24.75l 0.75 0.75v 24c 0 0.414213562 0.335786438 0.75 0.75 0.75h 5.25c 0.414213562 0 0.75 -0.335786438 0.75 -0.75v -24Z "/><path fill="#000000" fill-rule="nonzero" transform="translate(110.25 28.644)" d="M 0 0h 7.5v 24.375c 0 0.621320344 -0.503679656 1.125 -1.125 1.125h -5.25c -0.621320344 0 -1.125 -0.503679656 -1.125 -1.125Z "/><path fill="#000000" fill-rule="nonzero" transform="translate(110.25 28.644)" d="M 0 0m 0.375 0.375l -0.75 -0.75h 8.25v 24.75c 0 0.828427125 -0.671572875 1.5 -1.5 1.5h -5.25c -0.828427125 0 -1.5 -0.671572875 -1.5 -1.5v -24.75l 0.75 0.75v 24c 0 0.414213562 0.335786438 0.75 0.75 0.75h 5.25c 0.414213562 0 0.75 -0.335786438 0.75 -0.75v -24Z "/><path fill="#000000" fill-rule="nonzero" stroke="#000000" stroke-width="0.75" stroke-linecap="butt" stroke-linejoin="miter" stroke-miterlimit="4" transform="translate(0 28.344)" d="M 0 0c 0 -0.828427125 0.671572875 -1.5 1.5 -1.5h 120.75c 0.828427125 0 1.5 0.828427125 1.5 1.5v 1.8c 0 -0.828427125 -0.828427125 -1.5 -1.5 -1.5h -120.75c -0.828427125 0 -1.5 0.828427125 -1.5 1.5v -1.8c 0 0 0 0.828427125 0 0Z "/><path fill="#000000" fill-rule="nonzero" transform="translate(36.825 57.594)" d="M 0 0m 0 2.55c 0 -1.4070492 1.1429508 -2.55 2.55 -2.55c 1.4070492 0 2.55 1.1429508 2.55 2.55c 0 1.4070492 -1.1429508 2.55 -2.55 2.55c -1.4070492 0 -2.55 -1.1429508 -2.55 -2.55"/><path fill="#000000" fill-rule="nonzero" transform="translate(66.45 46.344)" d="M 0 0m 0 2.55c 0 -1.4070492 1.1429508 -2.55 2.55 -2.55c 1.4070492 0 2.55 1.1429508 2.55 2.55c 0 1.4070492 -1.1429508 2.55 -2.55 2.55c -1.4070492 0 -2.55 -1.1429508 -2.55 -2.55"/><path fill="#000000" fill-rule="nonzero" transform="translate(85.95 46.344)" d="M 0 0m 0 2.55c 0 -1.4070492 1.1429508 -2.55 2.55 -2.55c 1.4070492 0 2.55 1.1429508 2.55 2.55c 0 1.4070492 -1.1429508 2.55 -2.55 2.55c -1.4070492 0 -2.55 -1.1429508 -2.55 -2.55"/><g transform="matrix(1 0 0 -1 36.729 74.766)"><use xlink:href="#gB4F0D25B5DE46FE4884AAF0D69A4CE76" x="0" y="0" fill="#000000" fill-rule="nonzero"/></g><g transform="matrix(1 0 0 -1 63.753 24.294)"><use xlink:href="#g7384146F98C9D7CC0EAFFF5932A03CB9" x="0" y="0" fill="#000000" fill-rule="nonzero"/><use xlink:href="#g68BFE74938DD233F6CD5D0BDE452605" x="6.309" y="0" fill="#000000" fill-rule="nonzero"/></g><g transform="matrix(1 0 0 -1 84.225 24.294)"><use xlink:href="#g7864D1617FA3151403FF7A71D5443C9A" x="0" y="0" fill="#000000" fill-rule="nonzero"/><use xlink:href="#g68BFE74938DD233F6CD5D0BDE452605" x="4.365" y="0" fill="#000000" fill-rule="nonzero"/></g><g transform="translate(56.583)"><path fill="#00000000" fill-rule="nonzero" transform="translate(-3 -3)" d="M 0 0m 0 3c 0 -1.656854249 1.343145751 -3 3 -3h 10.584c 1.656854249 0 3 1.343145751 3 3v 11.844c 0 1.656854249 -1.343145751 3 -3 3h -10.584c -1.656854249 0 -3 -1.343145751 -3 -3Z "/><g transform="matrix(1 0 0 -1 0 11.844)"><use xlink:href="#g4D0C9DA89102F3D2F0EB8B51B53A45E0" x="0" y="0" fill="#000000" fill-rule="nonzero"/></g></g></g><g transform="matrix(1 0 0 -1 282.25 84.766)"/><g transform="translate(307 10)"><path fill="#ffffff" fill-rule="nonzero" transform="translate(0 10.422)" d="M 0 0m 0 1.125c 0 -0.621320344 0.503679656 -1.125 1.125 -1.125h 10.125v 36.375c 0 0.621320344 -0.503679656 1.125 -1.125 1.125h -9c -0.621320344 0 -1.125 -0.503679656 -1.125 -1.125Z "/><path fill="#000000" fill-rule="nonzero" transform="translate(0 10.422)" d="M 0 0m 1.125 0.375v -0.75h 10.5v 36.75c 0 0.828427125 -0.671572875 1.5 -1.5 1.5h -9c -0.828427125 0 -1.5 -0.671572875 -1.5 -1.5v -35.25c 0 -0.828427125 0.671572875 -1.5 1.5 -1.5v 0.75c -0.414213562 0 -0.75 0.335786438 -0.75 0.75v 35.25c 0 0.414213562 0.335786438 0.75 0.75 0.75h 9c 0.414213562 0 0.75 -0.335786438 0.75 -0.75v -36Z "/><path fill="#ffffff" fill-rule="nonzero" transform="translate(11.25 10.422)" d="M 0 0h 11.25v 36.375c 0 0.621320344 -0.503679656 1.125 -1.125 1.125h -9c -0.621320344 0 -1.125 -0.503679656 -1.125 -1.125Z "/><path fill="#000000" fill-rule="nonzero" transform="translate(11.25 10.422)" d="M 0 0m 0.375 0.375l -0.75 -0.75h 12v 36.75c 0 0.828427125 -0.671572875 1.5 -1.5 1.5h -9c -0.828427125 0 -1.5 -0.671572875 -1.5 -1.5v -36.75l 0.75 0.75v 36c 0 0.414213562 0.335786438 0.75 0.75 0.75h 9c 0.414213562 0 0.75 -0.335786438 0.75 -0.75v -36Z "/><path fill="#ffffff" fill-rule="nonzero" transform="translate(22.5 10.422)" d="M 0 0h 11.25v 36.375c 0 0.621320344 -0.503679656 1.125 -1.125 1.125h -9c -0.621320344 0 -1.125 -0.503679656 -1.125 -1.125Z "/><path fill="#000000" fill-rule="nonzero" transform="translate(22.5 10.422)" d="M 0 0m 0.375 0.375l -0.75 -0.75h 12v 36.75c 0 0.828427125 -0.671572875 1.5 -1.5 1.5h -9c -0.828427125 0 -1.5 -0.671572875 -1.5 -1.5v -36.75l 0.75 0.75v 36c 0 0.414213562 0.335786438 0.75 0.75 0.75h 9c 0.414213562 0 0.75 -0.335786438 0.75 -0.75v -36Z "/><path fill="#ff4136" fill-rule="nonzero" transform="translate(33.75 10.422)" d="M 0 0h 11.25v 36.375c 0 0.621320344 -0.503679656 1.125 -1.125 1.125h -9c -0.621320344 0 -1.125 -0.503679656 -1.125 -1.125Z "/><path fill="#000000" fill-rule="nonzero" transform="translate(33.75 10.422)" d="M 0 0m 0.375 0.375l -0.75 -0.75h 12v 36.75c 0 0.828427125 -0.671572875 1.5 -1.5 1.5h -9c -0.828427125 0 -1.5 -0.671572875 -1.5 -1.5v -36.75l 0.75 0.75v 36c 0 0.414213562 0.335786438 0.75 0.75 0.75h 9c 0.414213562 0 0.75 -0.335786438 0.75 -0.75v -36Z "/><path fill="#ffffff" fill-rule="nonzero" transform="translate(45 10.422)" d="M 0 0h 11.25v 36.375c 0 0.621320344 -0.503679656 1.125 -1.125 1.125h -9c -0.621320344 0 -1.125 -0.503679656 -1.125 -1.125Z "/><path fill="#000000" fill-rule="nonzero" transform="translate(45 10.422)" d="M 0 0m 0.375 0.375l -0.75 -0.75h 12v 36.75c 0 0.828427125 -0.671572875 1.5 -1.5 1.5h -9c -0.828427125 0 -1.5 -0.671572875 -1.5 -1.5v -36.75l 0.75 0.75v 36c 0 0.414213562 0.335786438 0.75 0.75 0.75h 9c 0.414213562 0 0.75 -0.335786438 0.75 -0.75v -36Z "/><path fill="#ffffff" fill-rule="nonzero" transform="translate(56.25 10.422)" d="M 0 0h 11.25v 36.375c 0 0.621320344 -0.503679656 1.125 -1.125 1.125h -9c -0.621320344 0 -1.125 -0.503679656 -1.125 -1.125Z "/><path fill="#000000" fill-rule="nonzero" transform="translate(56.25 10.422)" d="M 0 0m 0.375 0.375l -0.75 -0.75h 12v 36.75c 0 0.828427125 -0.671572875 1.5 -1.5 1.5h -9c -0.828427125 0 -1.5 -0.671572875 -1.5 -1.5v -36.75l 0.75 0.75v 36c 0 0.414213562 0.335786438 0.75 0.75 0.75h 9c 0.414213562 0 0.75 -0.335786438 0.75 -0.75v -36Z "/><path fill="#ffffff" fill-rule="nonzero" transform="translate(67.5 10.422)" d="M 0 0h 11.25v 36.375c 0 0.621320344 -0.503679656 1.125 -1.125 1.125h -9c -0.621320344 0 -1.125 -0.503679656 -1.125 -1.125Z "/><path fill="#000000" fill-rule="nonzero" transform="translate(67.5 10.422)" d="M 0 0m 0.375 0.375l -0.75 -0.75h 12v 36.75c 0 0.828427125 -0.671572875 1.5 -1.5 1.5h -9c -0.828427125 0 -1.5 -0.671572875 -1.5 -1.5v -36.75l 0.75 0.75v 36c 0 0.414213562 0.335786438 0.75 0.75 0.75h 9c 0.414213562 0 0.75 -0.335786438 0.75 -0.75v -36Z "/><path fill="#ffffff" fill-rule="nonzero" transform="translate(78.75 10.422)" d="M 0 0h 11.25v 36.375c 0 0.621320344 -0.503679656 1.125 -1.125 1.125h -9c -0.621320344 0 -1.125 -0.503679656 -1.125 -1.125Z "/><path fill="#000000" fill-rule="nonzero" transform="translate(78.75 10.422)" d="M 0 0m 0.375 0.375l -0.75 -0.75h 12v 36.75c 0 0.828427125 -0.671572875 1.5 -1.5 1.5h -9c -0.828427125 0 -1.5 -0.671572875 -1.5 -1.5v -36.75l 0.75 0.75v 36c 0 0.414213562 0.335786438 0.75 0.75 0.75h 9c 0.414213562 0 0.75 -0.335786438 0.75 -0.75v -36Z "/><path fill="#ffffff" fill-rule="nonzero" transform="translate(90 10.422)" d="M 0 0h 11.25v 36.375c 0 0.621320344 -0.503679656 1.125 -1.125 1.125h -9c -0.621320344 0 -1.125 -0.503679656 -1.125 -1.125Z "/><path fill="#000000" fill-rule="nonzero" transform="translate(90 10.422)" d="M 0 0m 0.375 0.375l -0.75 -0.75h 12v 36.75c 0 0.828427125 -0.671572875 1.5 -1.5 1.5h -9c -0.828427125 0 -1.5 -0.671572875 -1.5 -1.5v -36.75l 0.75 0.75v 36c 0 0.414213562 0.335786438 0.75 0.75 0.75h 9c 0.414213562 0 0.75 -0.335786438 0.75 -0.75v -36Z "/><path fill="#ffffff" fill-rule="nonzero" transform="translate(101.25 10.422)" d="M 0 0h 11.25v 36.375c 0 0.621320344 -0.503679656 1.125 -1.125 1.125h -9c -0.621320344 0 -1.125 -0.503679656 -1.125 -1.125Z "/><path fill="#000000" fill-rule="nonzero" transform="translate(101.25 10.422)" d="M 0 0m 0.375 0.375l -0.75 -0.75h 12v 36.75c 0 0.828427125 -0.671572875 1.5 -1.5 1.5h -9c -0.828427125 0 -1.5 -0.671572875 -1.5 -1.5v -36.75l 0.75 0.75v 36c 0 0.414213562 0.335786438 0.75 0.75 0.75h 9c 0.414213562 0 0.75 -0.335786438 0.75 -0.75v -36Z "/><path fill="#ffffff" fill-rule="nonzero" transform="translate(112.5 10.422)" d="M 0 0h 10.125c 0.621320344 0 1.125 0.503679656 1.125 1.125v 35.25c 0 0.621320344 -0.503679656 1.125 -1.125 1.125h -9c -0.621320344 0 -1.125 -0.503679656 -1.125 -1.125Z "/><path fill="#000000" fill-rule="nonzero" transform="translate(112.5 10.422)" d="M 0 0m 0.375 0.375l -0.75 -0.75h 10.5c 0.828427125 0 1.5 0.671572875 1.5 1.5v 35.25c 0 0.828427125 -0.671572875 1.5 -1.5 1.5h -9c -0.828427125 0 -1.5 -0.671572875 -1.5 -1.5v -36.75l 0.75 0.75v 36c 0 0.414213562 0.335786438 0.75 0.75 0.75h 9c 0.414213562 0 0.75 -0.335786438 0.75 -0.75v -35.25c 0 -0.414213562 -0.335786438 -0.75 -0.75 -0.75Z "/><path fill="#000000" fill-rule="nonzero" transform="translate(6 10.422)" d="M 0 0h 7.5v 24.375c 0 0.621320344 -0.503679656 1.125 -1.125 1.125h -5.25c -0.621320344 0 -1.125 -0.503679656 -1.125 -1.125Z "/><path fill="#000000" fill-rule="nonzero" transform="translate(6 10.422)" d="M 0 0m 0.375 0.375l -0.75 -0.75h 8.25v 24.75c 0 0.828427125 -0.671572875 1.5 -1.5 1.5h -5.25c -0.828427125 0 -1.5 -0.671572875 -1.5 -1.5v -24.75l 0.75 0.75v 24c 0 0.414213562 0.335786438 0.75 0.75 0.75h 5.25c 0.414213562 0 0.75 -0.335786438 0.75 -0.75v -24Z "/><path fill="#000000" fill-rule="nonzero" transform="translate(18.75 10.422)" d="M 0 0h 7.5v 24.375c 0 0.621320344 -0.503679656 1.125 -1.125 1.125h -5.25c -0.621320344 0 -1.125 -0.503679656 -1.125 -1.125Z "/><path fill="#000000" fill-rule="nonzero" transform="translate(18.75 10.422)" d="M 0 0m 0.375 0.375l -0.75 -0.75h 8.25v 24.75c 0 0.828427125 -0.671572875 1.5 -1.5 1.5h -5.25c -0.828427125 0 -1.5 -0.671572875 -1.5 -1.5v -24.75l 0.75 0.75v 24c 0 0.414213562 0.335786438 0.75 0.75 0.75h 5.25c 0.414213562 0 0.75 -0.335786438 0.75 -0.75v -24Z "/><path fill="#000000" fill-rule="nonzero" transform="translate(31.5 10.422)" d="M 0 0h 7.5v 24.375c 0 0.621320344 -0.503679656 1.125 -1.125 1.125h -5.25c -0.621320344 0 -1.125 -0.503679656 -1.125 -1.125Z "/><path fill="#000000" fill-rule="nonzero" transform="translate(31.5 10.422)" d="M 0 0m 0.375 0.375l -0.75 -0.75h 8.25v 24.75c 0 0.828427125 -0.671572875 1.5 -1.5 1.5h -5.25c -0.828427125 0 -1.5 -0.671572875 -1.5 -1.5v -24.75l 0.75 0.75v 24c 0 0.414213562 0.335786438 0.75 0.75 0.75h 5.25c 0.414213562 0 0.75 -0.335786438 0.75 -0.75v -24Z "/><path fill="#000000" fill-rule="nonzero" transform="translate(51 10.422)" d="M 0 0h 7.5v 24.375c 0 0.621320344 -0.503679656 1.125 -1.125 1.125h -5.25c -0.621320344 0 -1.125 -0.503679656 -1.125 -1.125Z "/><path fill="#000000" fill-rule="nonzero" transform="translate(51 10.422)" d="M 0 0m 0.375 0.375l -0.75 -0.75h 8.25v 24.75c 0 0.828427125 -0.671572875 1.5 -1.5 1.5h -5.25c -0.828427125 0 -1.5 -0.671572875 -1.5 -1.5v -24.75l 0.75 0.75v 24c 0 0.414213562 0.335786438 0.75 0.75 0.75h 5.25c 0.414213562 0 0.75 -0.335786438 0.75 -0.75v -24Z "/><path fill="#ff4136" fill-rule="nonzero" transform="translate(65.25 10.422)" d="M 0 0h 7.5v 24.375c 0 0.621320344 -0.503679656 1.125 -1.125 1.125h -5.25c -0.621320344 0 -1.125 -0.503679656 -1.125 -1.125Z "/><path fill="#000000" fill-rule="nonzero" transform="translate(65.25 10.422)" d="M 0 0m 0.375 0.375l -0.75 -0.75h 8.25v 24.75c 0 0.828427125 -0.671572875 1.5 -1.5 1.5h -5.25c -0.828427125 0 -1.5 -0.671572875 -1.5 -1.5v -24.75l 0.75 0.75v 24c 0 0.414213562 0.335786438 0.75 0.75 0.75h 5.25c 0.414213562 0 0.75 -0.335786438 0.75 -0.75v -24Z "/><path fill="#ff4136" fill-rule="nonzero" transform="translate(84.75 10.422)" d="M 0 0h 7.5v 24.375c 0 0.621320344 -0.503679656 1.125 -1.125 1.125h -5.25c -0.621320344 0 -1.125 -0.503679656 -1.125 -1.125Z "/><path fill="#000000" fill-rule="nonzero" transform="translate(84.75 10.422)" d="M 0 0m 0.375 0.375l -0.75 -0.75h 8.25v 24.75c 0 0.828427125 -0.671572875 1.5 -1.5 1.5h -5.25c -0.828427125 0 -1.5 -0.671572875 -1.5 -1.5v -24.75l 0.75 0.75v 24c 0 0.414213562 0.335786438 0.75 0.75 0.75h 5.25c 0.414213562 0 0.75 -0.335786438 0.75 -0.75v -24Z "/><path fill="#000000" fill-rule="nonzero" transform="translate(97.5 10.422)" d="M 0 0h 7.5v 24.375c 0 0.621320344 -0.503679656 1.125 -1.125 1.125h -5.25c -0.621320344 0 -1.125 -0.503679656 -1.125 -1.125Z "/><path fill="#000000" fill-rule="nonzero" transform="translate(97.5 10.422)" d="M 0 0m 0.375 0.375l -0.75 -0.75h 8.25v 24.75c 0 0.828427125 -0.671572875 1.5 -1.5 1.5h -5.25c -0.828427125 0 -1.5 -0.671572875 -1.5 -1.5v -24.75l 0.75 0.75v 24c 0 0.414213562 0.335786438 0.75 0.75 0.75h 5.25c 0.414213562 0 0.75 -0.335786438 0.75 -0.75v -24Z "/><path fill="#000000" fill-rule="nonzero" transform="translate(110.25 10.422)" d="M 0 0h 7.5v 24.375c 0 0.621320344 -0.503679656 1.125 -1.125 1.125h -5.25c -0.621320344 0 -1.125 -0.503679656 -1.125 -1.125Z "/><path fill="#000000" fill-rule="nonzero" transform="translate(110.25 10.422)" d="M 0 0m 0.375 0.375l -0.75 -0.75h 8.25v 24.75c 0 0.828427125 -0.671572875 1.5 -1.5 1.5h -5.25c -0.828427125 0 -1.5 -0.671572875 -1.5 -1.5v -24.75l 0.75 0.75v 24c 0 0.414213562 0.335786438 0.75 0.75 0.75h 5.25c 0.414213562 0 0.75 -0.335786438 0.75 -0.75v -24Z "/><path fill="#000000" fill-rule="nonzero" stroke="#000000" stroke-width="0.75" stroke-linecap="butt" stroke-linejoin="miter" stroke-miterlimit="4" transform="translate(0 10.122)" d="M 0 0c 0 -0.828427125 0.671572875 -1.5 1.5 -1.5h 120.75c 0.828427125 0 1.5 0.828427125 1.5 1.5v 1.8c 0 -0.828427125 -0.828427125 -1.5 -1.5 -1.5h -120.75c -0.828427125 0 -1.5 0.828427125 -1.5 1.5v -1.8c 0 0 0 0.828427125 0 0Z "/><path fill="#000000" fill-rule="nonzero" transform="translate(36.825 39.372)" d="M 0 0m 0 2.55c 0 -1.4070492 1.1429508 -2.55 2.55 -2.55c 1.4070492 0 2.55 1.1429508 2.55 2.55c 0 1.4070492 -1.1429508 2.55 -2.55 2.55c -1.4070492 0 -2.55 -1.1429508 -2.55 -2.55"/><path fill="#000000" fill-rule="nonzero" transform="translate(66.45 28.122)" d="M 0 0m 0 2.55c 0 -1.4070492 1.1429508 -2.55 2.55 -2.55c 1.4070492 0 2.55 1.1429508 2.55 2.55c 0 1.4070492 -1.1429508 2.55 -2.55 2.55c -1.4070492 0 -2.55 -1.1429508 -2.55 -2.55"/><path fill="#000000" fill-rule="nonzero" transform="translate(85.95 28.122)" d="M 0 0m 0 2.55c 0 -1.4070492 1.1429508 -2.55 2.55 -2.55c 1.4070492 0 2.55 1.1429508 2.55 2.55c 0 1.4070492 -1.1429508 2.55 -2.55 2.55c -1.4070492 0 -2.55 -1.1429508 -2.55 -2.55"/><g transform="matrix(1 0 0 -1 36.729 56.544)"><use xlink:href="#gB4F0D25B5DE46FE4884AAF0D69A4CE76" x="0" y="0" fill="#000000" fill-rule="nonzero"/></g><g transform="matrix(1 0 0 -1 63.753 6.072)"><use xlink:href="#g7384146F98C9D7CC0EAFFF5932A03CB9" x="0" y="0" fill="#000000" fill-rule="nonzero"/><use xlink:href="#g68BFE74938DD233F6CD5D0BDE452605" x="6.309" y="0" fill="#000000" fill-rule="nonzero"/></g><g transform="matrix(1 0 0 -1 84.225 6.072)"><use xlink:href="#g7864D1617FA3151403FF7A71D5443C9A" x="0" y="0" fill="#000000" fill-rule="nonzero"/><use xlink:href="#g68BFE74938DD233F6CD5D0BDE452605" x="4.365" y="0" fill="#000000" fill-rule="nonzero"/></g><g transform="translate(56.583 62.922)"><path fill="#dddddd" fill-rule="nonzero" transform="translate(-3 -3)" d="M 0 0m 0 3c 0 -1.656854249 1.343145751 -3 3 -3h 10.584c 1.656854249 0 3 1.343145751 3 3v 11.844c 0 1.656854249 -1.343145751 3 -3 3h -10.584c -1.656854249 0 -3 -1.343145751 -3 -3Z "/><g transform="matrix(1 0 0 -1 0 11.844)"><use xlink:href="#g4D0C9DA89102F3D2F0EB8B51B53A45E0" x="0" y="0" fill="#000000" fill-rule="nonzero"/></g></g></g><defs><symbol id="gB4F0D25B5DE46FE4884AAF0D69A4CE76" overflow="visible"><path d="M 0 0m 1.332 5.805c -0.324 0 -0.81 0.009 -1.161 0.018c -0.054 -0.054 -0.054 -0.243 0 -0.297c 0.63 -0.027 0.783 -0.072 0.783 -0.819v -3.609c 0 -0.747 -0.153 -0.792 -0.783 -0.819c -0.054 -0.054 -0.054 -0.243 0 -0.297c 0.351 0.009 0.837 0.018 1.17 0.018c 0.324 0 0.558 -0.018 1.314 -0.018c 1.791 0 2.268 0.9 2.268 1.674c 0 0.864 -0.603 1.359 -1.386 1.584v 0.018c 0.45 0.225 0.855 0.693 0.855 1.179c 0 0.603 -0.261 1.386 -1.935 1.386c -0.315 0 -0.801 -0.018 -1.125 -0.018Z m 0.387 -2.817h 0.621c 1.233 0 1.746 -0.693 1.746 -1.503c 0 -0.657 -0.252 -1.206 -1.62 -1.206c -0.63 0 -0.747 0.234 -0.747 0.783Z m 0 1.962c 0 0.477 0 0.567 0.783 0.567c 0.504 0 1.161 -0.27 1.161 -1.188c 0 -0.765 -0.531 -1.035 -1.278 -1.035h -0.666Z "/></symbol><symbol id="g7384146F98C9D7CC0EAFFF5932A03CB9" overflow="visible"><path d="M 0 0m 1.332 5.805c -0.324 0 -0.801 0.009 -1.161 0.018c -0.054 -0.054 -0.054 -0.243 0 -0.297c 0.63 -0.027 0.783 -0.072 0.783 -0.819v -3.609c 0 -0.747 -0.153 -0.792 -0.783 -0.819c -0.054 -0.054 -0.054 -0.243 0 -0.297c 0.351 0.009 0.828 0.018 1.17 0.018c 0.333 0 0.711 -0.018 1.638 -0.018c 1.269 0 2.943 0.576 2.943 2.79c 0 1.674 -1.377 3.051 -3.105 3.051c -0.639 0 -1.134 -0.018 -1.485 -0.018Z m 0.387 -5.049v 4.32c 0 0.315 0.315 0.441 0.756 0.441c 1.944 0 2.583 -1.575 2.583 -2.961c 0 -1.818 -1.089 -2.268 -2.358 -2.268c -0.882 0 -0.981 0.18 -0.981 0.468Z "/></symbol><symbol id="g68BFE74938DD233F6CD5D0BDE452605" overflow="visible"><path d="M 0 0m 3.015 3.24h 0.855l 0.072 0.477h -0.864l 0.261 1.611h -0.342l -0.252 -1.611h -1.026l 0.27 1.611h -0.342l -0.261 -1.611h -0.837l -0.072 -0.477h 0.837l -0.162 -1.035h -0.846l -0.072 -0.477h 0.837l -0.252 -1.602h 0.333l 0.261 1.602h 1.008l -0.243 -1.602h 0.342l 0.27 1.602h 0.846l 0.063 0.477h -0.855Z m -0.504 -1.035h -1.026l 0.171 1.035h 1.017Z "/></symbol><symbol id="g7864D1617FA3151403FF7A71D5443C9A" overflow="visible"><path d="M 0 0m 2.547 2.907c 0.765 0 0.792 -0.207 0.819 -0.612c 0.054 -0.054 0.243 -0.054 0.297 0c -0.009 0.225 -0.018 0.486 -0.018 0.792c 0 0.306 0.009 0.54 0.018 0.774c -0.054 0.054 -0.243 0.054 -0.297 0c -0.027 -0.495 -0.054 -0.612 -0.819 -0.612h -0.837v 1.62c 0 0.486 0.108 0.576 0.504 0.576h 0.405c 0.954 0 1.179 -0.36 1.377 -0.981c 0.108 0 0.207 0.018 0.279 0.045c -0.045 0.369 -0.18 1.233 -0.198 1.305c 0 0.018 -0.009 0.027 -0.036 0.027c -0.153 -0.027 -0.198 -0.036 -0.423 -0.036h -2.295c -0.288 0 -0.801 0.009 -1.161 0.018c -0.054 -0.054 -0.054 -0.243 0 -0.297c 0.63 -0.027 0.783 -0.072 0.783 -0.819v -3.609c 0 -0.747 -0.153 -0.792 -0.783 -0.819c -0.054 -0.054 -0.054 -0.243 0 -0.297c 0.315 0.009 0.765 0.018 1.17 0.018c 0.405 0 0.846 -0.009 1.161 -0.018c 0.054 0.054 0.054 0.243 0 0.297c -0.63 0.027 -0.783 0.072 -0.783 0.819v 1.809Z "/></symbol><symbol id="g4D0C9DA89102F3D2F0EB8B51B53A45E0" overflow="visible"><path d="M 0 0m 2.664 11.61c -0.648 0 -1.62 0.018 -2.322 0.036c -0.108 -0.108 -0.108 -0.486 0 -0.594c 1.26 -0.054 1.566 -0.144 1.566 -1.638v -7.218c 0 -1.494 -0.306 -1.584 -1.566 -1.638c -0.108 -0.108 -0.108 -0.486 0 -0.594c 0.702 0.018 1.674 0.036 2.34 0.036c 0.648 0 1.116 -0.036 2.628 -0.036c 3.582 0 4.536 1.8 4.536 3.348c 0 1.728 -1.206 2.718 -2.772 3.168v 0.036c 0.9 0.45 1.71 1.386 1.71 2.358c 0 1.206 -0.522 2.772 -3.87 2.772c -0.63 0 -1.602 -0.036 -2.25 -0.036Z m 0.774 -5.634h 1.242c 2.466 0 3.492 -1.386 3.492 -3.006c 0 -1.314 -0.504 -2.412 -3.24 -2.412c -1.26 0 -1.494 0.468 -1.494 1.566Z m 0 3.924c 0 0.954 0 1.134 1.566 1.134c 1.008 0 2.322 -0.54 2.322 -2.376c 0 -1.53 -1.062 -2.07 -2.556 -2.07h -1.332Z "/></symbol></defs></svg>