<svg class="typst-doc" viewBox="0 0 260.19800000000004 124.63600000000001" width="260.19800000000004pt" height="124.63600000000001pt" xmlns="http://www.w3.org/2000/svg" xmlns:xlink="http://www.w3.org/1999/xlink" xmlns:h5="http://www.w3.org/1999/xhtml">
    <path class="typst-shape" fill="#ffffff" fill-rule="nonzero" d="M 0 0v 124.636 h 260.198 v -124.636 Z "/>
    <g>
        <path class="typst-shape" fill="#ffffff" fill-rule="nonzero" d="M 0 0m 0 3 c 0 -1.6568543 1.3431457 -3 3 -3 h 254.198 c 1.6568604 0 3 1.3431457 3 3 v 118.636 c 0 1.6568527 -1.3431396 3 -3 3 h -254.198 c -1.6568543 0 -3 -1.3431473 -3 -3 Z "/>
        <g class="typst-group">
            <g>
                <g class="typst-group" transform="matrix(1 0 0 1 10 10)">
                    <g>
                        <g class="typst-group" transform="matrix(1 0 0 1 2.7509999999999994 5.600000000000004)">
                            <g>
                                <path class="typst-shape" fill="#dddddd" fill-rule="nonzero" transform="matrix(1 0 0 1 -2 -3)" d="M 0 0m 0 2 c 0 -1.1045694 0.8954305 -2 2 -2 h 7.3079996 c 1.1045694 0 2 0.8954305 2 2 v 10.4 c 0 1.1045694 -0.89543056 2 -2 2 h -7.3079996 c -1.1045694 0 -2 -0.89543056 -2 -2 Z "/>
                                <g class="typst-text" transform="matrix(1 0 0 -1 0 8.4)">
                                    <use xlink:href="#g5FB7C0A34E04713568E90488644C7225" x="0" y="0" fill="#000000" fill-rule="nonzero"/>
                                </g>
                            </g>
                        </g>
                        <g class="typst-group" transform="matrix(1 0 0 1 0 19.6)">
                            <g>
                                <g class="typst-text" transform="matrix(1 0 0 -1 0 9.212)">
                                    <use xlink:href="#gD9FAE7403FCA090456F60A53E9F62FC4" x="0" y="0" fill="#000000" fill-rule="nonzero"/>
                                    <use xlink:href="#gEB36B5C9478715713D4DFC21F7496781" x="4.508" y="0" fill="#000000" fill-rule="nonzero"/>
                                    <use xlink:href="#g4CF1DFA8FA473547AC0572436AFCE30D" x="8.302" y="0" fill="#000000" fill-rule="nonzero"/>
                                    <use xlink:href="#g994557CC1BA5B6B7CCEE9751BE601570" x="15.89" y="0" fill="#000000" fill-rule="nonzero"/>
                                    <use xlink:href="#g85B61E06CCCBA0207CF4B4DAD9876CC8" x="22.89" y="0" fill="#000000" fill-rule="nonzero"/>
                                    <use xlink:href="#gE57343E4FF5D4C244D49F92ACE7DBA64" x="26.586000000000002" y="0" fill="#000000" fill-rule="nonzero"/>
                                </g>
                            </g>
                        </g>
                    </g>
                </g>
                <g class="typst-text" transform="matrix(1 0 0 -1 42.844 38.812)">
                    <use xlink:href="#g27D4DBA8689C8DA70D51D00E5817FAA2" x="3.5" y="0" fill="#000000" fill-rule="nonzero"/>
                    <use xlink:href="#gE57343E4FF5D4C244D49F92ACE7DBA64" x="10.542000000000002" y="0" fill="#000000" fill-rule="nonzero"/>
                    <use xlink:href="#g85B61E06CCCBA0207CF4B4DAD9876CC8" x="16.8" y="0" fill="#000000" fill-rule="nonzero"/>
                    <use xlink:href="#g85B61E06CCCBA0207CF4B4DAD9876CC8" x="20.496000000000002" y="0" fill="#000000" fill-rule="nonzero"/>
                    <use xlink:href="#g34A53C7084DEE68605990A1302ED807A" x="24.192000000000004" y="0" fill="#000000" fill-rule="nonzero"/>
                    <use xlink:href="#gB5742B5D13F99550ECD71A4A9C1BC25B" x="29.652000000000005" y="0" fill="#000000" fill-rule="nonzero"/>
                    <use xlink:href="#gCCE439A5BC58B03A318AF3C8C384A1D9" x="36.232000000000006" y="0" fill="#000000" fill-rule="nonzero"/>
                    <use xlink:href="#gEB36B5C9478715713D4DFC21F7496781" x="40.040000000000006" y="0" fill="#000000" fill-rule="nonzero"/>
                    <use xlink:href="#g4CF1DFA8FA473547AC0572436AFCE30D" x="43.834" y="0" fill="#000000" fill-rule="nonzero"/>
                    <use xlink:href="#g994557CC1BA5B6B7CCEE9751BE601570" x="51.422000000000004" y="0" fill="#000000" fill-rule="nonzero"/>
                    <use xlink:href="#g85B61E06CCCBA0207CF4B4DAD9876CC8" x="58.422000000000004" y="0" fill="#000000" fill-rule="nonzero"/>
                    <use xlink:href="#gE57343E4FF5D4C244D49F92ACE7DBA64" x="62.118" y="0" fill="#000000" fill-rule="nonzero"/>
                    <use xlink:href="#g27D4DBA8689C8DA70D51D00E5817FAA2" x="71.876" y="0" fill="#000000" fill-rule="nonzero"/>
                    <use xlink:href="#gE57343E4FF5D4C244D49F92ACE7DBA64" x="78.918" y="0" fill="#000000" fill-rule="nonzero"/>
                    <use xlink:href="#g85B61E06CCCBA0207CF4B4DAD9876CC8" x="85.176" y="0" fill="#000000" fill-rule="nonzero"/>
                    <use xlink:href="#g85B61E06CCCBA0207CF4B4DAD9876CC8" x="88.872" y="0" fill="#000000" fill-rule="nonzero"/>
                    <use xlink:href="#g34A53C7084DEE68605990A1302ED807A" x="92.568" y="0" fill="#000000" fill-rule="nonzero"/>
                    <use xlink:href="#gB5742B5D13F99550ECD71A4A9C1BC25B" x="98.02799999999999" y="0" fill="#000000" fill-rule="nonzero"/>
                    <use xlink:href="#gCCE439A5BC58B03A318AF3C8C384A1D9" x="104.60799999999999" y="0" fill="#000000" fill-rule="nonzero"/>
                    <use xlink:href="#gEB36B5C9478715713D4DFC21F7496781" x="108.416" y="0" fill="#000000" fill-rule="nonzero"/>
                    <use xlink:href="#g4CF1DFA8FA473547AC0572436AFCE30D" x="112.21" y="0" fill="#000000" fill-rule="nonzero"/>
                    <use xlink:href="#g994557CC1BA5B6B7CCEE9751BE601570" x="119.79799999999999" y="0" fill="#000000" fill-rule="nonzero"/>
                    <use xlink:href="#g85B61E06CCCBA0207CF4B4DAD9876CC8" x="126.79799999999999" y="0" fill="#000000" fill-rule="nonzero"/>
                    <use xlink:href="#gE57343E4FF5D4C244D49F92ACE7DBA64" x="130.494" y="0" fill="#000000" fill-rule="nonzero"/>
                </g>
                <g class="typst-group" transform="matrix(1 0 0 1 183.09600000000003 10)">
                    <g>
                        <g class="typst-group" transform="matrix(1 0 0 1 3.5410000000000004 5.600000000000004)">
                            <g>
                                <path class="typst-shape" fill="#dddddd" fill-rule="nonzero" transform="matrix(1 0 0 1 -2 -3)" d="M 0 0m 0 2 c 0 -1.1045694 0.8954305 -2 2 -2 h 6.708 c 1.1045694 0 2 0.8954305 2 2 v 10.4 c 0 1.1045694 -0.89543056 2 -2 2 h -6.708 c -1.1045694 0 -2 -0.89543056 -2 -2 Z "/>
                                <g class="typst-text" transform="matrix(1 0 0 -1 0 8.4)">
                                    <use xlink:href="#g14DB9764FDC1CB1F83882B02BE93BE5E" x="0" y="0" fill="#000000" fill-rule="nonzero"/>
                                </g>
                            </g>
                        </g>
                        <g class="typst-group" transform="matrix(1 0 0 1 0 19.6)">
                            <g>
                                <g class="typst-text" transform="matrix(1 0 0 -1 0 9.212)">
                                    <use xlink:href="#gCB9D9F237DD6DF647A726141F2CED1E0" x="0" y="0" fill="#000000" fill-rule="nonzero"/>
                                    <use xlink:href="#g85B61E06CCCBA0207CF4B4DAD9876CC8" x="6.398000000000001" y="0" fill="#000000" fill-rule="nonzero"/>
                                    <use xlink:href="#g85B61E06CCCBA0207CF4B4DAD9876CC8" x="10.094000000000001" y="0" fill="#000000" fill-rule="nonzero"/>
                                </g>
                            </g>
                        </g>
                    </g>
                </g>
                <g class="typst-text" transform="matrix(1 0 0 -1 196.88600000000002 38.812)">
                    <use xlink:href="#g5A424BBB240C27453CF500787762CF85" x="3.5" y="0" fill="#000000" fill-rule="nonzero"/>
                    <use xlink:href="#g3DBDBAE26E1943631F55BDBC4ABF228D" x="7.9239999999999995" y="0" fill="#000000" fill-rule="nonzero"/>
                    <use xlink:href="#gE57343E4FF5D4C244D49F92ACE7DBA64" x="15.456" y="0" fill="#000000" fill-rule="nonzero"/>
                </g>
                <g class="typst-group" transform="matrix(1 0 0 1 222.10000000000002 10)">
                    <g>
                        <g class="typst-group" transform="matrix(1 0 0 1 10.002999999999998 5.600000000000004)">
                            <g>
                                <path class="typst-shape" fill="#dddddd" fill-rule="nonzero" transform="matrix(1 0 0 1 -2 -3)" d="M 0 0m 0 2 c 0 -1.1045694 0.8954305 -2 2 -2 h 7.3079996 c 1.1045694 0 2 0.8954305 2 2 v 10.4 c 0 1.1045694 -0.89543056 2 -2 2 h -7.3079996 c -1.1045694 0 -2 -0.89543056 -2 -2 Z "/>
                                <g class="typst-text" transform="matrix(1 0 0 -1 0 8.4)">
                                    <use xlink:href="#g5FB7C0A34E04713568E90488644C7225" x="0" y="0" fill="#000000" fill-rule="nonzero"/>
                                </g>
                            </g>
                        </g>
                        <g class="typst-group" transform="matrix(1 0 0 1 0 19.6)">
                            <g>
                                <g class="typst-text" transform="matrix(1 0 0 -1 0 9.212)">
                                    <use xlink:href="#gE91EC90966B5517D6547514FE453AC7F" x="0" y="0" fill="#000000" fill-rule="nonzero"/>
                                    <use xlink:href="#gCB9D9F237DD6DF647A726141F2CED1E0" x="10.458" y="0" fill="#000000" fill-rule="nonzero"/>
                                    <use xlink:href="#g5A95329DCCD271AAA12B18E1C2F32158" x="16.856" y="0" fill="#000000" fill-rule="nonzero"/>
                                    <use xlink:href="#gD7A888F32C4860B7A6826824980F29A4" x="24.066000000000003" y="0" fill="#000000" fill-rule="nonzero"/>
                                </g>
                            </g>
                        </g>
                    </g>
                </g>
            </g>
        </g>
        <g class="typst-group">
            <g>
                <g class="typst-group" transform="matrix(1 0 0 1 10 47.912000000000006)">
                    <g>
                        <g class="typst-group" transform="matrix(1 0 0 1 5.3260000000000005 5.600000000000004)">
                            <g>
                                <path class="typst-shape" fill="#dddddd" fill-rule="nonzero" transform="matrix(1 0 0 1 -2 -3)" d="M 0 0m 0 2 c 0 -1.1045694 0.8954305 -2 2 -2 h 6.708 c 1.1045694 0 2 0.8954305 2 2 v 10.4 c 0 1.1045694 -0.89543056 2 -2 2 h -6.708 c -1.1045694 0 -2 -0.89543056 -2 -2 Z "/>
                                <g class="typst-text" transform="matrix(1 0 0 -1 0 8.4)">
                                    <use xlink:href="#g14DB9764FDC1CB1F83882B02BE93BE5E" x="0" y="0" fill="#000000" fill-rule="nonzero"/>
                                </g>
                            </g>
                        </g>
                        <g class="typst-group" transform="matrix(1 0 0 1 0 19.6)">
                            <g>
                                <g class="typst-text" transform="matrix(1 0 0 -1 0 9.212)">
                                    <use xlink:href="#g5317C1EE47E25478CB6DBB60BD3D3AF4" x="0" y="0" fill="#000000" fill-rule="nonzero"/>
                                    <use xlink:href="#g3DBDBAE26E1943631F55BDBC4ABF228D" x="9.828" y="0" fill="#000000" fill-rule="nonzero"/>
                                </g>
                            </g>
                        </g>
                    </g>
                </g>
                <g class="typst-text" transform="matrix(1 0 0 -1 27.360000000000003 76.724)">
                    <use xlink:href="#gE91EC90966B5517D6547514FE453AC7F" x="3.5" y="0" fill="#000000" fill-rule="nonzero"/>
                    <use xlink:href="#g3DBDBAE26E1943631F55BDBC4ABF228D" x="13.958" y="0" fill="#000000" fill-rule="nonzero"/>
                    <use xlink:href="#gCB9D9F237DD6DF647A726141F2CED1E0" x="21.490000000000002" y="0" fill="#000000" fill-rule="nonzero"/>
                    <use xlink:href="#g5A424BBB240C27453CF500787762CF85" x="27.888" y="0" fill="#000000" fill-rule="nonzero"/>
                    <use xlink:href="#g76A44D2137EA678686DCE78D5252F39C" x="35.812" y="0" fill="#000000" fill-rule="nonzero"/>
                    <use xlink:href="#g7D1E4A558FA26F237C51948BC39481FC" x="40.152" y="0" fill="#000000" fill-rule="nonzero"/>
                    <use xlink:href="#g4CF1DFA8FA473547AC0572436AFCE30D" x="47.586" y="0" fill="#000000" fill-rule="nonzero"/>
                    <use xlink:href="#gEB36B5C9478715713D4DFC21F7496781" x="58.674" y="0" fill="#000000" fill-rule="nonzero"/>
                    <use xlink:href="#g5A424BBB240C27453CF500787762CF85" x="62.467999999999996" y="0" fill="#000000" fill-rule="nonzero"/>
                </g>
                <g class="typst-group" transform="matrix(1 0 0 1 97.75200000000001 47.912000000000006)">
                    <g>
                        <g class="typst-group" transform="matrix(1 0 0 1 0.9730000000000002 5.600000000000004)">
                            <g>
                                <path class="typst-shape" fill="#dddddd" fill-rule="nonzero" transform="matrix(1 0 0 1 -2 -3)" d="M 0 0m 0 2 c 0 -1.1045694 0.8954305 -2 2 -2 h 7.3079996 c 1.1045694 0 2 0.8954305 2 2 v 10.4 c 0 1.1045694 -0.89543056 2 -2 2 h -7.3079996 c -1.1045694 0 -2 -0.89543056 -2 -2 Z "/>
                                <g class="typst-text" transform="matrix(1 0 0 -1 0 8.4)">
                                    <use xlink:href="#g5FB7C0A34E04713568E90488644C7225" x="0" y="0" fill="#000000" fill-rule="nonzero"/>
                                </g>
                            </g>
                        </g>
                        <g class="typst-group" transform="matrix(1 0 0 1 0 19.6)">
                            <g>
                                <g class="typst-text" transform="matrix(1 0 0 -1 0 9.212)">
                                    <use xlink:href="#gEB36B5C9478715713D4DFC21F7496781" x="0" y="0" fill="#000000" fill-rule="nonzero"/>
                                    <use xlink:href="#g34A53C7084DEE68605990A1302ED807A" x="3.794" y="0" fill="#000000" fill-rule="nonzero"/>
                                </g>
                            </g>
                        </g>
                    </g>
                </g>
                <g class="typst-text" transform="matrix(1 0 0 -1 107.006 76.724)">
                    <use xlink:href="#g5A424BBB240C27453CF500787762CF85" x="3.5" y="0" fill="#000000" fill-rule="nonzero"/>
                    <use xlink:href="#g1955600FC019B04555B11C53CEC6B709" x="7.9239999999999995" y="0" fill="#000000" fill-rule="nonzero"/>
                    <use xlink:href="#g95D782CB9BEB6A87C344C83565719F88" x="18.48" y="0" fill="#000000" fill-rule="nonzero"/>
                    <use xlink:href="#gEB36B5C9478715713D4DFC21F7496781" x="23.688" y="0" fill="#000000" fill-rule="nonzero"/>
                    <use xlink:href="#gAEDF10442E3A85001433F5A3522B0018" x="27.482" y="0" fill="#000000" fill-rule="nonzero"/>
                    <use xlink:href="#gE57343E4FF5D4C244D49F92ACE7DBA64" x="34.566" y="0" fill="#000000" fill-rule="nonzero"/>
                </g>
            </g>
        </g>
        <g class="typst-group">
            <g>
                <g class="typst-text" transform="matrix(1 0 0 -1 10 114.63600000000001)">
                    <use xlink:href="#gE3B4E35ADC3A4F8DD4B306A26BC478DC" x="0" y="0" fill="#000000" fill-rule="nonzero"/>
                    <use xlink:href="#g4CF1DFA8FA473547AC0572436AFCE30D" x="4.158" y="0" fill="#000000" fill-rule="nonzero"/>
                    <use xlink:href="#gCB9D9F237DD6DF647A726141F2CED1E0" x="15.246" y="0" fill="#000000" fill-rule="nonzero"/>
                </g>
                <g class="typst-group" transform="matrix(1 0 0 1 35.144000000000005 85.82400000000001)">
                    <g>
                        <g class="typst-group" transform="matrix(1 0 0 1 7.220000000000001 5.600000000000004)">
                            <g>
                                <path class="typst-shape" fill="#dddddd" fill-rule="nonzero" transform="matrix(1 0 0 1 -2 -3)" d="M 0 0m 0 2 c 0 -1.1045694 0.8954305 -2 2 -2 h 14.063999 c 1.1045704 0 2 0.8954305 2 2 v 10.4 c 0 1.1045694 -0.8954296 2 -2 2 h -14.063999 c -1.1045694 0 -2 -0.89543056 -2 -2 Z "/>
                                <g class="typst-text" transform="matrix(1 0 0 -1 0 8.4)">
                                    <use xlink:href="#g6FC9143BF778688D159691F9F40C25E" x="0" y="0" fill="#000000" fill-rule="nonzero"/>
                                    <use xlink:href="#gFE86910F24A45CCCC0A33767925946DD" x="7.26" y="0" fill="#000000" fill-rule="nonzero"/>
                                </g>
                            </g>
                        </g>
                        <g class="typst-group" transform="matrix(1 0 0 1 0 19.6)">
                            <g>
                                <g class="typst-text" transform="matrix(1 0 0 -1 0 9.212)">
                                    <use xlink:href="#g1955600FC019B04555B11C53CEC6B709" x="0" y="0" fill="#000000" fill-rule="nonzero"/>
                                    <use xlink:href="#g4CF1DFA8FA473547AC0572436AFCE30D" x="7.056" y="0" fill="#000000" fill-rule="nonzero"/>
                                    <use xlink:href="#gE57343E4FF5D4C244D49F92ACE7DBA64" x="14.644" y="0" fill="#000000" fill-rule="nonzero"/>
                                    <use xlink:href="#gD3FDE0C49EF3C021D6CD6EEF6D944579" x="20.902" y="0" fill="#000000" fill-rule="nonzero"/>
                                    <use xlink:href="#g3DBDBAE26E1943631F55BDBC4ABF228D" x="25.634" y="0" fill="#000000" fill-rule="nonzero"/>
                                    <use xlink:href="#g1955600FC019B04555B11C53CEC6B709" x="33.166000000000004" y="0" fill="#000000" fill-rule="nonzero"/>
                                    <use xlink:href="#g95D782CB9BEB6A87C344C83565719F88" x="40.222" y="0" fill="#000000" fill-rule="nonzero"/>
                                    <use xlink:href="#g34A53C7084DEE68605990A1302ED807A" x="45.43" y="0" fill="#000000" fill-rule="nonzero"/>
                                    <use xlink:href="#gE57343E4FF5D4C244D49F92ACE7DBA64" x="50.89" y="0" fill="#000000" fill-rule="nonzero"/>
                                </g>
                            </g>
                        </g>
                    </g>
                </g>
                <g class="typst-text" transform="matrix(1 0 0 -1 92.292 114.63600000000001)">
                    <use xlink:href="#g1955600FC019B04555B11C53CEC6B709" x="3.5" y="0" fill="#000000" fill-rule="nonzero"/>
                    <use xlink:href="#gE8175B1F4F28998B5205795E0DDFC8B5" x="10.556000000000001" y="0" fill="#000000" fill-rule="nonzero"/>
                    <use xlink:href="#gE57343E4FF5D4C244D49F92ACE7DBA64" x="17.92" y="0" fill="#000000" fill-rule="nonzero"/>
                    <use xlink:href="#g4CF1DFA8FA473547AC0572436AFCE30D" x="24.178" y="0" fill="#000000" fill-rule="nonzero"/>
                </g>
                <g class="typst-group" transform="matrix(1 0 0 1 127.55800000000002 85.82400000000001)">
                    <g>
                        <g class="typst-group" transform="matrix(1 0 0 1 8.403 5.600000000000004)">
                            <g>
                                <path class="typst-shape" fill="#dddddd" fill-rule="nonzero" transform="matrix(1 0 0 1 -2 -3)" d="M 0 0m 0 2 c 0 -1.1045694 0.8954305 -2 2 -2 h 14.568001 c 1.1045685 0 2 0.8954305 2 2 v 10.4 c 0 1.1045694 -0.8954315 2 -2 2 h -14.568001 c -1.1045694 0 -2 -0.89543056 -2 -2 Z "/>
                                <g class="typst-text" transform="matrix(1 0 0 -1 0 8.4)">
                                    <use xlink:href="#g281E115BD15E57A63684E30E876768D2" x="0" y="0" fill="#000000" fill-rule="nonzero"/>
                                    <use xlink:href="#gFE86910F24A45CCCC0A33767925946DD" x="7.764" y="0" fill="#000000" fill-rule="nonzero"/>
                                </g>
                            </g>
                        </g>
                        <g class="typst-group" transform="matrix(1 0 0 1 0 19.6)">
                            <g>
                                <g class="typst-text" transform="matrix(1 0 0 -1 0 9.212)">
                                    <use xlink:href="#g34A53C7084DEE68605990A1302ED807A" x="0" y="0" fill="#000000" fill-rule="nonzero"/>
                                    <use xlink:href="#g85B61E06CCCBA0207CF4B4DAD9876CC8" x="5.460000000000001" y="0" fill="#000000" fill-rule="nonzero"/>
                                    <use xlink:href="#gE57343E4FF5D4C244D49F92ACE7DBA64" x="9.156" y="0" fill="#000000" fill-rule="nonzero"/>
                                    <use xlink:href="#gEB36B5C9478715713D4DFC21F7496781" x="15.414000000000001" y="0" fill="#000000" fill-rule="nonzero"/>
                                    <use xlink:href="#g994557CC1BA5B6B7CCEE9751BE601570" x="19.208000000000002" y="0" fill="#000000" fill-rule="nonzero"/>
                                    <use xlink:href="#g3DBDBAE26E1943631F55BDBC4ABF228D" x="26.208000000000002" y="0" fill="#000000" fill-rule="nonzero"/>
                                    <use xlink:href="#gB5742B5D13F99550ECD71A4A9C1BC25B" x="33.74" y="0" fill="#000000" fill-rule="nonzero"/>
                                </g>
                            </g>
                        </g>
                    </g>
                </g>
                <g class="typst-text" transform="matrix(1 0 0 -1 164.37800000000001 114.63600000000001)">
                    <use xlink:href="#g3DBDBAE26E1943631F55BDBC4ABF228D" x="3.5" y="0" fill="#000000" fill-rule="nonzero"/>
                    <use xlink:href="#gE57343E4FF5D4C244D49F92ACE7DBA64" x="11.032" y="0" fill="#000000" fill-rule="nonzero"/>
                    <use xlink:href="#g5A95329DCCD271AAA12B18E1C2F32158" x="17.192" y="0" fill="#000000" fill-rule="nonzero"/>
                    <use xlink:href="#gD7A888F32C4860B7A6826824980F29A4" x="24.402" y="0" fill="#000000" fill-rule="nonzero"/>
                </g>
            </g>
        </g>
    </g>
    <defs id="glyph">
        <symbol id="g5FB7C0A34E04713568E90488644C7225" overflow="visible">
            <path d="M 0 0m 3.684 4.38 h 3.132 v -3.7440002 q -0.5039997 -0.41999996 -1.2059999 -0.612 q -0.70200014 -0.192 -1.3860002 -0.192 q -0.8039999 0 -1.494 0.252 q -0.69000006 0.252 -1.194 0.786 q -0.50399995 0.53400004 -0.792 1.3620001 q -0.28800002 0.82799983 -0.28800002 1.9679997 q 0 1.1880002 0.34199998 2.0220003 q 0.342 0.8340001 0.9000001 1.356 q 0.55799997 0.5220003 1.2540001 0.75599957 q 0.69599986 0.2340002 1.4159999 0.2340002 q 0.7199998 0 1.2659998 -0.1079998 q 0.546 -0.1079998 0.87000036 -0.22799969 l -0.33599997 -1.3800001 q -0.3000002 0.119999886 -0.6720004 0.18599987 q -0.37199974 0.065999985 -0.94799995 0.065999985 q -0.5159998 0 -0.9479997 -0.15600014 q -0.43200016 -0.15599966 -0.75 -0.50999975 q -0.31800008 -0.3540001 -0.4920001 -0.90600014 q -0.17400002 -0.55200005 -0.17400002 -1.3439999 q 0 -0.7560003 0.16799998 -1.3020003 q 0.16799998 -0.546 0.46799994 -0.89999986 q 0.3000002 -0.3540001 0.70200014 -0.5220001 q 0.40199995 -0.16799998 0.85800004 -0.16799998 q 0.3119998 0 0.612 0.07799995 q 0.2999997 0.07800007 0.5039997 0.23400009 v 1.5839999 l -1.8119998 0.19200015 v 0.99600005 Z "/>
        </symbol>
        <symbol id="gD9FAE7403FCA090456F60A53E9F62FC4" overflow="visible">
            <path d="M 0 0m 3.164 7.322 c 0 1.1620002 0.23800015 1.2319999 1.0780001 1.2740006 c 0.08400011 0.083999634 0.08400011 0.3779993 0 0.4619999 c -0.53200006 -0.013999939 -1.1340001 -0.027999878 -1.6800001 -0.027999878 c -0.50399995 0 -1.246 0.013999939 -1.9460001 0.027999878 c -0.08399999 -0.08400059 -0.08399999 -0.37800026 0 -0.4619999 c 1.1200001 -0.04200077 1.358 -0.112000465 1.358 -1.2740006 v -6.1879997 c 0 -2.52 -0.72800004 -2.9120002 -1.19 -2.9120002 c -0.26600003 0 -0.46200004 0.16799998 -0.56000006 0.3779999 c -0.08400001 0.1680001 -0.21000001 0.35000002 -0.56000006 0.35000002 c -0.19599998 0 -0.616 -0.29400003 -0.616 -0.602 c 0 -0.50400007 0.742 -0.7559999 1.0500001 -0.7559999 c 0.63000005 0 1.064 0.11199999 1.638 0.6019999 c 0.61599994 0.5180001 1.428 1.246 1.428 3.2480001 Z "/>
        </symbol>
        <symbol id="gEB36B5C9478715713D4DFC21F7496781" overflow="visible">
            <path d="M 0 0m 2.5340002 1.7080001 v 2.7859998 c 0 0.7000003 0.055999994 1.5960002 0.055999994 1.5960002 c 0 0.056000233 -0.07000017 0.09800005 -0.18200016 0.09800005 c -0.39199996 -0.1539998 -0.9519999 -0.2800002 -1.918 -0.40600014 c -0.027999997 -0.08400011 0 -0.3080001 0.027999997 -0.39199972 c 0.77 -0.07000017 0.9100001 -0.15400028 0.9100001 -0.95200014 v -2.73 c 0 -1.1620001 -0.15400004 -1.204 -1.0080001 -1.274 c -0.08399999 -0.08399999 -0.08399999 -0.37800002 0 -0.462 c 0.462 0.014 1.0080001 0.028 1.5680001 0.028 c 0.56000006 0 1.0920001 -0.014 1.554 -0.028 c 0.08400011 0.08400001 0.08400011 0.37800002 0 0.462 c -0.85399985 0.055999994 -1.0079999 0.11199999 -1.0079999 1.274 Z m -1.2740002 6.6780005 c 0 -0.36400032 0.33600008 -0.72800016 0.67200005 -0.72800016 c 0.39200008 0 0.72800004 0.37799978 0.72800004 0.67199945 c 0 0.33600044 -0.2939999 0.72800064 -0.67200005 0.72800064 c -0.33599997 0 -0.72800004 -0.33600044 -0.72800004 -0.67199993 Z "/>
        </symbol>
        <symbol id="g4CF1DFA8FA473547AC0572436AFCE30D" overflow="visible">
            <path d="M 0 0m 2.576 5.012 c -0.08399987 -0.09800005 -0.16799998 -0.12599993 -0.16799998 0 c -0.013999939 0.37800026 -0.041999817 0.92400026 -0.11199999 1.0640001 c -0.027999878 0.07000017 -0.055999994 0.11199999 -0.16799998 0.11199999 c -0.39199996 -0.1539998 -0.7559999 -0.2800002 -1.722 -0.40600014 c -0.027999997 -0.08400011 0 -0.3080001 0.027999997 -0.39199972 c 0.75600004 -0.07000017 0.9100001 -0.14000034 0.9100001 -0.95200014 v -2.73 c 0 -1.148 -0.1400001 -1.204 -0.9800001 -1.274 c -0.08400002 -0.08399999 -0.08400002 -0.37800002 0 -0.462 c 0.42000002 0.014 0.9800001 0.028 1.54 0.028 c 0.55999994 0 0.98 -0.014 1.4000001 -0.028 c 0.08399987 0.08400001 0.08399987 0.37800002 0 0.462 c -0.714 0.06999999 -0.8540001 0.12599999 -0.8540001 1.274 v 2.296 c 0 0.29400015 0.12599993 0.4619999 0.23800015 0.5879998 c 0.5319998 0.5180001 1.162 0.8260002 1.7079997 0.8260002 c 0.2800002 0 0.57400036 -0.18200016 0.7420001 -0.5040002 c 0.14000034 -0.27999973 0.16800022 -0.658 0.16800022 -1.0779998 v -2.1280003 c 0 -1.148 -0.13999987 -1.204 -0.86800003 -1.274 c -0.07000017 -0.08399999 -0.07000017 -0.37800002 0 -0.462 c 0.42000008 0.014 0.86800003 0.028 1.428 0.028 c 0.55999994 0 1.0640001 -0.014 1.4840002 -0.028 c 0.069999695 0.08400001 0.069999695 0.37800002 0 0.462 c -0.7840004 0.06999999 -0.9380002 0.12599999 -0.9380002 1.274 v 2.086 c 0 0.77 -0.055999756 1.4419999 -0.37799978 1.8759999 c -0.2380004 0.3080001 -0.6720004 0.4760003 -1.1620002 0.4760003 c -0.6859999 0 -1.47 -0.18200016 -2.2960002 -1.1340003 Z "/>
        </symbol>
        <symbol id="g994557CC1BA5B6B7CCEE9751BE601570" overflow="visible">
            <path d="M 0 0m 6.216 5.418 c 0.26600027 0 0.5180001 0.25199986 0.5180001 0.53200006 c 0 0.29399967 -0.2659998 0.5180001 -0.64400005 0.5180001 c -0.36399984 0 -1.0359998 -0.2380004 -1.4000001 -0.7140002 c -0.16799974 0.11199999 -0.6300001 0.3920002 -1.4559999 0.3920002 c -1.2460002 0 -2.394 -0.84000015 -2.394 -2.1280003 c 0 -0.75600004 0.33599997 -1.19 0.72800004 -1.5680001 c -0.39200008 -0.33599997 -0.61600006 -0.93799996 -0.61600006 -1.414 c 0 -0.504 0.27999997 -0.896 0.64400005 -1.0780001 c -0.75600004 -0.448 -1.148 -1.092 -1.148 -1.694 c 0 -1.2179999 1.148 -1.596 2.226 -1.596 c 1.8900001 0 3.9340003 0.90999985 3.9340003 2.422 c 0 0.448 -0.21000004 0.79800004 -0.6160002 1.1340001 c -0.546 0.44800004 -1.526 0.46200004 -2.044 0.46200004 c -0.2520001 0 -0.602 -0.028000057 -0.9380002 -0.07000005 c -0.2099998 -0.013999999 -0.3499999 -0.027999997 -0.41999984 -0.027999997 c -0.40600014 0 -0.89600015 0.19600004 -0.89600015 0.79800004 c 0 0.27999997 0.08399999 0.574 0.2520001 0.8119999 c 0.33599997 -0.19599986 0.7279999 -0.2939999 1.2739999 -0.2939999 c 1.2320001 0 2.366 0.77 2.366 2.142 c 0 0.658 -0.19599962 1.0360003 -0.60199976 1.4560003 c 0.09800005 0.13999987 0.37799978 0.33599997 0.55999994 0.33599997 c 0.09800005 0 0.1960001 -0.042000294 0.2800002 -0.16800022 c 0.055999756 -0.11199999 0.23799992 -0.25199986 0.39199972 -0.25199986 Z m -4.368 -5.558 c 0.15400004 -0.04200001 0.37800002 -0.07000001 0.55999994 -0.07000001 c 0.43400002 0 0.8260002 0.041999996 1.0220001 0.041999996 c 0.70000005 0 1.2879999 -0.013999999 1.694 -0.238 c 0.546 -0.30800003 0.7140002 -0.504 0.7140002 -0.86800003 c 0 -1.008 -1.4840002 -1.5400001 -2.7440002 -1.5400001 c -0.50399995 0 -1.6800001 0.40600014 -1.6800001 1.358 c 0 0.47600007 0.027999997 0.8260001 0.43400002 1.3160001 Z m 2.618 4.046 c 0 -1.302 -0.658 -1.5680001 -1.1759999 -1.5680001 c -1.1760001 0 -1.3020002 0.99399996 -1.3020002 1.8900001 c 0 0.98 0.35000002 1.4840002 1.12 1.4840002 c 0.88199997 0 1.358 -0.64400005 1.358 -1.8060002 Z "/>
        </symbol>
        <symbol id="g85B61E06CCCBA0207CF4B4DAD9876CC8" overflow="visible">
            <path d="M 0 0m 1.33 1.7080001 c 0 -1.1620001 -0.15400004 -1.2320001 -1.008 -1.274 c -0.08399999 -0.08399999 -0.08399999 -0.37800002 0 -0.462 c 0.49000004 0.014 1.008 0.028 1.5680001 0.028 c 0.55999994 0 1.092 -0.014 1.5539999 -0.028 c 0.08400011 0.08400001 0.08400011 0.37800002 0 0.462 c -0.85399985 0.041999996 -1.0079999 0.11199999 -1.0079999 1.274 v 6.4540005 c 0 0.90999985 0.055999994 1.4699993 0.055999994 1.4699993 c 0 0.09800053 -0.055999994 0.14000034 -0.18199992 0.14000034 c -0.35000014 -0.14000034 -1.4000001 -0.33600044 -1.9600002 -0.37800026 c -0.028000027 -0.11199951 0 -0.3359995 0.08399999 -0.42000008 c 0.81200004 -0.055999756 0.896 -0.09799957 0.896 -1.1479998 Z "/>
        </symbol>
        <symbol id="gE57343E4FF5D4C244D49F92ACE7DBA64" overflow="visible">
            <path d="M 0 0m 5.4040003 1.302 c -0.5180001 -0.532 -0.92400026 -0.75600004 -1.7360001 -0.75600004 c -0.5040002 0 -1.0920002 0.29400003 -1.5260003 1.008 c -0.27999985 0.462 -0.44799995 1.1060001 -0.44799995 1.9180001 l 3.7240002 -0.028000116 c 0.16799974 0 0.2659998 0.08400011 0.2659998 0.23800015 c 0 1.1760001 -0.42000008 2.4359999 -2.366 2.4359999 c -1.2179999 0 -2.8000002 -1.1619997 -2.8000002 -3.29 c 0 -0.7839999 0.19600004 -1.5400001 0.658 -2.072 c 0.47600007 -0.56000006 1.1340002 -0.896 2.1420002 -0.896 c 1.0639999 0 1.8199999 0.49 2.3799999 1.218 c -0.041999817 0.13999999 -0.12599993 0.20999992 -0.29399967 0.22399998 Z m -3.6680002 2.6460001 c 0.26600003 1.582 1.246 1.708 1.582 1.708 c 0.53200006 0 1.162 -0.29400015 1.162 -1.4699998 c 0 -0.1260004 -0.055999756 -0.19600034 -0.21000004 -0.19600034 Z "/>
        </symbol>
        <symbol id="g27D4DBA8689C8DA70D51D00E5817FAA2" overflow="visible">
            <path d="M 0 0m 2.338 5.5160003 c -0.08399987 -0.08400011 -0.1400001 -0.056000233 -0.1400001 0.069999695 v 2.5760007 c 0 0.90999985 0.056000233 1.4699993 0.056000233 1.4699993 c 0 0.09800053 -0.056000233 0.14000034 -0.18200016 0.14000034 c -0.35000002 -0.14000034 -1.4 -0.33600044 -1.96 -0.37800026 c -0.027999997 -0.11199951 0 -0.3359995 0.08400001 -0.42000008 c 0.041999996 0 0.08399999 0 0.12599999 0 c 0.61600006 -0.041999817 0.77 -0.041999817 0.77 -1.1479998 v -6.8320003 c 0 -0.546 -0.013999939 -0.798 -0.055999994 -0.994 c 0.07000005 -0.112 0.13999999 -0.16800001 0.3080001 -0.16800001 c 0.08399999 0.08400001 0.22399998 0.21000001 0.33599997 0.33600003 c 0.13999999 0.16800001 0.22399998 0.16800001 0.37800002 0.041999996 c 0.32200003 -0.266 0.7420001 -0.35000002 1.2320001 -0.35000002 c 1.4279997 0 3.094 1.302 3.094 3.528 c 0 1.7080002 -1.2600002 2.7580004 -2.4780002 2.7580004 c -0.602 0 -1.1340001 -0.2380004 -1.5680001 -0.6300001 Z m 0.09800005 -0.43400002 c 0.36400008 0.32200003 0.7839999 0.44799995 1.19 0.44799995 c 0.85399985 0 1.5540001 -1.0360003 1.5540001 -2.394 c 0 -1.5960001 -0.64400005 -2.8000002 -1.9740002 -2.8000002 c -0.43400002 0 -0.7279999 0.30799997 -1.0080001 0.658 v 3.5 c 0 0.29400015 0.056000233 0.43400002 0.23800015 0.5880003 Z "/>
        </symbol>
        <symbol id="g34A53C7084DEE68605990A1302ED807A" overflow="visible">
            <path d="M 0 0m 0.67200005 1.932 c 0.055999994 -0.686 0.09799999 -1.3440001 0.09799999 -1.932 c 0.13999999 0.028 0.28000003 0.042000003 0.34999996 0.042000003 c 0.09800005 0 0.18200004 0 0.2800001 -0.028000003 c 0.3779999 -0.098000005 0.75600004 -0.154 1.2739999 -0.154 c 0.78400016 0 2.226 0.37800002 2.226 1.764 c 0 0.9519999 -0.6859999 1.5120001 -1.638 1.862 c -0.8399999 0.32200003 -1.4 0.53200006 -1.4 1.302 c 0 0.5739999 0.50400007 0.8959999 0.9799999 0.8959999 c 0.3080001 0 1.1200001 -0.11199999 1.302 -1.302 c 0.08400011 -0.083999634 0.36400032 -0.069999695 0.44799995 0.013999939 c 0.042000294 0.5040002 0.07000017 1.0220003 0.08400011 1.4840002 c -0.43400002 0.07000017 -1.106 0.26600027 -1.8340001 0.26600027 c -1.0359999 0 -1.974 -0.6720004 -1.974 -1.5680003 c 0 -1.0220001 0.462 -1.4560001 1.54 -1.904 c 1.1620002 -0.47600007 1.4280002 -0.77 1.4280002 -1.372 c 0 -0.68600005 -0.67200017 -0.98 -1.19 -0.98 c -0.546 0 -0.8540001 0.18200001 -0.9940001 0.336 c -0.30799997 0.32200003 -0.462 0.9380001 -0.546 1.2880001 c -0.08399999 0.08399987 -0.35000002 0.06999993 -0.43400002 -0.014000058 Z "/>
        </symbol>
        <symbol id="gB5742B5D13F99550ECD71A4A9C1BC25B" overflow="visible">
            <path d="M 0 0m 1.4560001 1.33 c -0.43400002 0 -0.74200004 -0.29400003 -0.74200004 -0.68600005 c 0 -0.434 0.36400002 -0.574 0.616 -0.616 c 0.26600003 -0.028 0.50400007 -0.112 0.50400007 -0.43400002 c 0 -0.29400003 -0.50400007 -0.9380001 -1.2320001 -1.12 c 0 -0.13999999 0.027999997 -0.23800004 0.12600005 -0.33600008 c 0.84000003 0.15400004 1.6520001 0.8260001 1.6520001 1.8060001 c 0 0.84000003 -0.36400008 1.386 -0.924 1.386 Z "/>
        </symbol>
        <symbol id="gCCE439A5BC58B03A318AF3C8C384A1D9" overflow="visible">
            <path d="M 0 0m 1.582 4.438 v -3.374 c 0 -1.848 -0.055999994 -3.5700002 -0.756 -3.5700002 c -0.15399998 0 -0.33600003 0.055999994 -0.43400002 0.15400004 c -0.14000002 0.13999987 -0.30800003 0.36399996 -0.61600006 0.36399996 c -0.15400001 0 -0.44800004 -0.2800001 -0.44800004 -0.53199995 c 0 -0.40600014 0.50400007 -0.602 0.77000004 -0.602 c 0.29400003 0 1.022 0.041999817 1.54 0.47599983 c 0.658 0.53200006 1.0500002 1.5400001 1.0500002 4.1860003 v 2.954 c 0 0.7000003 0.055999994 1.5960002 0.055999994 1.5960002 c 0 0.056000233 -0.07000017 0.09800005 -0.18200016 0.09800005 c -0.39199996 -0.1539998 -0.952 -0.2800002 -1.918 -0.40600014 c -0.027999997 -0.08400011 0 -0.3080001 0.028000057 -0.39199972 c 0.75600004 -0.07000017 0.90999997 -0.15400028 0.90999997 -0.95200014 Z m -0.19599998 3.9480004 c 0 -0.36400032 0.33599997 -0.72800016 0.67200005 -0.72800016 c 0.39199996 0 0.7279999 0.37799978 0.7279999 0.67199945 c 0 0.33600044 -0.2939999 0.72800064 -0.67199993 0.72800064 c -0.33600008 0 -0.72800004 -0.33600044 -0.72800004 -0.67199993 Z "/>
        </symbol>
        <symbol id="g14DB9764FDC1CB1F83882B02BE93BE5E" overflow="visible">
            <path d="M 0 0m 6.408 0.348 q -0.38399982 -0.276 -0.97800016 -0.396 q -0.59399986 -0.12 -1.2179999 -0.12 q -0.7559998 0 -1.4339998 0.234 q -0.6780002 0.23400001 -1.1940001 0.75600004 q -0.51600003 0.52199996 -0.82199997 1.356 q -0.30600002 0.8340001 -0.30600002 2.0219998 q 0 1.2360001 0.34199998 2.0700002 q 0.342 0.8340001 0.888 1.3439999 q 0.5460001 0.50999975 1.218 0.7319999 q 0.67199993 0.22200012 1.3440001 0.22200012 q 0.7199998 0 1.2179999 -0.09599972 q 0.49800014 -0.09599972 0.822 -0.22799969 l -0.32399988 -1.3920002 q -0.27600002 0.13199997 -0.6540003 0.19199991 q -0.37799978 0.059999943 -0.91799974 0.059999943 q -0.99600005 0 -1.6020002 -0.7080002 q -0.60599995 -0.7079997 -0.60599995 -2.196 q 0 -0.64799976 0.14400005 -1.1819997 q 0.14400005 -0.53400016 0.43799996 -0.9120002 q 0.2939999 -0.3779999 0.7320001 -0.58799994 q 0.43799996 -0.21000004 1.0139999 -0.21000004 q 0.53999996 0 0.9120002 0.10800004 q 0.37199974 0.10800004 0.64799976 0.27600002 l 0.33599997 -1.3440001 Z "/>
        </symbol>
        <symbol id="gCB9D9F237DD6DF647A726141F2CED1E0" overflow="visible">
            <path d="M 0 0m 4.102 0.67200005 c 0.08400011 -0.43400005 0.23799992 -0.81200004 0.9379997 -0.81200004 c 0.53200006 0 1.0360003 0.238 1.3300004 0.518 c -0.028000355 0.16799998 -0.08400011 0.29400003 -0.2380004 0.37800002 c -0.09799957 -0.08399999 -0.33599997 -0.22400004 -0.51799965 -0.22400004 c -0.40600014 0 -0.42000008 0.54600006 -0.42000008 1.19 v 2.058 c 0 1.9879999 -1.092 2.3660002 -2.114 2.3660002 c -1.1480001 0 -2.3100002 -0.75600004 -2.3100002 -1.5540004 c 0 -0.33599997 0.16799998 -0.5039997 0.48999995 -0.5039997 c 0.40600002 0 0.6580001 0.29399967 0.6580001 0.47599983 c 0 0.09800005 -0.014000058 0.1960001 -0.042000055 0.25199986 c -0.013999939 0.042000294 -0.027999997 0.1260004 -0.027999997 0.2800002 c 0 0.43400002 0.58800006 0.5879998 1.1200001 0.5879998 c 0.47599983 0 1.1340001 -0.23799992 1.1340001 -1.8199999 c 0 -0.09800005 -0.042000294 -0.15400004 -0.08400011 -0.16799998 l -1.204 -0.2939999 c -1.3440001 -0.3360002 -2.3100002 -1.0780001 -2.3100002 -2.0300002 c 0 -1.1480001 0.784 -1.5120001 1.7640002 -1.5120001 c 0.49 0 0.9100001 0.112 1.526 0.588 l 0.2800002 0.22400004 Z m 0 2.5900002 v -1.848 c 0 -0.18200004 -0.08400011 -0.27999997 -0.1960001 -0.36399996 c -0.36400008 -0.29400003 -0.84000015 -0.61600006 -1.2320001 -0.61600006 c -0.6999999 0 -1.008 0.56 -1.008 0.9940001 c 0 0.63 0.29400003 1.274 1.33 1.5400001 Z "/>
        </symbol>
        <symbol id="g5A424BBB240C27453CF500787762CF85" overflow="visible">
            <path d="M 0 0m 0.602 6.006 c -0.19599998 0 -0.25199997 -0.16799974 -0.25199997 -0.27999973 v -0.18200016 c 0 -0.07000017 0.013999999 -0.08400011 0.06999999 -0.08400011 h 0.82600003 v -4.2139997 c 0 -0.9940001 0.43400002 -1.386 1.0780001 -1.386 c 0.64400005 0 1.3440001 0.30800003 1.8900001 0.924 c -0.027999878 0.13999999 -0.11199999 0.22399998 -0.2520001 0.23800004 c -0.36400008 -0.28000003 -0.7839999 -0.39200008 -1.148 -0.39200008 c -0.37800002 0 -0.46200013 0.42000008 -0.46200013 1.2880001 v 3.5419998 h 1.4560001 c 0.1400001 0 0.33599997 0.056000233 0.33599997 0.18200016 v 0.2800002 c 0 0.055999756 -0.041999817 0.083999634 -0.11199999 0.083999634 h -1.6800001 v 0.546 c 0 0.9100003 0.055999994 1.4700003 0.055999994 1.4700003 c 0 0.083999634 -0.041999817 0.1260004 -0.11199999 0.1260004 c -0.055999994 0 -0.18199992 -0.05600071 -0.30799997 -0.1260004 c -0.15399992 -0.08400011 -0.29400003 -0.15400028 -0.47599995 -0.1960001 c -0.16799998 -0.055999756 -0.3080001 -0.09800005 -0.3080001 -0.1960001 c 0 -0.16799974 0.042000055 -0.069999695 0.042000055 -1.6240001 Z "/>
        </symbol>
        <symbol id="g3DBDBAE26E1943631F55BDBC4ABF228D" overflow="visible">
            <path d="M 0 0m 2.338 4.004 c 0 0.29400015 0.12599993 0.4619999 0.23799992 0.5879998 c 0.53200006 0.5180001 1.246 0.8260002 1.792 0.8260002 c 0.2800002 0 0.57400036 -0.18200016 0.7420001 -0.5040002 c 0.13999987 -0.27999973 0.16800022 -0.658 0.16800022 -1.0779998 v -2.1280003 c 0 -1.148 -0.14000034 -1.204 -0.86800003 -1.274 c -0.07000017 -0.08399999 -0.07000017 -0.37800002 0 -0.462 c 0.39199972 0.014 0.86800003 0.028 1.428 0.028 c 0.55999994 0 1.0219998 -0.014 1.4839997 -0.028 c 0.07000017 0.08400001 0.07000017 0.37800002 0 0.462 c -0.7839999 0.06999999 -0.9379997 0.12599999 -0.9379997 1.274 v 2.086 c 0 0.77 -0.056000233 1.4559999 -0.37800026 1.8759999 c -0.23799992 0.3080001 -0.67199993 0.4760003 -1.1619997 0.4760003 c -0.68600035 0 -1.5260003 -0.18200016 -2.3800004 -1.1340003 c 0 -0.013999939 -0.013999939 -0.013999939 -0.027999878 -0.027999878 c -0.042000055 -0.056000233 -0.11199999 -0.13999987 -0.11199999 0.027999878 l 0.013999939 3.1500006 c 0 0.90999985 0.055999994 1.4699993 0.055999994 1.4699993 c 0 0.09800053 -0.055999994 0.14000034 -0.18199992 0.14000034 c -0.35000002 -0.14000034 -1.4000001 -0.33600044 -1.9600002 -0.37800026 c -0.027999997 -0.11199951 0 -0.3359995 0.08400002 -0.42000008 c 0.041999996 0 0.08399999 0 0.12599999 0 c 0.61600006 -0.041999817 0.77 -0.041999817 0.77 -1.1479998 v -6.118 c 0 -1.1620001 -0.16799998 -1.218 -0.98 -1.274 c -0.08399999 -0.08399999 -0.08399999 -0.37800002 0 -0.462 c 0.46200004 0.014 0.98 0.028 1.5400001 0.028 c 0.53200006 0 0.99399996 -0.014 1.3860002 -0.028 c 0.08399987 0.08400001 0.08399987 0.37800002 0 0.462 c -0.7140002 0.055999994 -0.84000015 0.11199999 -0.84000015 1.274 Z "/>
        </symbol>
        <symbol id="gE91EC90966B5517D6547514FE453AC7F" overflow="visible">
            <path d="M 0 0m 2.842 5.572 c 0.08400011 0.08400011 0.08400011 0.37800026 0 0.46200037 c -0.41999984 -0.014000416 -0.90999997 -0.028000355 -1.4139999 -0.028000355 c -0.53200006 0 -0.9100001 0.013999939 -1.274 0.028000355 c -0.084 -0.08400011 -0.084 -0.37800026 0 -0.46200037 c 0.65800005 -0.069999695 0.81200004 -0.21000004 1.106 -0.9379997 l 1.8340001 -4.5220003 c 0.08400011 -0.19600001 0.1960001 -0.28000003 0.33599997 -0.28000003 c 0.12599993 0 0.23800015 0.08400001 0.33599997 0.30800003 l 1.4140003 3.444 l 1.4419999 -3.4720001 c 0.08400011 -0.19600001 0.1960001 -0.28000003 0.33599997 -0.28000003 c 0.12599993 0 0.23799992 0.08400001 0.32200003 0.29400003 l 1.8340001 4.438 c 0.22399998 0.5739999 0.4619999 0.9660001 1.1759996 1.0079999 c 0.08400059 0.08400011 0.08400059 0.37800026 0 0.46200037 c -0.27999973 -0.014000416 -0.58799934 -0.028000355 -1.0079994 -0.028000355 c -0.42000008 0 -1.0080004 0.013999939 -1.4280005 0.028000355 c -0.083999634 -0.08400011 -0.083999634 -0.37800026 0 -0.46200037 c 1.0500002 -0.055999756 0.90999985 -0.4619999 0.71399975 -0.95199966 l -1.1759996 -2.9120002 c -0.13999987 -0.35000002 -0.1960001 -0.35000002 -0.3080001 -0.055999994 l -1.204 3.066 c -0.2659998 0.65800047 -0.23799992 0.79800034 0.5040002 0.8540001 c 0.08400011 0.08400011 0.08400011 0.37800026 0 0.46200037 c -0.42000008 -0.014000416 -0.98 -0.028000355 -1.4000001 -0.028000355 c -0.3499999 0 -0.8120003 0.013999939 -1.2320001 0.028000355 c -0.08399987 -0.08400011 -0.08399987 -0.37800026 0 -0.46200037 c 0.65800023 -0.055999756 0.826 -0.4619999 1.0779998 -1.092 l 0.08400011 -0.22399998 l -0.98 -2.4780002 c -0.18199992 -0.462 -0.2099998 -0.47599995 -0.39199996 -0.027999997 l -1.1199999 2.8840003 c -0.26600003 0.67199993 -0.2520001 0.8959999 0.41999984 0.9379997 Z "/>
        </symbol>
        <symbol id="g5A95329DCCD271AAA12B18E1C2F32158" overflow="visible">
            <path d="M 0 0m 2.8560002 -2.24 c 0.22399998 0.39199996 0.4059999 0.7839999 0.5739999 1.204 c 1.1200001 2.7020001 1.7500002 4.144 2.478 5.712 c 0.2800002 0.5879998 0.4760003 0.8120003 1.1340003 0.8959999 c 0.08400011 0.08400011 0.08400011 0.37800026 0 0.46200037 c -0.2800002 -0.014000416 -0.60200024 -0.028000355 -0.99399996 -0.028000355 c -0.42000008 0 -0.8540001 0.013999939 -1.2740002 0.028000355 c -0.08400011 -0.08400011 -0.08400011 -0.37800026 0 -0.46200037 c 0.44799995 -0.041999817 0.8959999 -0.12599993 0.67199993 -0.62999964 l -1.3860002 -3.2060003 c -0.09799981 -0.22399998 -0.22399974 -0.26600003 -0.33599973 0.013999939 l -1.246 2.9120002 c -0.2520001 0.5879998 -0.32200003 0.8540001 0.4619999 0.90999985 c 0.08400011 0.08400011 0.08400011 0.37800026 0 0.46200037 c -0.5179999 -0.014000416 -1.078 -0.028000355 -1.582 -0.028000355 c -0.476 0 -0.85400003 0.013999939 -1.1340001 0.028000355 c -0.08400001 -0.08400011 -0.08400001 -0.37800026 0 -0.46200037 c 0.56000006 -0.069999695 0.742 -0.19599962 1.1060001 -1.0499997 l 1.5820001 -3.6820002 c 0.12599993 -0.28000003 0.33599997 -0.924 0.19599986 -1.316 c -0.16799998 -0.462 -0.33599997 -0.85400003 -0.546 -1.2880001 c -0.15400004 -0.2800001 -0.3499999 -0.40600002 -0.6999999 -0.40600002 c -0.1960001 0 -0.2520001 0.042000055 -0.40600002 0.042000055 c -0.40600002 0 -0.61600006 -0.42000008 -0.61600006 -0.602 c 0 -0.29400015 0.27999997 -0.5180001 0.658 -0.5180001 c 0.29400003 0 0.854 0.11199999 1.3580002 1.0080001 Z "/>
        </symbol>
        <symbol id="gD7A888F32C4860B7A6826824980F29A4" overflow="visible">
            <path d="M 0 0m 2.016 9.212 c -0.33599997 0 -0.742 -0.2659998 -0.742 -1.0219994 c 0 -0.9800005 0.19599998 -1.4700003 0.32200003 -2.7020001 c 0.11199999 -1.0920005 0.19599998 -2.3520002 0.22399998 -2.6460004 c 0.014000058 -0.08399987 0.055999994 -0.18199992 0.19599998 -0.18199992 c 0.1400001 0 0.18199992 0.12599993 0.1960001 0.27999997 c 0.027999878 0.1960001 0.027999878 1.036 0.21000004 2.5480003 c 0.13999987 1.204 0.33599997 1.7919998 0.33599997 2.7020001 c 0 0.75599957 -0.40600014 1.0219994 -0.7420001 1.0219994 Z m -0.742 -8.61 c 0 -0.406 0.33599997 -0.742 0.742 -0.742 c 0.40600014 0 0.7420001 0.33600003 0.7420001 0.742 c 0 0.40600002 -0.33599997 0.7420001 -0.7420001 0.7420001 c -0.40600002 0 -0.742 -0.33600008 -0.742 -0.7420001 Z "/>
        </symbol>
        <symbol id="g5317C1EE47E25478CB6DBB60BD3D3AF4" overflow="visible">
            <path d="M 0 0m 9.324 4.606 c 0 2.8980002 -2.0020003 4.606 -4.5080004 4.606 c -2.7159998 0 -4.298 -2.1559997 -4.298 -4.8719997 c 0 -2.7580001 2.0019999 -4.48 4.382 -4.48 c 1.5539999 0 2.7860003 0.672 3.5560002 1.764 c 0.5600004 0.7980001 0.86800003 1.806 0.86800003 2.9819999 Z m -4.69 4.102 c 1.848 0 3.3459997 -1.54 3.3459997 -4.368 c 0 -2.506 -1.204 -3.976 -2.7999997 -3.976 c -1.7080002 0 -3.3180003 1.526 -3.3180003 4.214 c 0 2.94 1.386 4.13 2.7720003 4.13 Z "/>
        </symbol>
        <symbol id="g76A44D2137EA678686DCE78D5252F39C" overflow="visible">
            <path d="M 0 0m 2.45 1.7080001 v 3.7519999 h 1.302 c 0.12599993 0 0.32200027 0.056000233 0.32200027 0.18200016 v 0.2800002 c 0 0.055999756 -0.042000294 0.083999634 -0.11200023 0.083999634 h -1.5120001 v 0.79800034 c 0 2.1559997 0.64400005 2.492 1.106 2.492 c 0.42000008 0 0.6440003 -0.16800022 0.8399999 -0.658 c 0.112000465 -0.25199986 0.26600027 -0.44799995 0.5600004 -0.44799995 c 0.23799992 0 0.5739999 0.29399967 0.5739999 0.5739994 c 0 0.23799992 -0.1539998 0.49000072 -0.44799995 0.7140007 c -0.36400032 0.25199986 -0.72800016 0.29399967 -1.2600002 0.29399967 c -1.1759999 0 -2.478 -1.0220003 -2.478 -3.2060003 v -0.55999994 h -0.7140001 c -0.25199997 0 -0.322 -0.16799974 -0.322 -0.27999973 v -0.18200016 c 0 -0.07000017 0.013999999 -0.08400011 0.07000002 -0.08400011 h 0.9660001 v -3.7519999 c 0 -1.1620001 -0.2240001 -1.218 -0.9800001 -1.274 c -0.08400002 -0.08399999 -0.08400002 -0.37800002 0 -0.462 c 0.49 0.014 0.9800001 0.028 1.54 0.028 c 0.55999994 0 1.2320001 -0.014 1.7220001 -0.028 c 0.08399987 0.08400001 0.08399987 0.37800002 0 0.462 c -1.092 0.055999994 -1.1760001 0.11199999 -1.1760001 1.274 Z "/>
        </symbol>
        <symbol id="g7D1E4A558FA26F237C51948BC39481FC" overflow="visible">
            <path d="M 0 0m 3.038 -0.14 c 0.546 0 1.204 0.28 1.8899999 0.84000003 c 0.07000017 0.055999994 0.1960001 0.08399999 0.21000004 -0.013999999 c 0.042000294 -0.35000002 0.15400028 -0.82600003 0.15400028 -0.82600003 c 0.11199999 -0.04200001 0.18199968 -0.028000012 0.2659998 0 c 0.3080001 0.252 0.79800034 0.462 1.652 0.56 c 0.08400011 0.08399999 0.08400011 0.29400003 0 0.37800002 c -0.8959999 0.06999999 -1.0219998 0.33600003 -1.0219998 1.0220001 v 2.6880002 c 0 0.4199996 0.055999756 1.4419999 0.055999756 1.4419999 c 0 0.041999817 -0.041999817 0.08400011 -0.11199999 0.08400011 c -0.069999695 -0.014000416 -0.27999973 -0.028000355 -0.48999977 -0.028000355 c -0.44799995 0 -0.95200014 0.013999939 -1.428 0.028000355 c -0.08400011 -0.08400011 -0.08400011 -0.37800026 0 -0.46200037 c 0.6859999 -0.041999817 0.86800003 -0.21000004 0.86800003 -1.1339998 v -2.7020001 c 0 -0.26600003 -0.027999878 -0.37800002 -0.22399998 -0.546 c -0.5180001 -0.448 -1.0500002 -0.67200005 -1.4000001 -0.67200005 c -0.42000008 0 -1.1200001 0.19600004 -1.1200001 1.442 v 2.5480003 c 0 0.4199996 0.055999994 1.4419999 0.055999994 1.4419999 c 0 0.041999817 -0.042000055 0.08400011 -0.11199999 0.08400011 c -0.06999993 -0.014000416 -0.27999997 -0.028000355 -0.49 -0.028000355 c -0.44799995 0 -0.952 0.013999939 -1.428 0.028000355 c -0.08400002 -0.08400011 -0.08400002 -0.37800026 0 -0.46200037 c 0.672 -0.055999756 0.868 -0.21000004 0.868 -1.1199999 v -2.6880002 c 0 -0.966 0.42000008 -1.904 1.8060001 -1.904 Z "/>
        </symbol>
        <symbol id="g1955600FC019B04555B11C53CEC6B709" overflow="visible">
            <path d="M 0 0m 0.574 2.8700001 c 0 -1.4280001 0.952 -3.0100002 2.94 -3.0100002 c 0.89600015 0 1.582 0.32200003 2.0579998 0.784 c 0.6300001 0.616 0.9100003 1.4979999 0.9100003 2.352 c 0 1.4560001 -0.79800034 3.1500003 -2.9400003 3.1500003 c -0.924 0 -1.68 -0.37800026 -2.198 -0.98 c -0.50400007 -0.60200024 -0.7700001 -1.4140003 -0.7700001 -2.2960002 Z m 2.758 2.786 c 1.2040002 0 1.9460003 -1.092 1.9460003 -3.108 c 0 -1.764 -0.9100003 -2.198 -1.5680003 -2.198 c -1.4559999 0 -1.932 1.764 -1.932 2.842 c 0 1.2180002 0.29400003 2.464 1.554 2.464 Z "/>
        </symbol>
        <symbol id="g95D782CB9BEB6A87C344C83565719F88" overflow="visible">
            <path d="M 0 0m 2.464 5.012 c -0.027999878 0.55999994 -0.041999817 0.92400026 -0.11199999 1.0640001 c -0.027999878 0.07000017 -0.055999994 0.11199999 -0.16799998 0.11199999 c -0.39199996 -0.1539998 -0.7559999 -0.2800002 -1.722 -0.40600014 c -0.027999997 -0.08400011 0 -0.3080001 0.027999997 -0.39199972 c 0.75600004 -0.07000017 0.9100001 -0.14000034 0.9100001 -0.95200014 v -2.73 c 0 -1.1620001 -0.1680001 -1.218 -1.036 -1.274 c -0.08400002 -0.08399999 -0.08400002 -0.37800002 0 -0.462 c 0.49 0.014 1.036 0.028 1.596 0.028 c 0.55999994 0 1.204 -0.014 1.694 -0.028 c 0.08400011 0.08400001 0.08400011 0.37800002 0 0.462 c -0.98 0.06999999 -1.148 0.11199999 -1.148 1.274 v 1.946 c 0 0.36400008 0.16799998 0.6860001 0.33599997 0.93799996 c 0.15400004 0.22399998 0.47600007 0.68600035 0.64400005 0.68600035 c 0.12600017 0 0.2520001 -0.028000355 0.36400008 -0.18200016 c 0.09800005 -0.13999987 0.26600003 -0.32200003 0.50399995 -0.32200003 c 0.33599997 0 0.658 0.3499999 0.658 0.6999998 c 0 0.26600027 -0.25199986 0.6720004 -0.84000015 0.6720004 c -0.65799975 0 -1.2319999 -0.6160002 -1.5539999 -1.1620002 c -0.08399987 -0.15400028 -0.15400004 -0.041999817 -0.15400004 0.027999878 Z "/>
        </symbol>
        <symbol id="gAEDF10442E3A85001433F5A3522B0018" overflow="visible">
            <path d="M 0 0m 4.676 0.70000005 c 0.07000017 0.055999994 0.1960001 0.08399999 0.21000004 -0.013999999 c 0.041999817 -0.33600003 0.1539998 -0.82600003 0.1539998 -0.82600003 c 0.11199999 -0.04200001 0.18200016 -0.028000012 0.26600027 0 c 0.3080001 0.252 0.79799986 0.462 1.652 0.56 c 0.08400011 0.08399999 0.08400011 0.29400003 0 0.37800002 c -0.8959999 0.06999999 -1.0219998 0.33600003 -1.0219998 1.0220001 v 6.3420005 c 0 0.90999985 0.055999756 1.4699993 0.055999756 1.4699993 c 0 0.09800053 -0.055999756 0.14000034 -0.18200016 0.14000034 c -0.3499999 -0.14000034 -1.3999996 -0.33600044 -1.9599998 -0.37800026 c -0.028000116 -0.11199951 0 -0.3359995 0.08399987 -0.42000008 c 0.042000055 0 0.08400011 0 0.12599993 0 c 0.6160002 -0.041999817 0.77 -0.041999817 0.77 -1.1479998 v -1.7919998 c 0 -0.09800005 -0.027999878 -0.1260004 -0.12599993 -0.1260004 c -0.055999756 0 -0.62999964 0.2380004 -1.0919998 0.2380004 c -0.924 0 -1.5400002 -0.3080001 -2.1000001 -0.84000015 c -0.60200006 -0.60200024 -0.9660001 -1.4280002 -0.9660001 -2.4640002 c 0 -1.722 0.86800003 -2.982 2.38 -2.982 c 0.546 0 1.0639999 0.28 1.75 0.84000003 Z m 0.1539998 1.036 c 0 -0.26600003 -0.027999878 -0.37800002 -0.22399998 -0.546 c -0.51799965 -0.448 -0.96599984 -0.67200005 -1.3159997 -0.67200005 c -0.75600004 0 -1.5400002 0.8260001 -1.5400002 2.5760002 c 0 1.0080001 0.1960001 1.5680001 0.40600014 1.8620002 c 0.43400002 0.658 1.0220001 0.6999998 1.302 0.6999998 c 0.50399995 0 0.8540001 -0.18200016 1.1339998 -0.5040002 c 0.1960001 -0.22399998 0.23799992 -0.32200003 0.23799992 -0.75600004 Z "/>
        </symbol>
        <symbol id="gE3B4E35ADC3A4F8DD4B306A26BC478DC" overflow="visible">
            <path d="M 0 0m 2.674 1.7080001 v 5.614 c 0 1.1620002 0.23800015 1.2319999 1.2180002 1.2740006 c 0.08399987 0.083999634 0.08399987 0.3779993 0 0.4619999 c -0.6160002 -0.013999939 -1.2740002 -0.027999878 -1.8200002 -0.027999878 c -0.462 0 -1.148 0.013999939 -1.806 0.027999878 c -0.08399999 -0.08400059 -0.08399999 -0.37800026 0 -0.4619999 c 0.98 -0.04200077 1.218 -0.112000465 1.218 -1.2740006 v -5.614 c 0 -1.1620001 -0.23800004 -1.2320001 -1.218 -1.274 c -0.08399999 -0.08399999 -0.08399999 -0.37800002 0 -0.462 c 0.63 0.014 1.316 0.028 1.8199999 0.028 c 0.5040002 0 1.1760001 -0.014 1.8060002 -0.028 c 0.08399987 0.08400001 0.08399987 0.37800002 0 0.462 c -0.98 0.041999996 -1.2180002 0.11199999 -1.2180002 1.274 Z "/>
        </symbol>
        <symbol id="g6FC9143BF778688D159691F9F40C25E" overflow="visible">
            <path d="M 0 0m 4.86 1.86 h -2.5800002 l -0.6359999 -1.86 h -1.644 l 3.024 8.46 h 1.2120001 l 3.0240002 -8.46 h -1.7280002 l -0.67199993 1.86 Z m -2.16 1.32 h 1.8 l -0.6240001 1.872 l -0.25199986 1.3200002 h -0.059999943 l -0.2520001 -1.3320003 l -0.612 -1.8599999 Z "/>
        </symbol>
        <symbol id="gFE86910F24A45CCCC0A33767925946DD" overflow="visible">
            <path d="M 0 0m 1.248 0 l 2.7480001 6.468 l 0.5280001 0.5880003 l -0.72 -0.12000036 h -3.084 v 1.4639997 h 5.4119997 v -0.45599937 l -3.36 -7.9440002 h -1.524 Z "/>
        </symbol>
        <symbol id="gD3FDE0C49EF3C021D6CD6EEF6D944579" overflow="visible">
            <path d="M 0 0m 3.7940001 3.122 c 0.18199992 0 0.37799978 0.3920002 0.37799978 0.5600002 c 0 0.13999987 -0.055999756 0.27999997 -0.19599986 0.27999997 h -3.066 c -0.16799998 0 -0.35000002 -0.32200003 -0.35000002 -0.5740001 c 0 -0.13999987 0.08399999 -0.26600003 0.21000004 -0.26600003 Z "/>
        </symbol>
        <symbol id="gE8175B1F4F28998B5205795E0DDFC8B5" overflow="visible">
            <path d="M 0 0m 2.184 5.152 c -0.013999939 0.42000008 -0.042000055 0.7840004 -0.11199999 0.92400026 c -0.027999878 0.07000017 -0.055999994 0.11199999 -0.16799998 0.11199999 c -0.39199996 -0.1539998 -0.75600004 -0.2800002 -1.722 -0.40600014 c -0.028000012 -0.08400011 0 -0.3080001 0.027999997 -0.39199972 c 0.75600004 -0.07000017 0.90999997 -0.14000034 0.90999997 -0.95200014 v -5.978 c 0 -1.1620001 -0.15399998 -1.232 -1.008 -1.274 c -0.08400001 -0.08399987 -0.08400001 -0.37800002 0 -0.4619999 c 0.49 0.013999939 1.008 0.027999878 1.5680001 0.027999878 c 0.55999994 0 1.2320001 -0.013999939 1.694 -0.027999878 c 0.08400011 0.08399987 0.08400011 0.37800002 0 0.4619999 c -0.99399996 0.055999994 -1.148 0.11199999 -1.148 1.274 v 1.5120001 c 0 0.182 0.055999994 0.168 0.1960001 0.112 c 0.3499999 -0.14000002 0.77 -0.224 1.2179999 -0.224 c 0.78400016 0 1.484 0.238 2.0579998 0.784 c 0.65800047 0.644 1.0360003 1.5120001 1.0360003 2.6460001 c 0 1.484 -1.0500002 2.8560002 -2.4780002 2.8560002 c -0.6439998 0 -1.358 -0.42000008 -1.918 -1.0500002 c -0.08399987 -0.08400011 -0.1400001 -0.08400011 -0.15400004 0.055999756 Z m 0.26600003 -0.51799965 c 0.36400008 0.44799995 1.0080001 0.86800003 1.414 0.86800003 c 0.89600015 0 1.6660001 -1.0080004 1.6660001 -2.5900002 c 0 -1.1480001 -0.40600014 -2.5760002 -1.9740002 -2.5760002 c -0.25199986 0 -0.74199986 0.06999999 -0.99399996 0.29399997 c -0.27999997 0.25200003 -0.33599997 0.33600003 -0.33599997 0.84000003 v 2.548 c 0 0.29400015 0.055999994 0.42000008 0.22399998 0.6160002 Z "/>
        </symbol>
        <symbol id="g281E115BD15E57A63684E30E876768D2" overflow="visible">
            <path d="M 0 0m 0.72 8.4 q 0.25199997 0.03600025 0.56999993 0.06000042 q 0.31800008 0.024000168 0.65400004 0.03600025 q 0.33599997 0.012000084 0.65400004 0.017999649 q 0.31800008 0.006000519 0.56999993 0.006000519 q 1.1159999 0 1.9080002 -0.31200027 q 0.7919998 -0.31200027 1.2839999 -0.8759999 q 0.4920001 -0.5640001 0.7199998 -1.3440003 q 0.22800016 -0.77999973 0.22800016 -1.7160001 q 0 -0.85199976 -0.21600008 -1.6439998 q -0.21600008 -0.79200006 -0.7199998 -1.404 q -0.5040002 -0.612 -1.3260002 -0.98399997 q -0.822 -0.372 -2.034 -0.372 q -0.19200015 0 -0.51 0.0119999945 q -0.31800008 0.012000002 -0.6600001 0.030000001 q -0.342 0.018000007 -0.65400004 0.036000002 q -0.31199998 0.018000003 -0.46799994 0.042000003 v 8.412 Z m 2.58 -1.3439994 q -0.26399994 0 -0.5339999 -0.012000084 q -0.26999998 -0.012000084 -0.40199995 -0.03600025 v -5.628 q 0.04799986 -0.011999965 0.16199994 -0.018000007 q 0.11400008 -0.0059999228 0.24600005 -0.011999965 q 0.13199997 -0.006000042 0.25199986 -0.011999965 q 0.120000124 -0.006000042 0.18000007 -0.006000042 q 0.6960001 0 1.158 0.24600005 q 0.4619999 0.24599993 0.7319999 0.65400004 q 0.26999998 0.408 0.37800026 0.9419999 q 0.1079998 0.5339999 0.1079998 1.0979998 q 0 0.4920001 -0.09599972 0.99000025 q -0.096000195 0.49800014 -0.3540001 0.89400005 q -0.2579999 0.3959999 -0.70200014 0.64799976 q -0.444 0.25200033 -1.128 0.25200033 Z "/>
        </symbol>
    </defs>
</svg>
