<svg viewBox="0 0 260.198 124.636" width="260.198pt" height="124.636pt" xmlns="http://www.w3.org/2000/svg" xmlns:xlink="http://www.w3.org/1999/xlink" xmlns:h5="http://www.w3.org/1999/xhtml"><path fill="#ffffff" fill-rule="nonzero" d="M 0 0v 124.636h 260.198v -124.636Z "/><path fill="#ffffff" fill-rule="nonzero" d="M 0 0m 0 3c 0 -1.656854249 1.343145751 -3 3 -3h 254.198c 1.656854249 0 3 1.343145751 3 3v 118.636c 0 1.656854249 -1.343145751 3 -3 3h -254.198c -1.656854249 0 -3 -1.343145751 -3 -3Z "/><g transform="translate(10 10)"><g transform="translate(2.751 5.6)"><path fill="#dddddd" fill-rule="nonzero" transform="translate(-2 -3)" d="M 0 0m 0 2c 0 -1.1045695 0.8954305 -2 2 -2h 7.308c 1.1045695 0 2 0.8954305 2 2v 10.4c 0 1.1045695 -0.8954305 2 -2 2h -7.308c -1.1045695 0 -2 -0.8954305 -2 -2Z "/><g transform="matrix(1 0 0 -1 0 8.4)"><use xlink:href="#g4311A0F6E7F0B682786575633755E7C" x="0" y="0" fill="#000000" fill-rule="nonzero"/></g></g><g transform="translate(0 19.6)"><g transform="matrix(1 0 0 -1 0 9.212)"><use xlink:href="#g4AEC868EAC7C7C3B8F76FD7249667D7C" x="0" y="0" fill="#000000" fill-rule="nonzero"/><use xlink:href="#gDF9DEC55F7B0B34F42EFEDBE4C05C7BF" x="4.508" y="0" fill="#000000" fill-rule="nonzero"/><use xlink:href="#g5556E4935B077F10DE55E147280B2A66" x="8.302" y="0" fill="#000000" fill-rule="nonzero"/><use xlink:href="#g5D6F3D0497B06760F25EDC0DBDC5D3CC" x="15.89" y="0" fill="#000000" fill-rule="nonzero"/><use xlink:href="#g17B088FF7DA1D2EBAC94411CBA05224C" x="22.89" y="0" fill="#000000" fill-rule="nonzero"/><use xlink:href="#gA532EDE908605A39B732C4D38E7331AB" x="26.586" y="0" fill="#000000" fill-rule="nonzero"/></g></g></g><g transform="matrix(1 0 0 -1 42.844 38.812)"><use xlink:href="#g4BA1F264E29A379329A9B3EDCF0DB6E0" x="3.5" y="0" fill="#000000" fill-rule="nonzero"/><use xlink:href="#gA532EDE908605A39B732C4D38E7331AB" x="10.542" y="0" fill="#000000" fill-rule="nonzero"/><use xlink:href="#g17B088FF7DA1D2EBAC94411CBA05224C" x="16.8" y="0" fill="#000000" fill-rule="nonzero"/><use xlink:href="#g17B088FF7DA1D2EBAC94411CBA05224C" x="20.496" y="0" fill="#000000" fill-rule="nonzero"/><use xlink:href="#gB878A7E62DD0C8BAB821D7E84F93B203" x="24.192" y="0" fill="#000000" fill-rule="nonzero"/><use xlink:href="#gFC30FD585E5C41203CC13ED927ADFB05" x="29.652" y="0" fill="#000000" fill-rule="nonzero"/><use xlink:href="#g469E1F4932B4E6AD483B1BCD4AE8BC79" x="36.232" y="0" fill="#000000" fill-rule="nonzero"/><use xlink:href="#gDF9DEC55F7B0B34F42EFEDBE4C05C7BF" x="40.04" y="0" fill="#000000" fill-rule="nonzero"/><use xlink:href="#g5556E4935B077F10DE55E147280B2A66" x="43.834" y="0" fill="#000000" fill-rule="nonzero"/><use xlink:href="#g5D6F3D0497B06760F25EDC0DBDC5D3CC" x="51.422" y="0" fill="#000000" fill-rule="nonzero"/><use xlink:href="#g17B088FF7DA1D2EBAC94411CBA05224C" x="58.422" y="0" fill="#000000" fill-rule="nonzero"/><use xlink:href="#gA532EDE908605A39B732C4D38E7331AB" x="62.118" y="0" fill="#000000" fill-rule="nonzero"/><use xlink:href="#g4BA1F264E29A379329A9B3EDCF0DB6E0" x="71.876" y="0" fill="#000000" fill-rule="nonzero"/><use xlink:href="#gA532EDE908605A39B732C4D38E7331AB" x="78.918" y="0" fill="#000000" fill-rule="nonzero"/><use xlink:href="#g17B088FF7DA1D2EBAC94411CBA05224C" x="85.176" y="0" fill="#000000" fill-rule="nonzero"/><use xlink:href="#g17B088FF7DA1D2EBAC94411CBA05224C" x="88.872" y="0" fill="#000000" fill-rule="nonzero"/><use xlink:href="#gB878A7E62DD0C8BAB821D7E84F93B203" x="92.568" y="0" fill="#000000" fill-rule="nonzero"/><use xlink:href="#gFC30FD585E5C41203CC13ED927ADFB05" x="98.028" y="0" fill="#000000" fill-rule="nonzero"/><use xlink:href="#g469E1F4932B4E6AD483B1BCD4AE8BC79" x="104.608" y="0" fill="#000000" fill-rule="nonzero"/><use xlink:href="#gDF9DEC55F7B0B34F42EFEDBE4C05C7BF" x="108.416" y="0" fill="#000000" fill-rule="nonzero"/><use xlink:href="#g5556E4935B077F10DE55E147280B2A66" x="112.21" y="0" fill="#000000" fill-rule="nonzero"/><use xlink:href="#g5D6F3D0497B06760F25EDC0DBDC5D3CC" x="119.798" y="0" fill="#000000" fill-rule="nonzero"/><use xlink:href="#g17B088FF7DA1D2EBAC94411CBA05224C" x="126.798" y="0" fill="#000000" fill-rule="nonzero"/><use xlink:href="#gA532EDE908605A39B732C4D38E7331AB" x="130.494" y="0" fill="#000000" fill-rule="nonzero"/></g><g transform="translate(183.096 10)"><g transform="translate(3.541 5.6)"><path fill="#dddddd" fill-rule="nonzero" transform="translate(-2 -3)" d="M 0 0m 0 2c 0 -1.1045695 0.8954305 -2 2 -2h 6.708c 1.1045695 0 2 0.8954305 2 2v 10.4c 0 1.1045695 -0.8954305 2 -2 2h -6.708c -1.1045695 0 -2 -0.8954305 -2 -2Z "/><g transform="matrix(1 0 0 -1 0 8.4)"><use xlink:href="#g17408F8BFD45E7DF201930D9FA60925B" x="0" y="0" fill="#000000" fill-rule="nonzero"/></g></g><g transform="translate(0 19.6)"><g transform="matrix(1 0 0 -1 0 9.212)"><use xlink:href="#g8F293AD4C53829FD735088629BA77DD5" x="0" y="0" fill="#000000" fill-rule="nonzero"/><use xlink:href="#g17B088FF7DA1D2EBAC94411CBA05224C" x="6.398" y="0" fill="#000000" fill-rule="nonzero"/><use xlink:href="#g17B088FF7DA1D2EBAC94411CBA05224C" x="10.094" y="0" fill="#000000" fill-rule="nonzero"/></g></g></g><g transform="matrix(1 0 0 -1 196.886 38.812)"><use xlink:href="#g5DDED89538E8C153F924E277D05C7A44" x="3.5" y="0" fill="#000000" fill-rule="nonzero"/><use xlink:href="#g2E0BEF1CFAF4AA0824B13B9AB4CC890A" x="7.924" y="0" fill="#000000" fill-rule="nonzero"/><use xlink:href="#gA532EDE908605A39B732C4D38E7331AB" x="15.456" y="0" fill="#000000" fill-rule="nonzero"/></g><g transform="translate(222.1 10)"><g transform="translate(10.003 5.6)"><path fill="#dddddd" fill-rule="nonzero" transform="translate(-2 -3)" d="M 0 0m 0 2c 0 -1.1045695 0.8954305 -2 2 -2h 7.308c 1.1045695 0 2 0.8954305 2 2v 10.4c 0 1.1045695 -0.8954305 2 -2 2h -7.308c -1.1045695 0 -2 -0.8954305 -2 -2Z "/><g transform="matrix(1 0 0 -1 0 8.4)"><use xlink:href="#g4311A0F6E7F0B682786575633755E7C" x="0" y="0" fill="#000000" fill-rule="nonzero"/></g></g><g transform="translate(0 19.6)"><g transform="matrix(1 0 0 -1 0 9.212)"><use xlink:href="#gDACA33D2BFADB1EA4AC242FA6F7EC1A4" x="0" y="0" fill="#000000" fill-rule="nonzero"/><use xlink:href="#g8F293AD4C53829FD735088629BA77DD5" x="10.458" y="0" fill="#000000" fill-rule="nonzero"/><use xlink:href="#gFC904654FCB939E76EFFA168B98DD9E2" x="16.856" y="0" fill="#000000" fill-rule="nonzero"/><use xlink:href="#gDE7E0F1844E86228BD6C02EF47CF0193" x="24.066" y="0" fill="#000000" fill-rule="nonzero"/></g></g></g><g transform="translate(10 47.912)"><g transform="translate(5.326 5.6)"><path fill="#dddddd" fill-rule="nonzero" transform="translate(-2 -3)" d="M 0 0m 0 2c 0 -1.1045695 0.8954305 -2 2 -2h 6.708c 1.1045695 0 2 0.8954305 2 2v 10.4c 0 1.1045695 -0.8954305 2 -2 2h -6.708c -1.1045695 0 -2 -0.8954305 -2 -2Z "/><g transform="matrix(1 0 0 -1 0 8.4)"><use xlink:href="#g17408F8BFD45E7DF201930D9FA60925B" x="0" y="0" fill="#000000" fill-rule="nonzero"/></g></g><g transform="translate(0 19.6)"><g transform="matrix(1 0 0 -1 0 9.212)"><use xlink:href="#g84FE02B6FEAF82D6330AA3F4D21AA2FC" x="0" y="0" fill="#000000" fill-rule="nonzero"/><use xlink:href="#g2E0BEF1CFAF4AA0824B13B9AB4CC890A" x="9.828" y="0" fill="#000000" fill-rule="nonzero"/></g></g></g><g transform="matrix(1 0 0 -1 27.36 76.724)"><use xlink:href="#gDACA33D2BFADB1EA4AC242FA6F7EC1A4" x="3.5" y="0" fill="#000000" fill-rule="nonzero"/><use xlink:href="#g2E0BEF1CFAF4AA0824B13B9AB4CC890A" x="13.958" y="0" fill="#000000" fill-rule="nonzero"/><use xlink:href="#g8F293AD4C53829FD735088629BA77DD5" x="21.49" y="0" fill="#000000" fill-rule="nonzero"/><use xlink:href="#g5DDED89538E8C153F924E277D05C7A44" x="27.888" y="0" fill="#000000" fill-rule="nonzero"/><use xlink:href="#g4527FC7FD7996E032C40132DD558E28F" x="35.812" y="0" fill="#000000" fill-rule="nonzero"/><use xlink:href="#gAEE3AE20A7295520AC54AE0CEDB7C17C" x="40.152" y="0" fill="#000000" fill-rule="nonzero"/><use xlink:href="#g5556E4935B077F10DE55E147280B2A66" x="47.586" y="0" fill="#000000" fill-rule="nonzero"/><use xlink:href="#gDF9DEC55F7B0B34F42EFEDBE4C05C7BF" x="58.674" y="0" fill="#000000" fill-rule="nonzero"/><use xlink:href="#g5DDED89538E8C153F924E277D05C7A44" x="62.468" y="0" fill="#000000" fill-rule="nonzero"/></g><g transform="translate(97.752 47.912)"><g transform="translate(0.973 5.6)"><path fill="#dddddd" fill-rule="nonzero" transform="translate(-2 -3)" d="M 0 0m 0 2c 0 -1.1045695 0.8954305 -2 2 -2h 7.308c 1.1045695 0 2 0.8954305 2 2v 10.4c 0 1.1045695 -0.8954305 2 -2 2h -7.308c -1.1045695 0 -2 -0.8954305 -2 -2Z "/><g transform="matrix(1 0 0 -1 0 8.4)"><use xlink:href="#g4311A0F6E7F0B682786575633755E7C" x="0" y="0" fill="#000000" fill-rule="nonzero"/></g></g><g transform="translate(0 19.6)"><g transform="matrix(1 0 0 -1 0 9.212)"><use xlink:href="#gDF9DEC55F7B0B34F42EFEDBE4C05C7BF" x="0" y="0" fill="#000000" fill-rule="nonzero"/><use xlink:href="#gB878A7E62DD0C8BAB821D7E84F93B203" x="3.794" y="0" fill="#000000" fill-rule="nonzero"/></g></g></g><g transform="matrix(1 0 0 -1 107.006 76.724)"><use xlink:href="#g5DDED89538E8C153F924E277D05C7A44" x="3.5" y="0" fill="#000000" fill-rule="nonzero"/><use xlink:href="#g52D4DDD735C277DE32B0BF32D62E0BB" x="7.924" y="0" fill="#000000" fill-rule="nonzero"/><use xlink:href="#gE0F1521E7E2AEFC9E32AEE88F685AA10" x="18.48" y="0" fill="#000000" fill-rule="nonzero"/><use xlink:href="#gDF9DEC55F7B0B34F42EFEDBE4C05C7BF" x="23.688" y="0" fill="#000000" fill-rule="nonzero"/><use xlink:href="#g6DE8B78E4446B8B7FDC11CBE2A868A83" x="27.482" y="0" fill="#000000" fill-rule="nonzero"/><use xlink:href="#gA532EDE908605A39B732C4D38E7331AB" x="34.566" y="0" fill="#000000" fill-rule="nonzero"/></g><g transform="matrix(1 0 0 -1 10 114.636)"><use xlink:href="#gA840A37B41AB77F87C5689485A9F952A" x="0" y="0" fill="#000000" fill-rule="nonzero"/><use xlink:href="#g5556E4935B077F10DE55E147280B2A66" x="4.158" y="0" fill="#000000" fill-rule="nonzero"/><use xlink:href="#g8F293AD4C53829FD735088629BA77DD5" x="15.246" y="0" fill="#000000" fill-rule="nonzero"/></g><g transform="translate(35.144 85.824)"><g transform="translate(7.22 5.6)"><path fill="#dddddd" fill-rule="nonzero" transform="translate(-2 -3)" d="M 0 0m 0 2c 0 -1.1045695 0.8954305 -2 2 -2h 14.064c 1.1045695 0 2 0.8954305 2 2v 10.4c 0 1.1045695 -0.8954305 2 -2 2h -14.064c -1.1045695 0 -2 -0.8954305 -2 -2Z "/><g transform="matrix(1 0 0 -1 0 8.4)"><use xlink:href="#g2509ADA8A33C0459E363ED2C49C73AC8" x="0" y="0" fill="#000000" fill-rule="nonzero"/><use xlink:href="#g4B771A9F80B02B566A4E618321240F7C" x="7.26" y="0" fill="#000000" fill-rule="nonzero"/></g></g><g transform="translate(0 19.6)"><g transform="matrix(1 0 0 -1 0 9.212)"><use xlink:href="#g52D4DDD735C277DE32B0BF32D62E0BB" x="0" y="0" fill="#000000" fill-rule="nonzero"/><use xlink:href="#g5556E4935B077F10DE55E147280B2A66" x="7.056" y="0" fill="#000000" fill-rule="nonzero"/><use xlink:href="#gA532EDE908605A39B732C4D38E7331AB" x="14.644" y="0" fill="#000000" fill-rule="nonzero"/><use xlink:href="#gCCF635D02B89F0D773C86EE369CACA20" x="20.902" y="0" fill="#000000" fill-rule="nonzero"/><use xlink:href="#g2E0BEF1CFAF4AA0824B13B9AB4CC890A" x="25.634" y="0" fill="#000000" fill-rule="nonzero"/><use xlink:href="#g52D4DDD735C277DE32B0BF32D62E0BB" x="33.166" y="0" fill="#000000" fill-rule="nonzero"/><use xlink:href="#gE0F1521E7E2AEFC9E32AEE88F685AA10" x="40.222" y="0" fill="#000000" fill-rule="nonzero"/><use xlink:href="#gB878A7E62DD0C8BAB821D7E84F93B203" x="45.43" y="0" fill="#000000" fill-rule="nonzero"/><use xlink:href="#gA532EDE908605A39B732C4D38E7331AB" x="50.89" y="0" fill="#000000" fill-rule="nonzero"/></g></g></g><g transform="matrix(1 0 0 -1 92.292 114.636)"><use xlink:href="#g52D4DDD735C277DE32B0BF32D62E0BB" x="3.5" y="0" fill="#000000" fill-rule="nonzero"/><use xlink:href="#g1635179D06CBB16A0A77EDA16F2552DD" x="10.556" y="0" fill="#000000" fill-rule="nonzero"/><use xlink:href="#gA532EDE908605A39B732C4D38E7331AB" x="17.92" y="0" fill="#000000" fill-rule="nonzero"/><use xlink:href="#g5556E4935B077F10DE55E147280B2A66" x="24.178" y="0" fill="#000000" fill-rule="nonzero"/></g><g transform="translate(127.558 85.824)"><g transform="translate(8.403 5.6)"><path fill="#dddddd" fill-rule="nonzero" transform="translate(-2 -3)" d="M 0 0m 0 2c 0 -1.1045695 0.8954305 -2 2 -2h 14.568c 1.1045695 0 2 0.8954305 2 2v 10.4c 0 1.1045695 -0.8954305 2 -2 2h -14.568c -1.1045695 0 -2 -0.8954305 -2 -2Z "/><g transform="matrix(1 0 0 -1 0 8.4)"><use xlink:href="#g31768D2F216E574E7A2006D9D545CEDD" x="0" y="0" fill="#000000" fill-rule="nonzero"/><use xlink:href="#g4B771A9F80B02B566A4E618321240F7C" x="7.764" y="0" fill="#000000" fill-rule="nonzero"/></g></g><g transform="translate(0 19.6)"><g transform="matrix(1 0 0 -1 0 9.212)"><use xlink:href="#gB878A7E62DD0C8BAB821D7E84F93B203" x="0" y="0" fill="#000000" fill-rule="nonzero"/><use xlink:href="#g17B088FF7DA1D2EBAC94411CBA05224C" x="5.46" y="0" fill="#000000" fill-rule="nonzero"/><use xlink:href="#gA532EDE908605A39B732C4D38E7331AB" x="9.156" y="0" fill="#000000" fill-rule="nonzero"/><use xlink:href="#gDF9DEC55F7B0B34F42EFEDBE4C05C7BF" x="15.414" y="0" fill="#000000" fill-rule="nonzero"/><use xlink:href="#g5D6F3D0497B06760F25EDC0DBDC5D3CC" x="19.208" y="0" fill="#000000" fill-rule="nonzero"/><use xlink:href="#g2E0BEF1CFAF4AA0824B13B9AB4CC890A" x="26.208" y="0" fill="#000000" fill-rule="nonzero"/><use xlink:href="#gFC30FD585E5C41203CC13ED927ADFB05" x="33.74" y="0" fill="#000000" fill-rule="nonzero"/></g></g></g><g transform="matrix(1 0 0 -1 164.378 114.636)"><use xlink:href="#g2E0BEF1CFAF4AA0824B13B9AB4CC890A" x="3.5" y="0" fill="#000000" fill-rule="nonzero"/><use xlink:href="#gA532EDE908605A39B732C4D38E7331AB" x="11.032" y="0" fill="#000000" fill-rule="nonzero"/><use xlink:href="#gFC904654FCB939E76EFFA168B98DD9E2" x="17.192" y="0" fill="#000000" fill-rule="nonzero"/><use xlink:href="#gDE7E0F1844E86228BD6C02EF47CF0193" x="24.402" y="0" fill="#000000" fill-rule="nonzero"/></g><defs><symbol id="g4311A0F6E7F0B682786575633755E7C" overflow="visible"><path d="M 0 0m 3.684 4.38h 3.132v -3.744q -0.504 -0.42 -1.206 -0.612q -0.702 -0.192 -1.386 -0.192q -0.804 0 -1.494 0.252q -0.69 0.252 -1.194 0.786q -0.504 0.534 -0.792 1.362q -0.288 0.828 -0.288 1.968q 0 1.188 0.342 2.022q 0.342 0.834 0.9 1.356q 0.558 0.522 1.254 0.756q 0.696 0.234 1.416 0.234q 0.72 0 1.266 -0.108q 0.546 -0.108 0.87 -0.228l -0.336 -1.38q -0.3 0.12 -0.672 0.186q -0.372 0.066 -0.948 0.066q -0.516 0 -0.948 -0.156q -0.432 -0.156 -0.75 -0.51q -0.318 -0.354 -0.492 -0.906q -0.174 -0.552 -0.174 -1.344q 0 -0.756 0.168 -1.302q 0.168 -0.546 0.468 -0.9q 0.3 -0.354 0.702 -0.522q 0.402 -0.168 0.858 -0.168q 0.312 0 0.612 0.078q 0.3 0.078 0.504 0.234v 1.584l -1.812 0.192v 0.996Z "/></symbol><symbol id="g4AEC868EAC7C7C3B8F76FD7249667D7C" overflow="visible"><path d="M 0 0m 3.164 7.322c 0 1.162 0.238 1.232 1.078 1.274c 0.084 0.084 0.084 0.378 0 0.462c -0.532 -0.014 -1.134 -0.028 -1.68 -0.028c -0.504 0 -1.246 0.014 -1.946 0.028c -0.084 -0.084 -0.084 -0.378 0 -0.462c 1.12 -0.042 1.358 -0.112 1.358 -1.274v -6.188c 0 -2.52 -0.728 -2.912 -1.19 -2.912c -0.266 0 -0.462 0.168 -0.56 0.378c -0.084 0.168 -0.21 0.35 -0.56 0.35c -0.196 0 -0.616 -0.294 -0.616 -0.602c 0 -0.504 0.742 -0.756 1.05 -0.756c 0.63 0 1.064 0.112 1.638 0.602c 0.616 0.518 1.428 1.246 1.428 3.248Z "/></symbol><symbol id="gDF9DEC55F7B0B34F42EFEDBE4C05C7BF" overflow="visible"><path d="M 0 0m 2.534 1.708v 2.786c 0 0.7 0.056 1.596 0.056 1.596c 0 0.056 -0.07 0.098 -0.182 0.098c -0.392 -0.154 -0.952 -0.28 -1.918 -0.406c -0.028 -0.084 0 -0.308 0.028 -0.392c 0.77 -0.07 0.91 -0.154 0.91 -0.952v -2.73c 0 -1.162 -0.154 -1.204 -1.008 -1.274c -0.084 -0.084 -0.084 -0.378 0 -0.462c 0.462 0.014 1.008 0.028 1.568 0.028c 0.56 0 1.092 -0.014 1.554 -0.028c 0.084 0.084 0.084 0.378 0 0.462c -0.854 0.056 -1.008 0.112 -1.008 1.274Z m -1.274 6.678c 0 -0.364 0.336 -0.728 0.672 -0.728c 0.392 0 0.728 0.378 0.728 0.672c 0 0.336 -0.294 0.728 -0.672 0.728c -0.336 0 -0.728 -0.336 -0.728 -0.672Z "/></symbol><symbol id="g5556E4935B077F10DE55E147280B2A66" overflow="visible"><path d="M 0 0m 2.576 5.012c -0.084 -0.098 -0.168 -0.126 -0.168 0c -0.014 0.378 -0.042 0.924 -0.112 1.064c -0.028 0.07 -0.056 0.112 -0.168 0.112c -0.392 -0.154 -0.756 -0.28 -1.722 -0.406c -0.028 -0.084 0 -0.308 0.028 -0.392c 0.756 -0.07 0.91 -0.14 0.91 -0.952v -2.73c 0 -1.148 -0.14 -1.204 -0.98 -1.274c -0.084 -0.084 -0.084 -0.378 0 -0.462c 0.42 0.014 0.98 0.028 1.54 0.028c 0.56 0 0.98 -0.014 1.4 -0.028c 0.084 0.084 0.084 0.378 0 0.462c -0.714 0.07 -0.854 0.126 -0.854 1.274v 2.296c 0 0.294 0.126 0.462 0.238 0.588c 0.532 0.518 1.162 0.826 1.708 0.826c 0.28 0 0.574 -0.182 0.742 -0.504c 0.14 -0.28 0.168 -0.658 0.168 -1.078v -2.128c 0 -1.148 -0.14 -1.204 -0.868 -1.274c -0.07 -0.084 -0.07 -0.378 0 -0.462c 0.42 0.014 0.868 0.028 1.428 0.028c 0.56 0 1.064 -0.014 1.484 -0.028c 0.07 0.084 0.07 0.378 0 0.462c -0.784 0.07 -0.938 0.126 -0.938 1.274v 2.086c 0 0.77 -0.056 1.442 -0.378 1.876c -0.238 0.308 -0.672 0.476 -1.162 0.476c -0.686 0 -1.47 -0.182 -2.296 -1.134Z "/></symbol><symbol id="g5D6F3D0497B06760F25EDC0DBDC5D3CC" overflow="visible"><path d="M 0 0m 6.216 5.418c 0.266 0 0.518 0.252 0.518 0.532c 0 0.294 -0.266 0.518 -0.644 0.518c -0.364 0 -1.036 -0.238 -1.4 -0.714c -0.168 0.112 -0.63 0.392 -1.456 0.392c -1.246 0 -2.394 -0.84 -2.394 -2.128c 0 -0.756 0.336 -1.19 0.728 -1.568c -0.392 -0.336 -0.616 -0.938 -0.616 -1.414c 0 -0.504 0.28 -0.896 0.644 -1.078c -0.756 -0.448 -1.148 -1.092 -1.148 -1.694c 0 -1.218 1.148 -1.596 2.226 -1.596c 1.89 0 3.934 0.91 3.934 2.422c 0 0.448 -0.21 0.798 -0.616 1.134c -0.546 0.448 -1.526 0.462 -2.044 0.462c -0.252 0 -0.602 -0.028 -0.938 -0.07c -0.21 -0.014 -0.35 -0.028 -0.42 -0.028c -0.406 0 -0.896 0.196 -0.896 0.798c 0 0.28 0.084 0.574 0.252 0.812c 0.336 -0.196 0.728 -0.294 1.274 -0.294c 1.232 0 2.366 0.77 2.366 2.142c 0 0.658 -0.196 1.036 -0.602 1.456c 0.098 0.14 0.378 0.336 0.56 0.336c 0.098 0 0.196 -0.042 0.28 -0.168c 0.056 -0.112 0.238 -0.252 0.392 -0.252Z m -4.368 -5.558c 0.154 -0.042 0.378 -0.07 0.56 -0.07c 0.434 0 0.826 0.042 1.022 0.042c 0.7 0 1.288 -0.014 1.694 -0.238c 0.546 -0.308 0.714 -0.504 0.714 -0.868c 0 -1.008 -1.484 -1.54 -2.744 -1.54c -0.504 0 -1.68 0.406 -1.68 1.358c 0 0.476 0.028 0.826 0.434 1.316Z m 2.618 4.046c 0 -1.302 -0.658 -1.568 -1.176 -1.568c -1.176 0 -1.302 0.994 -1.302 1.89c 0 0.98 0.35 1.484 1.12 1.484c 0.882 0 1.358 -0.644 1.358 -1.806Z "/></symbol><symbol id="g17B088FF7DA1D2EBAC94411CBA05224C" overflow="visible"><path d="M 0 0m 1.33 1.708c 0 -1.162 -0.154 -1.232 -1.008 -1.274c -0.084 -0.084 -0.084 -0.378 0 -0.462c 0.49 0.014 1.008 0.028 1.568 0.028c 0.56 0 1.092 -0.014 1.554 -0.028c 0.084 0.084 0.084 0.378 0 0.462c -0.854 0.042 -1.008 0.112 -1.008 1.274v 6.454c 0 0.91 0.056 1.47 0.056 1.47c 0 0.098 -0.056 0.14 -0.182 0.14c -0.35 -0.14 -1.4 -0.336 -1.96 -0.378c -0.028 -0.112 0 -0.336 0.084 -0.42c 0.812 -0.056 0.896 -0.098 0.896 -1.148Z "/></symbol><symbol id="gA532EDE908605A39B732C4D38E7331AB" overflow="visible"><path d="M 0 0m 5.404 1.302c -0.518 -0.532 -0.924 -0.756 -1.736 -0.756c -0.504 0 -1.092 0.294 -1.526 1.008c -0.28 0.462 -0.448 1.106 -0.448 1.918l 3.724 -0.028c 0.168 0 0.266 0.084 0.266 0.238c 0 1.176 -0.42 2.436 -2.366 2.436c -1.218 0 -2.8 -1.162 -2.8 -3.29c 0 -0.784 0.196 -1.54 0.658 -2.072c 0.476 -0.56 1.134 -0.896 2.142 -0.896c 1.064 0 1.82 0.49 2.38 1.218c -0.042 0.14 -0.126 0.21 -0.294 0.224Z m -3.668 2.646c 0.266 1.582 1.246 1.708 1.582 1.708c 0.532 0 1.162 -0.294 1.162 -1.47c 0 -0.126 -0.056 -0.196 -0.21 -0.196Z "/></symbol><symbol id="g4BA1F264E29A379329A9B3EDCF0DB6E0" overflow="visible"><path d="M 0 0m 2.338 5.516c -0.084 -0.084 -0.14 -0.056 -0.14 0.07v 2.576c 0 0.91 0.056 1.47 0.056 1.47c 0 0.098 -0.056 0.14 -0.182 0.14c -0.35 -0.14 -1.4 -0.336 -1.96 -0.378c -0.028 -0.112 0 -0.336 0.084 -0.42c 0.042 0 0.084 0 0.126 0c 0.616 -0.042 0.77 -0.042 0.77 -1.148v -6.832c 0 -0.546 -0.014 -0.798 -0.056 -0.994c 0.07 -0.112 0.14 -0.168 0.308 -0.168c 0.084 0.084 0.224 0.21 0.336 0.336c 0.14 0.168 0.224 0.168 0.378 0.042c 0.322 -0.266 0.742 -0.35 1.232 -0.35c 1.428 0 3.094 1.302 3.094 3.528c 0 1.708 -1.26 2.758 -2.478 2.758c -0.602 0 -1.134 -0.238 -1.568 -0.63Z m 0.098 -0.434c 0.364 0.322 0.784 0.448 1.19 0.448c 0.854 0 1.554 -1.036 1.554 -2.394c 0 -1.596 -0.644 -2.8 -1.974 -2.8c -0.434 0 -0.728 0.308 -1.008 0.658v 3.5c 0 0.294 0.056 0.434 0.238 0.588Z "/></symbol><symbol id="gB878A7E62DD0C8BAB821D7E84F93B203" overflow="visible"><path d="M 0 0m 0.672 1.932c 0.056 -0.686 0.098 -1.344 0.098 -1.932c 0.14 0.028 0.28 0.042 0.35 0.042c 0.098 0 0.182 0 0.28 -0.028c 0.378 -0.098 0.756 -0.154 1.274 -0.154c 0.784 0 2.226 0.378 2.226 1.764c 0 0.952 -0.686 1.512 -1.638 1.862c -0.84 0.322 -1.4 0.532 -1.4 1.302c 0 0.574 0.504 0.896 0.98 0.896c 0.308 0 1.12 -0.112 1.302 -1.302c 0.084 -0.084 0.364 -0.07 0.448 0.014c 0.042 0.504 0.07 1.022 0.084 1.484c -0.434 0.07 -1.106 0.266 -1.834 0.266c -1.036 0 -1.974 -0.672 -1.974 -1.568c 0 -1.022 0.462 -1.456 1.54 -1.904c 1.162 -0.476 1.428 -0.77 1.428 -1.372c 0 -0.686 -0.672 -0.98 -1.19 -0.98c -0.546 0 -0.854 0.182 -0.994 0.336c -0.308 0.322 -0.462 0.938 -0.546 1.288c -0.084 0.084 -0.35 0.07 -0.434 -0.014Z "/></symbol><symbol id="gFC30FD585E5C41203CC13ED927ADFB05" overflow="visible"><path d="M 0 0m 1.456 1.33c -0.434 0 -0.742 -0.294 -0.742 -0.686c 0 -0.434 0.364 -0.574 0.616 -0.616c 0.266 -0.028 0.504 -0.112 0.504 -0.434c 0 -0.294 -0.504 -0.938 -1.232 -1.12c 0 -0.14 0.028 -0.238 0.126 -0.336c 0.84 0.154 1.652 0.826 1.652 1.806c 0 0.84 -0.364 1.386 -0.924 1.386Z "/></symbol><symbol id="g469E1F4932B4E6AD483B1BCD4AE8BC79" overflow="visible"><path d="M 0 0m 1.582 4.438v -3.374c 0 -1.848 -0.056 -3.57 -0.756 -3.57c -0.154 0 -0.336 0.056 -0.434 0.154c -0.14 0.14 -0.308 0.364 -0.616 0.364c -0.154 0 -0.448 -0.28 -0.448 -0.532c 0 -0.406 0.504 -0.602 0.77 -0.602c 0.294 0 1.022 0.042 1.54 0.476c 0.658 0.532 1.05 1.54 1.05 4.186v 2.954c 0 0.7 0.056 1.596 0.056 1.596c 0 0.056 -0.07 0.098 -0.182 0.098c -0.392 -0.154 -0.952 -0.28 -1.918 -0.406c -0.028 -0.084 0 -0.308 0.028 -0.392c 0.756 -0.07 0.91 -0.154 0.91 -0.952Z m -0.196 3.948c 0 -0.364 0.336 -0.728 0.672 -0.728c 0.392 0 0.728 0.378 0.728 0.672c 0 0.336 -0.294 0.728 -0.672 0.728c -0.336 0 -0.728 -0.336 -0.728 -0.672Z "/></symbol><symbol id="g17408F8BFD45E7DF201930D9FA60925B" overflow="visible"><path d="M 0 0m 6.408 0.348q -0.384 -0.276 -0.978 -0.396q -0.594 -0.12 -1.218 -0.12q -0.756 0 -1.434 0.234q -0.678 0.234 -1.194 0.756q -0.516 0.522 -0.822 1.356q -0.306 0.834 -0.306 2.022q 0 1.236 0.342 2.07q 0.342 0.834 0.888 1.344q 0.546 0.51 1.218 0.732q 0.672 0.222 1.344 0.222q 0.72 0 1.218 -0.096q 0.498 -0.096 0.822 -0.228l -0.324 -1.392q -0.276 0.132 -0.654 0.192q -0.378 0.06 -0.918 0.06q -0.996 0 -1.602 -0.708q -0.606 -0.708 -0.606 -2.196q 0 -0.648 0.144 -1.182q 0.144 -0.534 0.438 -0.912q 0.294 -0.378 0.732 -0.588q 0.438 -0.21 1.014 -0.21q 0.54 0 0.912 0.108q 0.372 0.108 0.648 0.276l 0.336 -1.344Z "/></symbol><symbol id="g8F293AD4C53829FD735088629BA77DD5" overflow="visible"><path d="M 0 0m 4.102 0.672c 0.084 -0.434 0.238 -0.812 0.938 -0.812c 0.532 0 1.036 0.238 1.33 0.518c -0.028 0.168 -0.084 0.294 -0.238 0.378c -0.098 -0.084 -0.336 -0.224 -0.518 -0.224c -0.406 0 -0.42 0.546 -0.42 1.19v 2.058c 0 1.988 -1.092 2.366 -2.114 2.366c -1.148 0 -2.31 -0.756 -2.31 -1.554c 0 -0.336 0.168 -0.504 0.49 -0.504c 0.406 0 0.658 0.294 0.658 0.476c 0 0.098 -0.014 0.196 -0.042 0.252c -0.014 0.042 -0.028 0.126 -0.028 0.28c 0 0.434 0.588 0.588 1.12 0.588c 0.476 0 1.134 -0.238 1.134 -1.82c 0 -0.098 -0.042 -0.154 -0.084 -0.168l -1.204 -0.294c -1.344 -0.336 -2.31 -1.078 -2.31 -2.03c 0 -1.148 0.784 -1.512 1.764 -1.512c 0.49 0 0.91 0.112 1.526 0.588l 0.28 0.224Z m 0 2.59v -1.848c 0 -0.182 -0.084 -0.28 -0.196 -0.364c -0.364 -0.294 -0.84 -0.616 -1.232 -0.616c -0.7 0 -1.008 0.56 -1.008 0.994c 0 0.63 0.294 1.274 1.33 1.54Z "/></symbol><symbol id="g5DDED89538E8C153F924E277D05C7A44" overflow="visible"><path d="M 0 0m 0.602 6.006c -0.196 0 -0.252 -0.168 -0.252 -0.28v -0.182c 0 -0.07 0.014 -0.084 0.07 -0.084h 0.826v -4.214c 0 -0.994 0.434 -1.386 1.078 -1.386c 0.644 0 1.344 0.308 1.89 0.924c -0.028 0.14 -0.112 0.224 -0.252 0.238c -0.364 -0.28 -0.784 -0.392 -1.148 -0.392c -0.378 0 -0.462 0.42 -0.462 1.288v 3.542h 1.456c 0.14 0 0.336 0.056 0.336 0.182v 0.28c 0 0.056 -0.042 0.084 -0.112 0.084h -1.68v 0.546c 0 0.91 0.056 1.47 0.056 1.47c 0 0.084 -0.042 0.126 -0.112 0.126c -0.056 0 -0.182 -0.056 -0.308 -0.126c -0.154 -0.084 -0.294 -0.154 -0.476 -0.196c -0.168 -0.056 -0.308 -0.098 -0.308 -0.196c 0 -0.168 0.042 -0.07 0.042 -1.624Z "/></symbol><symbol id="g2E0BEF1CFAF4AA0824B13B9AB4CC890A" overflow="visible"><path d="M 0 0m 2.338 4.004c 0 0.294 0.126 0.462 0.238 0.588c 0.532 0.518 1.246 0.826 1.792 0.826c 0.28 0 0.574 -0.182 0.742 -0.504c 0.14 -0.28 0.168 -0.658 0.168 -1.078v -2.128c 0 -1.148 -0.14 -1.204 -0.868 -1.274c -0.07 -0.084 -0.07 -0.378 0 -0.462c 0.392 0.014 0.868 0.028 1.428 0.028c 0.56 0 1.022 -0.014 1.484 -0.028c 0.07 0.084 0.07 0.378 0 0.462c -0.784 0.07 -0.938 0.126 -0.938 1.274v 2.086c 0 0.77 -0.056 1.456 -0.378 1.876c -0.238 0.308 -0.672 0.476 -1.162 0.476c -0.686 0 -1.526 -0.182 -2.38 -1.134c 0 -0.014 -0.014 -0.014 -0.028 -0.028c -0.042 -0.056 -0.112 -0.14 -0.112 0.028l 0.014 3.15c 0 0.91 0.056 1.47 0.056 1.47c 0 0.098 -0.056 0.14 -0.182 0.14c -0.35 -0.14 -1.4 -0.336 -1.96 -0.378c -0.028 -0.112 0 -0.336 0.084 -0.42c 0.042 0 0.084 0 0.126 0c 0.616 -0.042 0.77 -0.042 0.77 -1.148v -6.118c 0 -1.162 -0.168 -1.218 -0.98 -1.274c -0.084 -0.084 -0.084 -0.378 0 -0.462c 0.462 0.014 0.98 0.028 1.54 0.028c 0.532 0 0.994 -0.014 1.386 -0.028c 0.084 0.084 0.084 0.378 0 0.462c -0.714 0.056 -0.84 0.112 -0.84 1.274Z "/></symbol><symbol id="gDACA33D2BFADB1EA4AC242FA6F7EC1A4" overflow="visible"><path d="M 0 0m 2.842 5.572c 0.084 0.084 0.084 0.378 0 0.462c -0.42 -0.014 -0.91 -0.028 -1.414 -0.028c -0.532 0 -0.91 0.014 -1.274 0.028c -0.084 -0.084 -0.084 -0.378 0 -0.462c 0.658 -0.07 0.812 -0.21 1.106 -0.938l 1.834 -4.522c 0.084 -0.196 0.196 -0.28 0.336 -0.28c 0.126 0 0.238 0.084 0.336 0.308l 1.414 3.444l 1.442 -3.472c 0.084 -0.196 0.196 -0.28 0.336 -0.28c 0.126 0 0.238 0.084 0.322 0.294l 1.834 4.438c 0.224 0.574 0.462 0.966 1.176 1.008c 0.084 0.084 0.084 0.378 0 0.462c -0.28 -0.014 -0.588 -0.028 -1.008 -0.028c -0.42 0 -1.008 0.014 -1.428 0.028c -0.084 -0.084 -0.084 -0.378 0 -0.462c 1.05 -0.056 0.91 -0.462 0.714 -0.952l -1.176 -2.912c -0.14 -0.35 -0.196 -0.35 -0.308 -0.056l -1.204 3.066c -0.266 0.658 -0.238 0.798 0.504 0.854c 0.084 0.084 0.084 0.378 0 0.462c -0.42 -0.014 -0.98 -0.028 -1.4 -0.028c -0.35 0 -0.812 0.014 -1.232 0.028c -0.084 -0.084 -0.084 -0.378 0 -0.462c 0.658 -0.056 0.826 -0.462 1.078 -1.092l 0.084 -0.224l -0.98 -2.478c -0.182 -0.462 -0.21 -0.476 -0.392 -0.028l -1.12 2.884c -0.266 0.672 -0.252 0.896 0.42 0.938Z "/></symbol><symbol id="gFC904654FCB939E76EFFA168B98DD9E2" overflow="visible"><path d="M 0 0m 2.856 -2.24c 0.224 0.392 0.406 0.784 0.574 1.204c 1.12 2.702 1.75 4.144 2.478 5.712c 0.28 0.588 0.476 0.812 1.134 0.896c 0.084 0.084 0.084 0.378 0 0.462c -0.28 -0.014 -0.602 -0.028 -0.994 -0.028c -0.42 0 -0.854 0.014 -1.274 0.028c -0.084 -0.084 -0.084 -0.378 0 -0.462c 0.448 -0.042 0.896 -0.126 0.672 -0.63l -1.386 -3.206c -0.098 -0.224 -0.224 -0.266 -0.336 0.014l -1.246 2.912c -0.252 0.588 -0.322 0.854 0.462 0.91c 0.084 0.084 0.084 0.378 0 0.462c -0.518 -0.014 -1.078 -0.028 -1.582 -0.028c -0.476 0 -0.854 0.014 -1.134 0.028c -0.084 -0.084 -0.084 -0.378 0 -0.462c 0.56 -0.07 0.742 -0.196 1.106 -1.05l 1.582 -3.682c 0.126 -0.28 0.336 -0.924 0.196 -1.316c -0.168 -0.462 -0.336 -0.854 -0.546 -1.288c -0.154 -0.28 -0.35 -0.406 -0.7 -0.406c -0.196 0 -0.252 0.042 -0.406 0.042c -0.406 0 -0.616 -0.42 -0.616 -0.602c 0 -0.294 0.28 -0.518 0.658 -0.518c 0.294 0 0.854 0.112 1.358 1.008Z "/></symbol><symbol id="gDE7E0F1844E86228BD6C02EF47CF0193" overflow="visible"><path d="M 0 0m 2.016 9.212c -0.336 0 -0.742 -0.266 -0.742 -1.022c 0 -0.98 0.196 -1.47 0.322 -2.702c 0.112 -1.092 0.196 -2.352 0.224 -2.646c 0.014 -0.084 0.056 -0.182 0.196 -0.182c 0.14 0 0.182 0.126 0.196 0.28c 0.028 0.196 0.028 1.036 0.21 2.548c 0.14 1.204 0.336 1.792 0.336 2.702c 0 0.756 -0.406 1.022 -0.742 1.022Z m -0.742 -8.61c 0 -0.406 0.336 -0.742 0.742 -0.742c 0.406 0 0.742 0.336 0.742 0.742c 0 0.406 -0.336 0.742 -0.742 0.742c -0.406 0 -0.742 -0.336 -0.742 -0.742Z "/></symbol><symbol id="g84FE02B6FEAF82D6330AA3F4D21AA2FC" overflow="visible"><path d="M 0 0m 9.324 4.606c 0 2.898 -2.002 4.606 -4.508 4.606c -2.716 0 -4.298 -2.156 -4.298 -4.872c 0 -2.758 2.002 -4.48 4.382 -4.48c 1.554 0 2.786 0.672 3.556 1.764c 0.56 0.798 0.868 1.806 0.868 2.982Z m -4.69 4.102c 1.848 0 3.346 -1.54 3.346 -4.368c 0 -2.506 -1.204 -3.976 -2.8 -3.976c -1.708 0 -3.318 1.526 -3.318 4.214c 0 2.94 1.386 4.13 2.772 4.13Z "/></symbol><symbol id="g4527FC7FD7996E032C40132DD558E28F" overflow="visible"><path d="M 0 0m 2.45 1.708v 3.752h 1.302c 0.126 0 0.322 0.056 0.322 0.182v 0.28c 0 0.056 -0.042 0.084 -0.112 0.084h -1.512v 0.798c 0 2.156 0.644 2.492 1.106 2.492c 0.42 0 0.644 -0.168 0.84 -0.658c 0.112 -0.252 0.266 -0.448 0.56 -0.448c 0.238 0 0.574 0.294 0.574 0.574c 0 0.238 -0.154 0.49 -0.448 0.714c -0.364 0.252 -0.728 0.294 -1.26 0.294c -1.176 0 -2.478 -1.022 -2.478 -3.206v -0.56h -0.714c -0.252 0 -0.322 -0.168 -0.322 -0.28v -0.182c 0 -0.07 0.014 -0.084 0.07 -0.084h 0.966v -3.752c 0 -1.162 -0.224 -1.218 -0.98 -1.274c -0.084 -0.084 -0.084 -0.378 0 -0.462c 0.49 0.014 0.98 0.028 1.54 0.028c 0.56 0 1.232 -0.014 1.722 -0.028c 0.084 0.084 0.084 0.378 0 0.462c -1.092 0.056 -1.176 0.112 -1.176 1.274Z "/></symbol><symbol id="gAEE3AE20A7295520AC54AE0CEDB7C17C" overflow="visible"><path d="M 0 0m 3.038 -0.14c 0.546 0 1.204 0.28 1.89 0.84c 0.07 0.056 0.196 0.084 0.21 -0.014c 0.042 -0.35 0.154 -0.826 0.154 -0.826c 0.112 -0.042 0.182 -0.028 0.266 0c 0.308 0.252 0.798 0.462 1.652 0.56c 0.084 0.084 0.084 0.294 0 0.378c -0.896 0.07 -1.022 0.336 -1.022 1.022v 2.688c 0 0.42 0.056 1.442 0.056 1.442c 0 0.042 -0.042 0.084 -0.112 0.084c -0.07 -0.014 -0.28 -0.028 -0.49 -0.028c -0.448 0 -0.952 0.014 -1.428 0.028c -0.084 -0.084 -0.084 -0.378 0 -0.462c 0.686 -0.042 0.868 -0.21 0.868 -1.134v -2.702c 0 -0.266 -0.028 -0.378 -0.224 -0.546c -0.518 -0.448 -1.05 -0.672 -1.4 -0.672c -0.42 0 -1.12 0.196 -1.12 1.442v 2.548c 0 0.42 0.056 1.442 0.056 1.442c 0 0.042 -0.042 0.084 -0.112 0.084c -0.07 -0.014 -0.28 -0.028 -0.49 -0.028c -0.448 0 -0.952 0.014 -1.428 0.028c -0.084 -0.084 -0.084 -0.378 0 -0.462c 0.672 -0.056 0.868 -0.21 0.868 -1.12v -2.688c 0 -0.966 0.42 -1.904 1.806 -1.904Z "/></symbol><symbol id="g52D4DDD735C277DE32B0BF32D62E0BB" overflow="visible"><path d="M 0 0m 0.574 2.87c 0 -1.428 0.952 -3.01 2.94 -3.01c 0.896 0 1.582 0.322 2.058 0.784c 0.63 0.616 0.91 1.498 0.91 2.352c 0 1.456 -0.798 3.15 -2.94 3.15c -0.924 0 -1.68 -0.378 -2.198 -0.98c -0.504 -0.602 -0.77 -1.414 -0.77 -2.296Z m 2.758 2.786c 1.204 0 1.946 -1.092 1.946 -3.108c 0 -1.764 -0.91 -2.198 -1.568 -2.198c -1.456 0 -1.932 1.764 -1.932 2.842c 0 1.218 0.294 2.464 1.554 2.464Z "/></symbol><symbol id="gE0F1521E7E2AEFC9E32AEE88F685AA10" overflow="visible"><path d="M 0 0m 2.464 5.012c -0.028 0.56 -0.042 0.924 -0.112 1.064c -0.028 0.07 -0.056 0.112 -0.168 0.112c -0.392 -0.154 -0.756 -0.28 -1.722 -0.406c -0.028 -0.084 0 -0.308 0.028 -0.392c 0.756 -0.07 0.91 -0.14 0.91 -0.952v -2.73c 0 -1.162 -0.168 -1.218 -1.036 -1.274c -0.084 -0.084 -0.084 -0.378 0 -0.462c 0.49 0.014 1.036 0.028 1.596 0.028c 0.56 0 1.204 -0.014 1.694 -0.028c 0.084 0.084 0.084 0.378 0 0.462c -0.98 0.07 -1.148 0.112 -1.148 1.274v 1.946c 0 0.364 0.168 0.686 0.336 0.938c 0.154 0.224 0.476 0.686 0.644 0.686c 0.126 0 0.252 -0.028 0.364 -0.182c 0.098 -0.14 0.266 -0.322 0.504 -0.322c 0.336 0 0.658 0.35 0.658 0.7c 0 0.266 -0.252 0.672 -0.84 0.672c -0.658 0 -1.232 -0.616 -1.554 -1.162c -0.084 -0.154 -0.154 -0.042 -0.154 0.028Z "/></symbol><symbol id="g6DE8B78E4446B8B7FDC11CBE2A868A83" overflow="visible"><path d="M 0 0m 4.676 0.7c 0.07 0.056 0.196 0.084 0.21 -0.014c 0.042 -0.336 0.154 -0.826 0.154 -0.826c 0.112 -0.042 0.182 -0.028 0.266 0c 0.308 0.252 0.798 0.462 1.652 0.56c 0.084 0.084 0.084 0.294 0 0.378c -0.896 0.07 -1.022 0.336 -1.022 1.022v 6.342c 0 0.91 0.056 1.47 0.056 1.47c 0 0.098 -0.056 0.14 -0.182 0.14c -0.35 -0.14 -1.4 -0.336 -1.96 -0.378c -0.028 -0.112 0 -0.336 0.084 -0.42c 0.042 0 0.084 0 0.126 0c 0.616 -0.042 0.77 -0.042 0.77 -1.148v -1.792c 0 -0.098 -0.028 -0.126 -0.126 -0.126c -0.056 0 -0.63 0.238 -1.092 0.238c -0.924 0 -1.54 -0.308 -2.1 -0.84c -0.602 -0.602 -0.966 -1.428 -0.966 -2.464c 0 -1.722 0.868 -2.982 2.38 -2.982c 0.546 0 1.064 0.28 1.75 0.84Z m 0.154 1.036c 0 -0.266 -0.028 -0.378 -0.224 -0.546c -0.518 -0.448 -0.966 -0.672 -1.316 -0.672c -0.756 0 -1.54 0.826 -1.54 2.576c 0 1.008 0.196 1.568 0.406 1.862c 0.434 0.658 1.022 0.7 1.302 0.7c 0.504 0 0.854 -0.182 1.134 -0.504c 0.196 -0.224 0.238 -0.322 0.238 -0.756Z "/></symbol><symbol id="gA840A37B41AB77F87C5689485A9F952A" overflow="visible"><path d="M 0 0m 2.674 1.708v 5.614c 0 1.162 0.238 1.232 1.218 1.274c 0.084 0.084 0.084 0.378 0 0.462c -0.616 -0.014 -1.274 -0.028 -1.82 -0.028c -0.462 0 -1.148 0.014 -1.806 0.028c -0.084 -0.084 -0.084 -0.378 0 -0.462c 0.98 -0.042 1.218 -0.112 1.218 -1.274v -5.614c 0 -1.162 -0.238 -1.232 -1.218 -1.274c -0.084 -0.084 -0.084 -0.378 0 -0.462c 0.63 0.014 1.316 0.028 1.82 0.028c 0.504 0 1.176 -0.014 1.806 -0.028c 0.084 0.084 0.084 0.378 0 0.462c -0.98 0.042 -1.218 0.112 -1.218 1.274Z "/></symbol><symbol id="g2509ADA8A33C0459E363ED2C49C73AC8" overflow="visible"><path d="M 0 0m 4.86 1.86h -2.58l -0.636 -1.86h -1.644l 3.024 8.46h 1.212l 3.024 -8.46h -1.728l -0.672 1.86Z m -2.16 1.32h 1.8l -0.624 1.872l -0.252 1.32h -0.06l -0.252 -1.332l -0.612 -1.86Z "/></symbol><symbol id="g4B771A9F80B02B566A4E618321240F7C" overflow="visible"><path d="M 0 0m 1.248 0l 2.748 6.468l 0.528 0.588l -0.72 -0.12h -3.084v 1.464h 5.412v -0.456l -3.36 -7.944h -1.524Z "/></symbol><symbol id="gCCF635D02B89F0D773C86EE369CACA20" overflow="visible"><path d="M 0 0m 3.794 3.122c 0.182 0 0.378 0.392 0.378 0.56c 0 0.14 -0.056 0.28 -0.196 0.28h -3.066c -0.168 0 -0.35 -0.322 -0.35 -0.574c 0 -0.14 0.084 -0.266 0.21 -0.266Z "/></symbol><symbol id="g1635179D06CBB16A0A77EDA16F2552DD" overflow="visible"><path d="M 0 0m 2.184 5.152c -0.014 0.42 -0.042 0.784 -0.112 0.924c -0.028 0.07 -0.056 0.112 -0.168 0.112c -0.392 -0.154 -0.756 -0.28 -1.722 -0.406c -0.028 -0.084 0 -0.308 0.028 -0.392c 0.756 -0.07 0.91 -0.14 0.91 -0.952v -5.978c 0 -1.162 -0.154 -1.232 -1.008 -1.274c -0.084 -0.084 -0.084 -0.378 0 -0.462c 0.49 0.014 1.008 0.028 1.568 0.028c 0.56 0 1.232 -0.014 1.694 -0.028c 0.084 0.084 0.084 0.378 0 0.462c -0.994 0.056 -1.148 0.112 -1.148 1.274v 1.512c 0 0.182 0.056 0.168 0.196 0.112c 0.35 -0.14 0.77 -0.224 1.218 -0.224c 0.784 0 1.484 0.238 2.058 0.784c 0.658 0.644 1.036 1.512 1.036 2.646c 0 1.484 -1.05 2.856 -2.478 2.856c -0.644 0 -1.358 -0.42 -1.918 -1.05c -0.084 -0.084 -0.14 -0.084 -0.154 0.056Z m 0.266 -0.518c 0.364 0.448 1.008 0.868 1.414 0.868c 0.896 0 1.666 -1.008 1.666 -2.59c 0 -1.148 -0.406 -2.576 -1.974 -2.576c -0.252 0 -0.742 0.07 -0.994 0.294c -0.28 0.252 -0.336 0.336 -0.336 0.84v 2.548c 0 0.294 0.056 0.42 0.224 0.616Z "/></symbol><symbol id="g31768D2F216E574E7A2006D9D545CEDD" overflow="visible"><path d="M 0 0m 0.72 8.4q 0.252 0.036 0.57 0.06q 0.318 0.024 0.654 0.036q 0.336 0.012 0.654 0.018q 0.318 0.006 0.57 0.006q 1.116 0 1.908 -0.312q 0.792 -0.312 1.284 -0.876q 0.492 -0.564 0.72 -1.344q 0.228 -0.78 0.228 -1.716q 0 -0.852 -0.216 -1.644q -0.216 -0.792 -0.72 -1.404q -0.504 -0.612 -1.326 -0.984q -0.822 -0.372 -2.034 -0.372q -0.192 0 -0.51 0.012q -0.318 0.012 -0.66 0.03q -0.342 0.018 -0.654 0.036q -0.312 0.018 -0.468 0.042v 8.412Z m 2.58 -1.344q -0.264 0 -0.534 -0.012q -0.27 -0.012 -0.402 -0.036v -5.628q 0.048 -0.012 0.162 -0.018q 0.114 -0.006 0.246 -0.012q 0.132 -0.006 0.252 -0.012q 0.12 -0.006 0.18 -0.006q 0.696 0 1.158 0.246q 0.462 0.246 0.732 0.654q 0.27 0.408 0.378 0.942q 0.108 0.534 0.108 1.098q 0 0.492 -0.096 0.99q -0.096 0.498 -0.354 0.894q -0.258 0.396 -0.702 0.648q -0.444 0.252 -1.128 0.252Z "/></symbol></defs></svg>